<?xml version="1.0" encoding="UTF-8"?>
<svg width="222.78" height="323.56" version="1.1" viewBox="0 0 167.09 242.67" xmlns="http://www.w3.org/2000/svg"><text x="1.0945333" y="26.10416" style="fill:#df0000;font-family:'Bitstream Vera Sans';font-size:12px;font-weight:400;letter-spacing:0;line-height:0%;word-spacing:0" xml:space="preserve"><tspan x="1.0945333" y="26.10416" style="fill:#df0000;font-family:Arial;font-size:29.224px;font-weight:400;line-height:1.25">K</tspan></text><path d="m15.574 29.233c-3.6071 0-4.0891 3.6201-4.0891 3.6201s-0.48101-3.6201-4.0881-3.6201c-2.5251 0-4.8091 1.623-4.8091 4.6841 0 4.0451 7.3182 8.1132 8.8973 14.052 1.504-5.9342 8.8983-10.007 8.8983-14.052 0-3.0611-2.2851-4.6841-4.8101-4.6841z" style="fill:#df0000;stroke-width:1.076"/><text transform="scale(-1)" x="-166.65149" y="-216.56183" style="fill:#df0000;font-family:'Bitstream Vera Sans';font-size:12px;font-weight:400;letter-spacing:0;line-height:0%;word-spacing:0" xml:space="preserve"><tspan x="-166.65149" y="-216.56183" style="fill:#df0000;font-family:Arial;font-size:29.224px;font-weight:400;line-height:1.25">K</tspan></text><path d="m152.17 213.43c3.6071 0 4.0881-3.6191 4.0881-3.6191s0.48201 3.6201 4.0891 3.6201c2.5241 0 4.8091-1.623 4.8091-4.6851 0-4.0451-7.3182-8.1132-8.8983-14.052-1.503 5.9342-8.8973 10.007-8.8973 14.052 0 3.0621 2.2841 4.6841 4.8102 4.6841z" style="fill:#df0000;stroke-width:1.076"/><path d="m61.53 204.46 39.244 0.89002c3.4761 5.0692 10.455 15.405 10.455 15.405l-63.405 0.88602zm-16.422 3.5291c1.6951-3.6121 2.0231-7.0922 1.7001-12.109-0.25401-3.8491 2.0271-6.8472 4.3801-5.6982 1.8201 0.88803 0.98003 4.5301-0.90203 3.7601-0.72002-0.29601-1.351-0.028-1.256 1.702 0.168 4.2631 1.244 9.0653 0.31901 13.152-0.64402 3.9701-5.8162 2.1411-4.2411-0.80803zm-15.889-5.5692c-1.9971-3.1641 1.583-6.1302 3.8241-4.6701 1.063 0.52501 0.91203 1.668-0.42701 1.06-1.8701-0.85003-3.8821 2.1571-2.2551 3.3651 0.74902 0.55602 1.034 0.48101 0.46401-0.21501-1.516-1.862 2.3631-2.6851 2.2501-1.459-0.26501 1.494-0.29801 2.1231-0.42701 2.4171-0.79002 1.303-2.3081 0.63802-3.4291-0.49901zm5.5722-13.307c-2.1571-2.8451 0.31701-5.0822 0.28401-5.0002 0.64002-0.73202-5.1412-12.113-4.4101-12.187 7.3022-0.82003 14.682-0.20101 22 0.04 2e-3 0-3.9021 7.4102-5.4572 11.076-0.62702 1.478 0.83802 3.2161 0.23201 4.3131-1.8841 2.1741-0.71302 4.5821-1.8871 4.6901-3.2951-0.44602-6.5512-1.024-10.204-0.25101-0.27001 0-0.29801-1.624-0.55702-2.6811zm31.611-79.076c3.6921 19.847-1.7521 40.885-14.232 54.765-1.7611-1.787-3.1121-5.1802-4.8681-7.3922-4.8781-1.547-8.3873 0.27401-11.807 2.0561-3.0381-1.85-6.4602-2.9371-9.7973-2.8901l-0.107-3.0701c3.3751-0.077 6.9402 0.25301 9.9463 2.2171l4.7031-2.0161-14.665-16.066 0.20001-2.7451 17.795 18.962 2.2911 0.087c-5.0362-14.138-0.63002-36.596 20.542-43.905zm24.813 24.895 2.5721 12.96s-13.601 15.471-22.011 22.818l-6.3372-0.61002s8.6563-16.258 7.0682-15.015zm51.132 17.776c-6.0402 7.1422-13.257 11.684-21.273 16.69-3.2041-3.7801-7.0932-7.9392-9.3403-11.666 6.9922-3.9461 13.658-7.0042 20.506-13.91-0.37501 0.44502-8.7343 3.4421-8.7073 3.0961-0.30101 1.475-0.12 2.3841-1.48 2.7721-1.61-2.3761-3.1671-4.3031-5.7062-5.3652-1.065 0.101-2.4801-0.64202-2.4801-0.64202 0.71202-0.154 0.39901-9.2693 3e-3 -9.3733 0 0 0.208-0.27001 2.0681-0.23001 3.3221-0.242 5.4682-4.4861 7.5292-5.9392 6.4402-0.56002 12.145 0.11 18.491-0.07-0.05 8.1122 0.39301 16.524 0.39101 24.639zm-40.895-20.549c-0.162-0.34401-1.787-13.787-0.243-22.218 0.28401-1.9771 3.2351-2.6481 3.8001-4.1201 0.93803-3.2021-0.47201-7.1562 0.27201-10.744 0.75702-3.6531 2.3901-5.7082 3.8201-8.4232 1.548-2.9411 3.7661-6.6112 6.2232-8.8043 0.72202-0.74602 3.2411 1.656 5.1242 5.8092 5.4692 3.6401 12.48-1.057 12.48-1.057s2.7221 2.3471 8.8763 3.6301l-0.10501 2.5241c-0.031 0.73502-6.9232-0.78202-8.4062-2.2471 0 0-5.1402 1.8181-5.1402 2.1501 0 1.414 13.572 14.705 13.572 14.705l0.076 3.2771c-2.0341-2.9941-17.953-17.384-17.953-17.384 3.5291 21.893-4.9002 35.527-22.398 42.901zm-22.773-4.2841-0.30501-12.893 11.598 0.14601 0.47701 13.027zm-53.074-13.936c0.31001-0.45801-0.45101-24.031-0.40301-24.031 7.3822-7.7622 14.601-12.1 21.841-16.82 3.2731 3.4271 6.0542 6.3182 8.4663 10.47l-9.9863 6.5012c0.37901 1.585-0.60602 2.1561 5.8322 8.3252 0.109-0.42302 2.2301-1.678 2.6001 0.2-0.87303 3.9661 0.38601 7.3372 0.55202 9.4693-0.88003 1.249-2.8451-0.092-2.8451-0.092-1.271-1.401-6.2552 5.5172-7.6772 6.2902-6.2072-0.24501-18.728 0.20001-18.379-0.31401zm69.872-42.034c0.082-0.084 6.3132 0.05 6.2302 0.28701-1.136 3.2181-3.9541 8.9303-6.5332 15.521-2.9711 5.6182-7.0942 8.9273-10.614 12.608-2.8141 2.9441-5.3232 7.5812-7.2452 6.3772-1.173-3.9871-1.444-7.5232-2.7381-11.94-0.59302-2.6171 3.0061-4.3221 20.902-22.854zm27.271-22.102c2.2831 1.03 8.6963 0.49002 9.7143 0.027 1.305 0.93603 0.49001 2.1841 0.32601 2.8761 1.339 1.793 2.0721 2.4281 0.55101 5.3182-0.34701 0 4.6751 11.956 4.8102 11.965 0 0-5.3072-2.6641-7.1792-4.4631l-3.6601 5.1482-4.2531-5.8132c-0.016 0.52502-8.1942 6.2642-8.2932 5.9872-0.25701-0.27301 7.4692-9.0703 5.9362-14.233-0.36901-1.245 0.47602-2.5101 1.054-3.6061 0.39601-0.75302-0.13601-2.2081 0.99503-3.2081zm-4.2451-1.072c0.34601-0.42001-1.9841-11.232 0.54201-15.596 1.07-1.586 3.0051-1.667 3.8131-0.36802 0.61902 1.8061-1.223 4.3211-1.593 5.5502-1.197 3.4211 0.58002 7.9362-0.28701 11.17-2.6001 7.0652-7.2042-0.69502-2.4761-0.75602zm17.305-4.8001c-1.37 0.062-0.41402-4.2681-0.18801-5.5092-6e-3 -0.245 2.5081-0.86602 3.4131 0.83703 1.463 2.5461-0.29601 5.7562-3.2261 4.6711zm-16.34-21.834-12.905 16.602c-13.05-1.589-26.148-2.5981-39.492-0.43801l-10.734-15.835z" style="fill:#e2cf00;stroke-width:.75646"/><path d="m142.89 20.873-119.41 0.39201 1.31 201.39 119.14-0.74802zm-27.475 1.233c1.31 0 2.6201 4e-3 3.9291 7e-3l-14.296 18.604-0.35201 0.12501c0.95303 2.9521 2.3131 6.6322 3.6101 9.4273 2.0691 4.5161 7.2662 12.818 4.0231 19.458-0.31701 0.57002-0.61302 0.84703-1.01 0.84502-0.55102-3e-3 -0.54102-0.34501-0.21301-1.012 0.72202-1.467 1.212-4.9441 0.92403-6.7842-0.184-1.175-0.80002-2.9861-1.9731-5.7222-5.4332-10.613-7.1302-16.27-6.8222-16.27a1.271 1.35 0 0 0-0.39001-0.163l-0.53402-0.18801c1.8821 6.7082 4.9422 12.35 7.3622 17.573 1.9861 4.8531 2.2001 6.7362 1.161 10.27-0.40201 1.368-1.13 2.2441-1.844 2.2401-0.53602-2e-3 -0.50502-0.116-0.14-0.81002 1.904-3.6141 1.463-7.5602-0.90203-12.148-3.4351-7.5792-5.4972-12.373-6.7212-17.237-0.03-2e-3 -0.62702-0.21401-0.84203-0.26801 1.02 5.0602 3.8661 10.897 6.5172 16.871 2.1921 4.6001 2.8231 7.9522 2.0321 10.6-0.25901 1.148-1.085 2.8571-2.1301 2.9081-0.40801-3e-3 -0.47201-0.22801-0.087-0.82002 1.624-2.9451 1.9121-5.6622-0.99302-11.846-2.6721-5.6872-5.3532-12.05-6.2692-17.611-0.058-0.45602-1.22-0.99703-0.96803-0.24101 1.434 6.5662 4.2901 13.291 7.3242 19.848 1.708 4.0701 1.884 6.6742 0.60302 8.9513-0.71603 1.273-0.89903 1.563-1.436 1.575-0.63502 0.015-0.62402 0.04-0.27301-0.73403 1.55-3.4231 1.295-6.4382-0.77702-11.384-2.8401-6.7842-5.2322-12.397-6.2532-18.367-0.18401-0.055-1.145-0.45001-1.008-0.152a100.57 100.57 0 0 0 5.5812 16.302c0.81703 1.852 2.1401 5.4542 2.5661 7.2602 0.81002 3.4351-1.016 8.1532-3.4061 8.3923-0.89003 0.089-0.78003-0.38202 0.213-1.36 1.71-1.6831 2.0411-4.3691 1.46-7.4842-0.43502-2.4001-1.186-4.9732-2.2171-7.5892-2.0851-5.2902-4.3541-10.824-5.0722-15.706 0.024-0.43801-0.93203-0.44001-0.66202 0.018 0.51602 3.4331 1.7481 7.3432 3.0961 10.973 1.475 3.9731 3.6711 8.4243 4.3901 13.3 0.58902 3.9901-1.762 7.7552-4.6151 7.9802-3.4351 0.27201-4.1121-3.3301-3.2851-5.0182 1.348-2.5201 5.2632-1.08 4.1001 1.496-0.67002 1.483-2.7161 1.094-2.6291-0.53301-0.023-0.14801 0.19601-0.59402 0.157-0.61802-0.07-0.044-0.37101 0.24801-0.46601 0.43001-0.69502 1.316 1.392 3.0841 2.8441 2.0251 4.8641-2.7901 1.58-11.3-0.54002-16.499-2.0531-4.8431-3.5581-9.2203-4.2111-13.703-0.178-0.13-0.98003-0.34601-0.86803-0.19201 0.58802 2.3931 0.86003 4.4111 1.446 6.4212 0.91903 3.1531 2.5671 6.6832 3.9121 10.218 1.221 3.4791 2.4481 6.4352 1.8891 10.063-0.052 0.33501-0.181 0.73603-0.39701 0.98103-0.21901 0.24301-0.40001 0.20501-0.46401-0.71802-0.022-0.125-0.175-0.29201-0.19901-0.45201 0.12-1.363 0.032-2.7141-0.30001-3.9961-0.28301-1.074-0.82602-2.1701-1.9701-4.2561-0.45001-0.77602-1.63-3.1511-1.216-1.51 0.23801 0.92802 1.047 2.9911 1.8901 4.4841 0.52202 0.92703 1.073 3.4591 0.91003 3.9481-0.172 0.47801-0.57002 0.50501-0.75702 0.34001-0.167-0.14801-0.166-0.82503-0.20901-1.244-0.177-1.72-1.8381-4.7221-2.9911-5.9002-0.82802-0.98003 1.9501 4.1631 2.1541 5.5332 0.087 0.58002 0.25701 1.052 0.07 1.337-0.123 0.18701-0.37301 0.18901-0.61702 0.122-0.23501-0.064-0.22501-0.235-0.47401-1.118-0.42601-1.51-0.95303-2.2701-2.0461-3.6331-0.37501-0.46601-0.62502 0.117-0.028 0.87403 0.82602 1.38 1.446 2.2631 1.656 4.0401-0.53502 0.80502-0.79902 0.64902-1.9171-1.388-0.74002-1.346-1.183-1.691-1.377-1.681-0.49001 0.025-0.027 0.66802 1.349 2.9661 0.71302 1.227 0.73002 1.99-0.08 1.985-0.27501-1e-3 -1.8141-1.795-2.2001-2.5731-0.32001-0.64602-0.71702-1.14-0.71802-0.35201 0 0.31401 0.95403 1.9651 1.608 2.7661 1.03 1.264 1.326 1.518 1.457 2.0781 0.063 0.26701 0.187 0.73402 0.27501 1.037 0.26501 0.91003 0.13 1.17-0.40401 0.68902-0.24101-0.67402-0.43801-0.74402-1.101-1.263-0.56002-0.43802-1.336-1.571-1.8451-2.3701l-0.55302-0.99302c-0.50002-0.98903-1.163-1.075-0.68302-0.077 0.22801 0.46202 0.59602 1.221 0.98203 1.7841 0.64802 0.97603 0.51402 1.485-0.25401 1.481-0.33001-2e-3 -1.249-1.279-1.8231-2.2771-0.37501-0.65102-0.96103-1.112-0.89003-0.46701 0.018 0.16 0.47102 1.305 1.152 2.1991 0.73802 0.97203 0.83502 1.488 0.118 1.485-0.48901-2e-3 -0.91003-0.49602-1.534-1.503-0.59202-0.95703-0.96203-1.293-1.13-1.185-0.21201 0.138 0.85002 2.0351 1.7231 3.0701 0.82502 0.98003 0.22001 1.538-0.72902 0.66702-0.51402-0.47301-1.545-1.8821-1.8331-2.5521-0.51702-1.198-0.85003-0.87002-0.51602 0.078 0.36801 1.046 0.94203 2.1901 1.635 2.9331 0.36301 0.39002 1.113 0.69502 1.478 1.03 1.036 0.94903 1.6921 1.8251 1.607 1.9811-2.9531 0.17701-5.3782-3.1601-6.0412-5.1802-0.47101-1.33-1.01-1.525-0.49802 0.35101 1.44 4.6601 5.9282 7.0812 9.0323 4.9922 1.8731-1.26 0.21801-4.5431-1.315-3.4851-0.41601 0.28801-0.43501 1.103 0.094 0.66702 0.99503-0.82002 1.9961 1.201 0.91003 1.8001-1.527 0.84002-3.2201-0.80503-2.1821-2.8001 1.026-2.0491 5.1412-0.87602 4.3361 2.4331-0.48802 1.485-2.6241 3.3401-4.4551 3.3771-3.4031 0.068-5.7532-2.6941-7.0632-5.4222-0.168-0.35001-0.46901-1.04-0.71702-1.603-0.21501-0.48702-0.38601-0.84803-0.40301-0.84403 0.37801 3.3121 3.3661 7.4072 6.0422 8.0842 4.4471 1.106 5.6632-1.7 8.5723-4.6001 0 0 2.1251 0.29301 2.2001 0.245 0.19501-0.127 4.1351-0.31301 4.2521-0.196-15.916 30.557-14.706 66.835-1.018 94.371 0.90503 2.0151 1.064 1.633-0.43501 1.222-1.549-0.42702-2.9541 0.23-4.2121-0.078-2.6011-0.56301-3.1561 1.318-5.1552 2.3221-2.4941 0.99703-1.9301 2.8331-2.5241 4.6071-0.18701 0.27501-0.32301 0.50002-0.22101 0.46302 0.165-0.058 0.69602-0.58002 0.73702-1.038 0.102-1.174 0.49702-2.1021 0.94803-2.5701 0.43001-0.44502 0.73002-0.67002 0.83302-0.47702 0.08 0.15001 0.02 0.67602-0.19201 1.1-0.60402 1.21 0.19801 5.2572 0.24801 2.3761 0.04-2.2861 1.349-4.8352 3.1791-5.8782 1.466-0.76002 1.9201-0.68302 0.72702 0.48702-1.356 1.53-2.2771 3.3131-2.3311 5.5322-0.023 0.92003 0.32301 1.688 0.44601 0.86303-0.052-4.2251 3.9351-8.9313 8.2102-6.5922 0.21401 0.163 0.39401 0.46901 0.33101 0.64102-4.1401-0.73502-7.7432 1.66-7.2132 7.3322 0 0 0.37201-1.111 0.58002-2.2211 0.65202-3.4731 4.3631-4.9922 6.9652-4.0401 0.49001 0.21801 0.87402 0.95003 0.80502 1.048-3.1821-1.058-6.6762 2.1271-6.8782 5.5772-0.066 1.122-0.041 2.0851 0.50202 0.06 2.0551-7.6662 8.3952-4.1921 7.6152-3.5631-4.9061-0.62001-6.6822 2.8761-6.5702 6.9182 0.071 0.37001 0.25001 0.49202 0.39801 0.83603 0.65302 1.523 0.95003 2.8291 1.004 5.5922-0.05 0.71202 0.50502 5.2442-0.055 5.0532-1.7821-0.69802-3.1361-1.522-6.2252-0.051-0.27801 0.015-0.36901-0.147-0.27301-0.40201 0.128-0.34301 0.61002-1.021 1.453-2.0231 1.8971-2.1411 0.80702-1.567-0.75302-0.082-1.006 0.95903-0.78802 0.30301 0.16-2.9711 0.38501-1.328 0.146-1.489-1.51-2.3801-1.7031-0.91503-2.8811-1.055-1.435-0.095 0.56702 0.36701 1.172 0.75202 1.8141 1.024 0.75502 0.43601 0.66802 0.61901 0.112 2.5331-1.081 3.7171-1.457 5.0762-1.4 7.5752 0.138 6.0822 5.6112 5.4782 8.7273 4.1101l0.13 4.0041 11.735 17.501s-41.023-0.046-62.97 0.33601c1.253-3.1861 14.52-16.681 15.31-19.096 0.076 0.012-1.47-4.9341-2.2831-7.0852-3.8371-10.158-8.8803-14.429-5.9602-21.104 0.62802-1.323 0.73802-1.769 1.215-1.766 0.64802 3e-3 0.85602 0.46001 0.127 1.754-3.1361 5.5682 3.5551 15.175 5.8152 21.303 0.36301 0.98103 1.8771 5.5792 2.1431 7.1272 0.026 0.47401 1.088 0.63502 0.79002 0.082-0.83202-3.1301-1.8791-6.5502-2.3661-7.7802-1.7861-4.5251-3.6661-7.6122-5.4082-12.034-0.97303-2.7941-1.491-6.0212 0.019-8.9183 0.55002-1.055 0.70602-1.641 1.069-1.696 0.31301 2e-3 0.49602 0.11401 0.51602 0.38601 0.022 0.29601-0.15 0.78203-0.56202 1.522-2.6361 4.7501 2.0501 12.428 4.3721 17.903 1.514 3.5681 2.8601 7.3222 3.3371 10.706 6e-3 0.234 0.29801 0.85402 0.87903 0.43001-1.005-6.3222-3.9571-12.453-6.5422-18.361-2.2101-4.6161-3.0381-8.6393-0.086-12.438 0.25701-0.26201 0.80802-0.22001 0.84703 0.17 0.02 0.26401-0.17 0.76503-0.63102 1.7771-2.6011 5.7582 1.426 10.435 3.3151 15.925 1.8431 4.5901 3.5571 8.4462 4.2451 13.337 0.52102 0.21001 0.78002 0.47201 0.83602-0.22001-1.349-6.9122-4.2551-13.124-6.7762-19.109-1.165-2.6001-1.577-3.8471-1.656-5.5902-0.108-2.3941 1.03-5.4242 2.0511-6.2232 0.26501-0.20801 0.43001-0.24401 0.67202-0.106 0.33001 0.19 0.26401 0.31801-0.39001 1.63-1.252 2.5061-1.36 5.3222-0.20001 8.3002 2.0041 4.5721 3.6921 8.3262 4.8901 11.688 1.308 3.6781 2.0441 6.8712 2.3411 9.7533 0 0 0.89203 0.42002 0.76002-0.208-0.55702-4.0321-1.8151-8.2172-3.1731-11.758-1.282-3.3421-2.8881-6.5592-4.1901-9.8723-1.578-3.9731-0.27101-8.3182 2.9671-10.488l1.49 0.035c-0.087-0.042-3.3981 1.35-3.5701 6.3602-0.166 4.7731 1.9691 7.7072 3.5131 11.75 1.8831 4.8782 3.5671 9.1553 3.9671 14.366 0.147 0.182 0.96303 0.22001 0.94903 0.144-0.40001-3.5061-1.367-6.8392-2.7481-10.935-1.467-4.3541-2.9261-6.2842-4.2881-10.855-0.92103-3.0921-0.79702-7.2812 1.255-9.1953 3.0701-3.2861 7.3562-0.94603 6.2812 2.8141-0.82802 2.6471-4.2511 2.1211-4.2331-0.36001-4e-3 -1.6 1.8571-2.0331 2.4731-0.82502 0.144 0.236 0.24001 1.266 0.30401 1.304 0.063 0.038 0.25601-0.81003 0.25701-1 6e-3 -1.316-1.68-2.4241-2.9351-1.7561-1.7191 0.91503-2.8361 3.0181-2.7231 5.8332 0.12 2.9951 0.63302 4.9321 2.9471 9.6283 2.6961 5.4702 3.5901 11.395 4.1661 15.387 0.24901-0.11 0.54702 0.032 0.64402 0-0.39301-5.4422-2.0811-11.032-4.1881-15.679-2.5511-5.6282-3.2651-9.0723-2.4141-11.595 0.125-0.37001 0.24401-0.65002 0.39701-0.67302 0.28501-0.045 0.37401 0.43801 0.63802 1.448 0.081 0.31001-0.022 0.79703-0.08 1.174-0.22301 2.3081 1.305 7.1102 2.7251 9.2443 0.41701 0.60802 0.94803 0.58802 0.48802-0.49301-1.463-2.7901-2.3541-5.3192-2.4711-8.7103-0.035-0.99803 1.062-0.55002 1.086-0.05 0.08 1.62 0.23201 3.5281 0.96303 4.8871 1.484 2.6871 2.3101 2.8041 0.79202-0.197-0.33701-0.69602-1.302-3.6401-0.91303-4.6521 0.21601-0.20501 0.48001-0.24301 0.61002-0.037 0.42901 1.664 1.023 3.3111 2.0741 4.5921 0.55002 0.66802 0.64102 0.36602 0.35201-0.46701-0.48402-0.96303-1.9971-4.1841-1.3-4.9102 0.22401-0.197 0.093-0.09 0.70402 0.96703 0.85102 1.471 1.315 2.0471 1.7291 2.4781 0.55002 0.57201 0.68402 0.187 0.115-0.82003-1.136-2.0081-1.7821-3.6761-1.383-4.0961 0.39501-0.41501 0.49002-0.22301 1.387 1.394 0.40001 0.72002 0.97703 1.779 1.175 2.0301 0.19601 0.24801 0.37601 0.31301 0.38001 0.10701-0.21001-1.9501-1.7921-4.1761-2.4301-4.5631-0.092-0.18101-0.06-1.722-0.06-1.722 2.3801 1.296 2.4761 2.7581 4.0511 5.0102 0.162 0.168 0.39301-0.037 0.32401-0.34801-0.055-0.42102-0.98703-2.2951-1.572-3.1181-0.46001-0.64602-0.48002-1.017-0.09-1.203 0.63002-0.30101 1.51 0.68902 2.4471 2.4591 0.43501 0.82003 1.016 1.297 1.018 0.86603 1e-3 -0.23701-0.80802-2.3551-1.367-2.9671-0.93003-1.019-0.47001-1.731 0.60702-0.78902 0.48902 0.42801 1.151 0.75002 1.8341 2.3071 0.39801 0.91003 0.74002 1.026 0.74202 0.30001 2e-3 -0.81502-1.294-2.8071-2.1651-3.3581-0.67402-0.42801-1.057-0.90402-0.86803-1.222 0.59002-0.92003 2.9831 1.426 3.8001 3.6071 0.24001 0.64402 0.66302 0.97303 0.76602 0.68902 0.184-0.144-0.30001-1.716-0.79802-2.4441-0.82102-1.664-2.7621-3.2721-3.9111-3.0781-0.22201 0.038-0.83302-1.326-0.83302-1.326 2.9331-0.50102 5.7822 3.2141 6.2892 4.6031 0.96203 2.6381 1.45 2.3281 0.61002 0.015-1.644-4.5201-6.7502-7.0542-9.5843-4.8672-1.614 1.246-0.64802 4.2241 1.012 3.7201 0.66002-0.262 1.299-0.97403 0.138-0.74002-1.29 0.13701-1.7021-1.9411-0.38601-2.3581 2.1181-0.67002 2.6031 2.8981 0.89303 3.6931-1.7751 0.80503-3.5411-0.39501-3.3751-2.4551 0.31401-3.8951 4.8381-5.0202 9.3053-1.8701 1.255 0.88503 2.8001 3.7741 3.3321 5.6032 0.17601 0.60502 0.76702 0.81602 0.84002 0.74002 0.17001-0.179-1.24-3.3931-1.704-4.2101-1.9451-4.7092-8.9763-4.9422-8.9763-4.6981 0 0-2.7531 1.832-5.2002 4.8521l-6.2842-0.61202c16.01-27.189 17.27-67.163 0.84702-95.462 0.21001 0.144 3.1571 0.95003 4.1731 0.104 0.75002-0.38001 0.96403-0.51001 1.7921-0.197 0.93203 0.35401 1.9131 0.041 2.9281-0.94003 0.76502-0.74003 0.78002-0.96703 1.273-0.90003 1.458 0.20001 2.4261-0.70202 2.7261-2.9251 0.118-0.87302 0.19901-1.78 0.08-1.648-0.07 0.077-0.23801 0.83303-0.34501 1.307-0.29501 1.307-0.56802 1.7851-1.05 2.2121-0.79202 0.70102-1.251 0.31001-0.92003-0.75602 0.31301-0.68702 0.57402-2.4551 0.143-3.2601-0.076-0.14301-0.093 0.40401-0.20201 0.84102-0.86503 3.4841-1.7721 5.2532-3.3401 5.6602-0.73702 0.19301-1.077 0.074-0.84002-0.37501 2.7681-3.1181 2.5831-6.5732 2.3751-6.2782-0.58802 2.0001-1.68 4.9782-3.4761 6.2032-1.55 1.058-3.8201 1.159-5.0822 0.27001-0.71702-0.50402 0.36601-0.65302 1.9901-0.67602 2.7331-0.039 5.2882-3.8981 4.8641-7.1532-0.1-0.60001-0.25601 0.045-0.47801 1.033-1.008 3.5241-2.7381 5.9982-6.6902 5.2602-0.30801-0.058-0.51502-0.27401-0.68302-0.39701-0.64302-0.47201-0.40601-0.79502 0.87203-0.61802 2.8591 0.39401 5.3462-2.4391 5.3302-5.8622-7e-3 -1.643-0.23001-1.624-0.47702-0.40002-0.34801 1.7251-1.618 7.0162-6.2402 5.2882-0.83202-0.47701-1.287-1.088-0.99003-1.177 2.6961 0.57401 5.1672-0.052 6.1272-3.7961a8.2222 8.2222 0 0 0-0.10702-4.5191c-0.134-0.89803-0.42001-1.583-0.51602-2.4951-0.25701-2.4461-0.62702-5.1462-0.51602-7.8222 0.22101-0.23301 0.26001-0.18201 1.036 0.36201 1.523 1.07 2.6761 0.82403 4.2251 0.18901 1.9931-0.76103 1.8121-0.62402-0.27201 1.867-0.43401 0.51902-0.87403 1.153-0.92403 1.25-0.53002 1.052 0.46501 0.28001 1.21-0.71002 1.035-1.376 1.253-1.694 1.457-1.693 0.07 1.488-0.43801 3.2961-0.70002 4.5151-0.34501 1.352-0.34001 1.663 0.47401 2.0101 0.35301 0.15001 1.033 0.44602 1.412 0.63702 1.7041 0.86203 1.547 0.16001 0.18801-0.65102-1.8351-1.097-1.8501-1.042-1.324-2.8631 0.61502-2.1371 0.91803-3.9861 1.25-6.1002 0.82502-5.2282-2.9041-8.1032-7.8572-6.2772-0.28301 0.15-0.61102-2.7481-0.56402-3.5151 0.043-0.27701-0.74902-0.216-1.398-1.06 0.19801-0.18601-7.3042-10.126-10.797-16.154 19.588-0.026 39.263-0.37501 58.909-0.37001zm-12.18 18.678 0.077 0.059zm16.978-18.204h21.008l0.30301 48.072-1.8621 0.049s-3.5061-6.3812-4.4301-9.3963c-0.23001-0.75302-0.63402-1.7901-0.79102-2.1971-0.35702-0.92203-0.60602-1.036-0.13201-1.6 0.94903-1.128 0.76102-3.4101-0.16-4.5101-0.28601-0.35701-0.43302-0.23601-0.41902-1.103 0.013-0.74603 0.079-1.223-0.108-1.608-0.31101-0.64202-0.52201-0.68802-0.076-1.396 0.46701-0.74203 1.088-1.9441 1.35-2.8891 0.42201-1.525 0.124-1.81 1.066-1.452 2.3641 0.79602 4.3431-0.98803 4.2821-3.5101-0.052-2.1221-1.9291-4.0141-4.1101-3.4341-0.50402 0.133-0.60302 0.088-1.378-0.42601-0.221-0.14701-0.56001-0.45902-0.84702-0.57402-0.36001-0.145-0.65602-0.133-0.80502-0.40401-0.29201-0.53302-1.205-1.38-2.3181-1.325-0.67902 0.033-1.562-0.22601-1.7951-0.35601-0.38801-0.21401-1.476-0.04-2.8591-0.26001-0.61502-0.097-1.11 0.156-1.408 0.16-0.85102 0.01-0.50401-0.101-0.66602-0.78602-1.067-3.5691-4.1841-3.1431-5.6122-0.45901-0.52402 1.054-0.90403 2.6161-1.101 4.2301l-8.3952-0.133zm-64.967 0.104c3.1361 4.2201 6.1362 8.9503 9.2973 13.258 3.8901 5.2192 4.0181 5.8182 2.9731 11.07-0.58402 2.9681-0.83402 3.6541-2.0181 3.4301-1.111-0.21-2.0521 0.71402-2.2031 1.8851-0.28501 2.1981 1.7181 3.5521 3.7301 2.4521 1.06-0.58001 1.095-0.64302 0.74202 1.274-0.50602 2.7461-1.522 5.1102-2.1751 5.0322-1.6861-3.7871-5.7902-1.093-4.4281 2.8451-0.42601 0.68802 0.135 1.56 0.35001 2.2801 0 0 8e-3 0.084-2.3361 0.90503-11.508 3.6051-25.764 13.014-33.547 21.848l-0.53002-66.098zm66.041 9.0183a1.8841 2.0011 0 0 1 1.331 0.51402c1.003 0.95403 0.76802 2.2871-0.62002 4.7961-1.456 3.4961-1.06 6.2502-0.72502 9.9213-0.01 2.1321-0.69002 4.1581-1.775 5.0332-1.757 1.42-3.9231-0.48002-3.0121-2.4071 0.46702-0.95603 1.458-0.39902 1.6911-1.303 0.084-0.54102 0.074-1.393 0.13-1.7971-0.21-1.609-0.64302-6.5182-0.64602-8.2212 0.019-1.468 0.47302-3.3121 1.102-4.6921 0.61401-1.152 1.602-1.8201 2.5241-1.8441zm2.7671 5.7042c-0.39801 0.35001-1.062 0.35801-1.14-0.08 2e-3 -0.46001 0.34101-1.9261 0.57602-2.0881 1.44-0.35601 0.98003 1.789 0.56401 2.1681zm2.1521-2.2861c1.19-0.05 1.9731 3.1701 0.94103 5.0552-0.19601 0.04-1.638 0.029-1.645 0.06-0.025-0.33701 0.07-1.01 0.177-1.653 0.092-0.55002 0.14601-0.96803-0.01-1.559-0.39001-1.475-0.64402-1.753 0.53602-1.9041zm2.2661 0.044h0.14c1.206 6e-3 1.8941 2.4761 1.515 5.1742-0.054 0.38801-0.086 0.79402-0.22001 0.88503-0.50402-0.14501-1.9051 0.38401-1.9301 0.38001-0.132-0.14201-0.078-0.91003 0.1-1.602 0.33201-1.28 0.42402-2.1311 0.035-3.4551-0.27901-1.145-0.29001-1.362 0.35901-1.382zm3.0081 0.71102c1.327 0.236 1.413 4.1291 0.86802 5.3932-0.13 0.186-0.63002 0.14-0.80902 0.21001-1.128 0.34301-0.87703 0.52201-0.74502-1.38 0.09-1.306 0.111-2.3201-0.074-3.3971-0.09-0.47301-0.125-0.80202 0.20001-0.83402a1.32 1.32 0 0 1 0.56002 7e-3zm-6.6202 1.522c0.52901 0.76703 0.104 2.5421-0.30001 3.2001-0.46001 0.72802-0.64502 0.78802-0.39401 1.107 0.106 0.13501 0.32801 0.82303 0.191 1.111-0.253 0.53401 0.39702 0.63001 0.98703 0.95602 0.95703 0.53002 1.421 1.509 2.1351 3.2891 0.25 0.62002 0.76002 0.42501 0.51301-0.24301-0.212-0.57201-0.29501-1.414-0.44101-1.976-0.15301-0.57702 0.014-0.86603 0.64302-0.69603 0.94403 0.25401 0.81302 0.016 1.16-0.119 0.75703-0.44401 1.266 0.18501 0.80803 0.53302-0.26301 0.2-0.82403 0.32201-1.444 0.50201-0.52701 0.15401-0.40401 0.69202 0.12601 0.68902 0.48901-2e-3 1.892-0.42001 2.8071-0.71402 2.6221-0.84002 2.7101-1.288 2.4641 0.29301-0.32301 2.0921-1.4 3.6611-3.1791 4.1921-1.548 0.46301-5.1252 0.37401-6.7172-0.16701-1.513-0.72602-1.613-1.235-2.0701-2.6471-0.62702-1.9341-0.99603-5.2082-0.27601-7.1112 0.63402-1.607 0.57002-1.438 1.178-1.357 0.54102 0.2 1.268-0.022 1.43-0.37401 0.081-0.16801 0.28701-0.47402 0.38001-0.46902zm10.044 1.16c0.15 0.86002 0.163 1.745-0.119 2.4101-0.16201 0.31301-1.081 0.29601-1.436 0.30001-0.21 0.053-0.194-2.9071 0.032-3.2291 0.53402-0.85002 1.224-0.167 1.523 0.51902zm-26.611-0.51102 2.5981 0.033v0.67002l-3.0641-0.02zm9.0883 0.11401 4e-3 0.87002-3.9101 8e-3v5.4512l4.3741 0.015 0.024 1.134-5.8562-0.022 0.018-7.4522 5.3472-4e-3zm19.882-0.17301c4.0101 0.93403 2.2201 5.6402 0.71802 5.9252-1.874 0.35601-3.4621 0.131-2.9421-1.618 0.52002-1.186 0.15901-2.6631 0.30601-3.7411 0.36201-0.35601 1.305-0.71002 1.9171-0.56702zm-30.231 1.652 3.8581 0.04v0.90003l-4.4101-0.01zm8.5713 0.83002a1.116 1.186 0 1 1 0 2.3701 1.116 1.186 0 0 1 0-2.3701zm10.887 0.47002c0.71802 0.083 0.78002 1.25 0.48701 1.59-0.37601 0.39601-1.079 0.227-1.292-0.38001-0.193-0.54702 0.24001-1.235 0.80503-1.21zm-20.537 0.50701 4.9362 0.015v0.73003l-4.9852 0.044-0.13201-0.47002zm27.788 0.31501c0.68502-0.017 1.104 0.59402 0.67602 1.115-0.64501 0.76002-1.959-0.40302-0.67602-1.115zm-52.602 1.594c-1.105 0.99003-0.22001 1.9641 1.247 1.026 3.1571-2.0171 7.8132-0.41901 10.848 1.261 0.59502 0.32401 0.67602-0.43001 0.091-0.95203-2.8031-2.6211-8.7803-4.1251-12.186-1.335zm47.833-1.379c0.77002 4e-3 0.76002 1.025 0.26501 1.389-0.49502 0.22801-0.58202 0.16401-0.91003 0.028-0.45101-0.186-0.115-1.413 0.64502-1.418zm2.7301 0.016c0.91403 0.047 0.81303 2.0001-0.56801 1.296-0.50002-0.57102-0.17501-1.3 0.56901-1.296zm-25.514 1.006 4.7971 0.045v0.83003l-4.4861-0.049zm-31.002 1.9521c1.31 1.105 0.90403 1.172-1.27 0.36001-1.42-0.33701-2.8331-0.122-3.7221 0.25101-1.052 0.44201-1.295 0.31401-0.84002-0.43302 1.223-1.458 4.5941-1.164 5.8322-0.178zm6.3032 1.83-1.19-0.156c-0.86703 0.171-0.61602 0.21501 0.30001 1.322 0.91703 1.108 1.217 1.37 1.161 1.797-0.082 0.62702 0.084 0.97303 0.67302 0.90303 0.28301-0.033 0.62002 0.31501 1.053 0.73402 1.5 1.449 2.2581 2.1691 2.7461 2.3921 1.9881 0.91103 1.093-0.117-0.177-1.048-2.1171-1.552-2.8541-2.5871-1.349-2.0331 1.598 0.58802 4.1411 0.25501 5.3932-0.54802 0.61602-0.39401 1.006-1 1.8751-0.70402 1.22 0.41402 1.688-0.35001 1.349-0.77802-0.55402-0.37701-1.8191-0.82702-3.0201-1.685-2.5691-1.384-5.2702-1.343-7.0702-0.22901-1.06 0.65702-1.429 0.19501-0.39001-0.45501 4.1711-2.3881 7.4702-0.1 10.141 1.614 0.46301 0.30001 0.78702 0.27501 0.78802 0.064-0.07-0.69302-1.259-1.12-1.7401-1.43-3.7201-2.4051-7.6302-3.1711-10.545 0.241zm25.327-2.1151 4.1691 3e-3v0.87503l-3.8631-0.02zm-33.924 1.115c1.155-6e-3 3.6681 1.095 3.6261 2.0071-0.049 0.34601-0.67802 0.036-1.224-0.31801-1.056-0.68502-2.6781-0.86802-4.2041-0.56701-1.172 0.233-1.545 0.43801-1.7121 0.28901-0.40501-0.96703 2.4421-1.406 3.5141-1.411zm45.083 0.65102 7e-3 1.567c-2.2641 0.17501-2.7291 2.8461-1.277 4.3341 1.19 1.22 3.1571 0.74002 4.1461-0.99003 0.173-0.30701 0.194-0.49401 0.30001-0.34001 0.066 0.094 0.123 0.38601 0.177 0.67002 0.15701 0.82102-0.066 1.033-0.57801 1.737-0.82903 1.138-0.94203 2.5731-0.42202 3.6401 0.14301 0.29401 0.44202 0.71302 0.39002 0.90803 0.29-0.01-2.5701 8.4912-6.7462 12.775-0.70002 0.49401-1.206-0.086-0.84603-0.88303 3.4031-8.2602-3.1071-15.934-5.6332-23.318l10.482-0.10001zm-30.25 1.426 0.59602 0.056c-0.48001 3.8051-3.9561 3.1931-4.0931 0.093l0.50202-0.02c0.67802 2.8851 3.0031 1.704 2.9951-0.129zm-19.637 0.079s0.25101 0.42501 0.25101 0.66302c0 0.88602-0.013 2.1671-0.035 2.5551-0.20101 3.6621-4.5751 4.3401-4.2431 1.207 0.26001-1.33 1.8421-1.477 2.2311-0.27401 0.56802 1.515 0.67002-0.36501 0.67702-0.95203 0.46301-0.92202 0.80302-2.0421 1.12-3.2001zm21.077 0.26001c0.18 5e-3 0.50002 0.172 0.75302 0.46001 0.28801 0.32701 0.18001 0.49101-0.49102 0.85803-0.72802 0.39801-1.057 0.36401-0.79502-0.44002 0.163-0.50001 0.30301-0.88402 0.53302-0.87802zm32.721 0.193c0.1 4e-3 0.35301 0.14301 0.29301 0.54002-0.099 0.66502-0.63902 1.042-0.78002 0.88602 0.09-0.35001 0.198-1.288 0.48801-1.426zm-37.942 1.284c-0.086 0.27001-0.23601 0.153-0.61702-0.19201-0.42201-0.38001-0.40001-0.62301 0.034-0.89602 0.62302-0.40001 0.66102 0.84102 0.58202 1.09zm-13.244-0.99203c0.73002 2.4501 2.2181 2.1391 2.8831 0.118l0.63802-0.01c-0.14 3.1541-3.9001 3.0981-3.9321 0.048zm-1.317 0.30401c0.22301-0.037 0.063 0.78102 0.063 0.78102s-0.61802-0.33801-0.25501-0.69602a0.50502 0.53602 0 0 1 0.19101-0.085zm5.5222 0.20701c0.076-4e-3 0.22001 0.057 0.37701 0.167 0.36501 0.25801 0.30201 0.40801-0.116 0.77802-0.64302 0.56902-0.93303 0.25201-0.58502-0.51101 0.129-0.28501 0.22601-0.42701 0.32401-0.43401zm48.014 0.53401c0.27201-0.018 0.65302 0.11301 1.46 0.34001 2.2251 0.62802 5.2032 0.60502 7.7362-0.137 0.80002-0.23401 1.394 1.257 0.96202 2.3401-0.19 0.48001-0.157 0.53901 0.42602 1.182 0.82602 0.91203 0.95803 2.3831 0.33001 3.7221-0.45602 0.97503-0.42602 0.88703 0.116 2.5521 0.24701 0.76202 0.56702 1.538 0.62402 1.748 0.68402 2.4531 2.3721 5.3502 3.4021 7.7742 1.028 1.704-1.844 0.018-1.844 0.018s0.77202 1.1 1.799 1.922c0.99603 0.80303 2.9521 0.26001 3.8481 1.238 0.21001 0.30701-0.204 6.8122-0.41401 6.9922-8.8453-0.43701-23.599-0.093-23.599-0.093l2.7651 4.5771c4.3481 1.8461 8.5072 1.384 12.484-1.274-0.099 0.38201 4.8382 2.9471 8.8923 3.2261l0.025 3.0811c-3.0091-0.35801-6.0572-0.43201-8.8513-2.3001 0 0-2.5691 1.142-5.1422 1.996l14.411 15.836 7e-3 2.6471s-6.1532-6.1002-12.484-12.977l0.136 33.817 12.47 0.26001c-0.39202 8.8013-0.23501 14.396-0.15001 24.477-5.8932 6.4232-14 12.848-21.493 16.708-3.5351-3.6221-6.4562-7.5452-9.0113-11.74l0.20401-0.34701-0.60202-0.30501c-1.558-2.4641-5.1782-9.2983-4.6051-9.4583 1.107 0.081 6.2422-0.59302 7.2652-3.8631 8e-3 -0.20701-0.112-0.79002 0.027-1.473 0.36201-1.7721 0.54602-4.4631-0.066-6.1742-1.103-3.0831 2.2171-2.0951 2.3291-1.888l-4e-3 -11.648c-4.3201 3.6801-8.6783 7.3002-14.453 8.8153-3.5921-19.235 2.1041-43.157 18.344-59.381l-0.89003-0.08c-16.684 18.34-21.061 38.508-18.214 59.749 0 0 0.106 0.66402 0.122 0.88803 0.039 0.52901-0.08 0.73002-0.52302 1.112-0.42201 0.29501-0.80502 0.61102-0.76702 0.97403 0.072 0.68202-0.54602 0.70402-1.353 0.70002-0.37201-0.34601-0.87203 0.09-1.171 0.24801-0.41901 0.065-0.62702-1.7501-1.161-0.41902-0.20401 0.84003-0.59002 0.90303-1.482 0.48502-0.56002-0.17401-0.57302 0.122-0.035 0.81102 0.74402 0.85003 1.373 2.1221 1.251 2.5041-0.27301 0.85502-0.155 1.716 0.98303 2.2071-0.065 5e-3 -0.68702 2.6081 1.077 2.5331 0.56202 6e-3 1.9841 0.31101 1.9841 0.31101 0.092 0.49701-0.058 0.78002-0.27901 1l-1.227-0.65202-0.32001 1.551-1.636-0.12201 3.9781 5.2182 0.46401-4.0701 4.6501 0.62702c0.74703 2.0571 5.4452 13.504 14.425 22.021 0 0-4.9092 2.2701-6.2852 2.9821l-0.85403-3.2451-0.77002 1.178-1.375-0.37501-0.16001 1.334-1.223 0.41801 2.1331 1.712-5.4832 1.7711c-15.665-26.844-22.756-64.13-3.2461-103.56l4.9301 0.066-0.96302 1.749 1.401-0.237 0.39601 1.274 1.03-0.51702 1.034 1.378 1.177-3.6801s3.4931 0.084 3.9281 0.037c0.34201-0.04 7.3822-6.3152 7.2302-6.5552-0.11-0.17301-7.6672 5.6952-7.9202 5.4702 0 0-0.76002 0.19201-0.168-0.55902 1.061-1.348 1.81-2.3731 2.8871-4.3101 1.779-2.5731 2.5791-5.7122 2.9981-7.8372 7e-3 -0.15 0.045-0.49001-0.074-0.74102-0.67902-1.43-0.52802-2.3641 0.69002-4.0511 0.42601-0.59102 0.45301-0.73703 0.33101-1.1-0.27401-0.82002-0.01-1.52 0.55001-2.0701 0.22401-0.219 0.36801-0.32301 0.57902-0.33701zm-41.536 5.7102c3.0941 1.35 0.61002 4.3401-1.6891 1.734-1.203-1.365-2.1541-1.279-2.8091-0.281-0.29501 0.45001 0.134 1.24 0.51602 0.98803 0.35401-0.23201 0.71802-0.50802 1.234-4e-3 3.9121 3.8271 6.7212-1.53 3.3501-2.8631-0.41701-0.20401-1.01 0.24801-0.60202 0.42601zm-12.744-0.13 0.108 0.045c0.147 0.097 0.157 1.45 0.01 2.0181-0.48801 2.8821-2.4221 9.5773-6.3902 6.3002-1.575-1.301-0.142-4.5691 1.7441-3.4581 1.472 0.86702 0.47801 2.9351-1.116 1.748-0.77402-0.57702-0.52802 0.61202 0.126 0.95203 1.108 0.61601 3.1131-0.44002 4.0541-2.3201 0.37501-0.74803 0.72602-2.0731 1.122-3.9801 0.19901-0.96003 0.21501-1.297 0.34101-1.304zm0.33501 4.9892c0.32701 2.0831-1.166 5.7312-3.2901 6.2702-1.627 0.41201-3.6381-0.71303-3.4941-1.7561 0.042-0.30201 0.158 0.097 1.631 0.35601 2.0581 0.36001 3.3681-0.81902 4.5541-3.5371 0.37401-0.85803 0.53402-1.314 0.60002-1.333zm5.1212 0.99603c-1e-3 0.236-0.106 0.85602-0.19901 1.267-0.22001 0.97602-0.35601 1.347 0.64802 0.86302 0.66502-0.32501 1.637-0.64802 2.6421-0.055 1.11 0.65302 2.1701 0.53302 3.4761-0.055 1.135-0.40201 1.6881-0.40601 2.3221-0.02 1.156 0.70702 0.76002 0.25701 0.61002-1.525-0.104-1.254-0.42601-1.09-0.84002-0.61402-0.27301 0.31001-0.82402 0.38001-1.437 0.03-0.73102-0.41801-1.7481-0.22-2.0921 0.077-0.34301 0.29701-0.83802 0.33701-1.51-0.14401-0.44401-0.31901-0.69202-0.152-1.237 0.10801-0.89703 0.42701-1.242 0.196-1.7291-0.20401-0.44201-0.34301-0.65002-0.23501-0.65502 0.27401zm-4.4551 1.496c0.117-1e-3 0.13 0.48002 0.049 1.448-0.37401 3.5731-3.0081 5.5632-6.1082 3.8331-1.357-0.82302-1.173-1.404 0.164-0.88903 2.1321 0.82103 4.2851-0.32601 5.3372-3.2631 0.27001-0.75203 0.45401-1.128 0.55802-1.13zm7.5652 2.5481c1.532 0.67402 3.2321 0.46001 3.6641-0.13701 0.48501-0.67002-0.26001-0.56001-0.65002-0.45901-1.34 0.34001-2.2621 0.21701-2.8061-0.04-1.589-0.65202-1.488 0.054-0.20901 0.63602zm-15.99 2.0041c1.9861 2.5841 2.2481 3.0891 3.9601 6.0262 12.513 22.564 16.52 51.082 8.2932 76.971-2.2581 7.1432-5.4412 14.424-9.0123 20.274l-4.2841 0.048 1.471-1.7811-1.9941 0.15501-0.122-1.177-1.513 0.51802-0.72902-1.778-1.37 4.0701-7.9402 0.022c18.6-19.202 22.262-42.471 18.793-61.154 0 0 1.555-1.033 1.7711-1.636 0.053-0.147 0.168-0.77002 0.27501-0.86302 0.69202-0.48002 1.151-0.94803 1.492-0.85603 0.19601 0.053 0.29801 0.15 0.44001 0.37001 0.65502 1.02 0.79602 1.18 1.154 0.15301 0.25701-0.73803 0.146-1.004 0.99003-0.86303 0.49402 0.27801 1.15 0.27001 1.091 0.167-0.045-0.078-0.74502-0.95202-1.077-1.448-0.78602-1.174-1.01-1.386-0.93803-1.9001 0.11-0.78402-0.47701-1.628-0.84402-1.841 0.106-2.1101-0.65602-2.3201-2.8161-2.7931a1.8301 1.9441 0 0 1 0.19901-0.98603l1.269 1.074 0.46001-1.9921 1.7211 0.1-4.9921-5.1332c0.025 1.448 0.09 2.9121-0.034 4.3071-2.3401-0.13601-4.6501-0.93703-4.6841-0.78503-3.4371-8.5952-8.6723-15.864-14.2-21.537l5.5222-2.8181 1.565 3.1701 0.38301-1.796 1.37 0.255 0.23101-1.151 1.513-0.22601-1.67-1.685zm32.884 3.7081c0.21201 0.28201 0.38001 0.30101 0.66302 0.55902l-0.56502 0.42501c0.026-0.40301-7e-3 -0.61002-0.098-0.98503zm-36.74 1.059c-0.46801 0-0.85003 0.40501-0.85003 0.90303a0.85003 0.90203 0 0 0 1.6971 0c0-0.49802-0.37801-0.90403-0.84702-0.90403zm4.6081 0.14301a0.85103 0.90403 0 1 0 0 1.807 0.85103 0.90403 0 0 0 0-1.807zm-14.843 0.66001c2.7351 2.4141 5.2492 5.5602 8.2972 10.48l-0.062 0.66302 0.93003 0.36701s5.0722 7.0922 4.8041 10.244c-1.7421 0.38601-3.0891-0.29701-6.2022 2.7961l-2.0011-0.46301-2.1061 0.54401s0.028 0.70002 0.55002 0.93703c0.22801 0.102 0.60602-0.87803 0.85103-0.84803 1.023 0.12501 2.0551 0.14201 1.8651 0.48502-0.21501 0.097-0.76402 7.1432 0.30301 8.6433 0.59602 1.528 0.17 1.515-0.36601 1.797-0.58002 0.40401-2.4091-0.44901-2.4091-0.44901l0.42201 11.189c4.8241-5.8462 15.012-9.7453 14.29-9.3223 5.1132 28.696-7.0442 47.84-19.771 61.872l6.6702 0.04s-5.7502 9.7983-6.1782 12.507c0.32701 0.90003 1.23 2.7651-0.29601 4.0741-0.51702 0.60202-0.57202 3.3331-0.57202 3.3331-3.5071 0.129-6.5472-1.165-10.59 0.34001-0.41901 0.15-0.51002-2.3381-0.53002-2.7881-1.243-1.235-1.44-3.7471-0.36601-5.0522 0.39701-0.48002 0.22901-0.22501-0.105-1.8511-0.53202-2.5951-2.3061-6.1532-3.6571-8.4362-0.44201-0.74902-0.88503-1.623-0.99303-1.8931-0.96503-1.215-3.5021-0.65402-3.8101-0.97403-0.28101-0.24901-0.46301-6.8832-0.178-7.0432 9.9953 0.84203 25.637-0.123 25.637-0.123l-4.1981-6.2282c-5.1702-2.1411-12.273 1.514-11.931 1.707 0.017 0.022-5.6792-3.3001-9.6283-2.8271l0.13-3.2541c3.5081-0.014 6.7462 0.68002 9.5733 2.4501l4.8011-1.898-14.718-16.403 0.171-2.7031s3.7601 4.2751 7.8472 8.8433c3.5061 3.9201 4.8171 4.5781 4.8171 4.5781l0.01-34.021-12.654-0.033-0.33801-6.9522-0.32901-0.60702-0.15-4.9892 0.35301-0.50701-0.122-2.1341-0.118-0.30401-0.16-5.0962 0.27201-0.43001 0.041-3.2071c6.1152-6.3592 21.904-17.056 21.904-17.056zm10.81 0.96703 1.475 6.8662 0.99003-1.304 1.52 0.50802 0.104-1.582 1.384-0.51002zm50.29 1.141a0.85103 0.90403 0 1 0 0 1.808 0.85103 0.90403 0 0 0 0-1.808zm-3.9821 0.56601a0.85103 0.90403 0 1 0 0 1.8071 0.85103 0.90403 0 0 0 0-1.8071zm-48.761 0.80003a0.85103 0.90403 0 1 0 0 1.807 0.85103 0.90403 0 0 0 0-1.807zm51.814 0.54402-5.9202 5.9142 1.66-0.074 0.29701 1.726 1.486-0.72202 1.202 1.178zm2.5201 1.987a0.85103 0.90403 0 1 0 0 1.8071 0.85103 0.90403 0 0 0 0-1.8071zm-47.076 1.164a0.85103 0.90403 0 1 0 0 1.808 0.85103 0.90403 0 0 0 0-1.808zm3.6821 0.75602a0.85103 0.90403 0 1 0 0 1.8071 0.85103 0.90403 0 0 0 0-1.8071zm-3.3401 1.344c0.163 2.4161 0.42901 5.2822 0.48801 7.7032l1.123-1.174 1.296 0.55901 0.46001-1.485 1.413-0.074zm36.448 2.0151a0.85103 0.90403 0 1 0 0 1.8081 0.85103 0.90403 0 0 0 0-1.8081zm-38.888 0.15901a0.85103 0.90403 0 1 0 0 1.807 0.85103 0.90403 0 0 0 0-1.807zm42.26 0.22a0.85103 0.90403 0 0 0-0.85003 0.90303c0 0.50002 0.45002 0.90403 0.85003 0.90403s0.85002-0.40501 0.85002-0.90403a0.85103 0.90403 0 0 0-0.85002-0.90303zm-0.50402 1.9511-4.9071 5.3632 1.607 0.15901 0.50502 1.522 1.029-0.92603 1.248 0.97003zm2.6951 1.15a0.85103 0.90403 0 1 0 0 1.807 0.85103 0.90403 0 0 0 0-1.808zm-38.691 1.67a0.85103 0.90403 0 0 0 0 1.808c0.47001 0 0.85002-0.47801 0.85002-0.90303 0-0.42601-0.38001-0.90402-0.85002-0.90402zm-20.844 0.55301-1.596 1.3 0.39401-0.063s0.96603 1.193 0.96603 1.277 0.59202-0.021 0.59202-0.021zm24.867 0.78903a0.85103 0.90403 0 1 0 0 1.807 0.85103 0.90403 0 0 0 0-1.807zm-6.0932 1.289a0.85103 0.90403 0 1 0 0 1.8071 0.85103 0.90403 0 0 0 0-1.8071zm35.14 1.8201a0.85103 0.90403 0 1 0 0 1.808 0.85103 0.90403 0 0 0 0-1.808zm-3.3571 1.327a0.85103 0.90403 0 1 0 0 1.807 0.85103 0.90403 0 0 0 0-1.807zm34.269 0.22301 1.7671 2.0401v29.859l-1.725 0.037zm-68.806 0.212c1.44 1e-3 3.0451 0.22201 3.5561 1.151 0.79402 1.043-0.89603 0.64002-2.3191 0.86602-1.314 0.17101-0.55202 0.45602 1.304 0.57002 2.5571 0.161 3.5621 0.23201 3.9431 0.85803 0.21601 0.58301 0.058 0.97702 0.103 1.605l-2.9041-0.144c-1.506 2e-3 -2.3901-0.028-2.8371 0.093-0.35601 0.097-0.25401 0.40001-0.132 0.53002 0.063 0.067 1.219 0.084 2.5701 0.122 3.6341 0.101 4.4371 0.23101 4.6951 1.473 0.19401 1.14-0.68002 0.96602-4.4131 0.53401-1.662-0.145-2.5561 0.27101-2.7951 0.39601-0.41001 0.21301 1.186 0.42302 1.7081 0.33301 0.32601-0.055 2.7231 0.22001 3.6051 0.39601 0.74202 0.12001 0.089 0.097-0.28601 0.57802-0.24801 0.39701-0.17 0.85303-0.55802 1.077-0.47601 0.26701-1.42 0.26301-3.1131 0.26301-1.9361 0-2.8391 0.50002-0.182 0.62202 1.7171 0.08 1.8141 0.048 1.9601 0.57402 0.38701 1.298-0.43901 1.526-2.1901 1.822-0.83602 0.15301-2.0771 0.067-3.0151-4e-3 -3.7031-0.28001-4.9861-1.218-5.4862-2.9521-1.8681-6.4692 0.43701-10.418 5.8322-10.736a17.071 18.136 0 0 1 0.95503-0.03zm37.431 0.28801-4.1811 6.4632 1.611-0.66702 0.76702 1.7521 1.29-0.97803 1.288 0.84502zm-31.289 0.78502c0.21601 0.28201 0.122 0.49202-0.23701 0.70003-0.30201 0.176-0.82002 0.046-1.161-0.11001-0.45001-0.207-0.49602-1.06-0.126-1.152 0.53202-0.11301 1.19 0.15 1.524 0.56301zm-30.291-0.33001-2.2881 2.3271 0.07 0.09 3.0111-1.26zm64.187 0.99303a0.85103 0.90403 0 1 0 0 1.8071 0.85103 0.90403 0 0 0 0-1.8071zm31.138 0.78103s2.1301 2.2361 3.0051 3.1741l-0.79102-4e-3 0.02 1.763 2.5201 0.03 1.385 1.44-3.8491-0.018v1.8l4.7652 3e-3 -0.024-0.77002 1.882 1.811 0.22401 20.021-9.0823-0.029c-0.034-9.8583-8e-3 -19.363-0.056-29.221zm-62.301 2.1701c-0.13 0.43402-0.42301 0.43402-0.92003 0.22001-0.73702-0.32001-0.63202-1.184-0.074-1.275 1.054-0.128 1.25 0.38801 0.99403 1.056zm2.8591 0.37801a0.85103 0.90403 0 1 0 0 1.8081 0.85103 0.90403 0 0 0 0-1.8081zm-2.9951 0.69302c0.33301 0.021 0.66202 0.20301 0.85002 0.40002 0.46601 0.49901 0.30201 0.96403-0.21901 1.25-0.58302 0.32401-0.99403-0.116-1.164-0.85102-0.115-0.49602 0.157-0.78403 0.53302-0.80003zm26.703 2.3701a0.85403 0.90803 0 1 0 0 1.815 0.85403 0.90803 0 0 0 0-1.815zm-28.111 1.1a0.75302 0.75302 0 0 1 0.57202 1.248c-0.55002 0.57801-1.403 0.33001-1.524-0.22201a0.94303 0.94303 0 0 1 0.95203-1.026zm25.063 0.36601a0.85103 0.90403 0 1 0 0 1.808 0.85103 0.90403 0 0 0 0-1.808zm3.0211 0.60002-3.8061 6.7852 1.54-0.64802 0.93403 1.307 0.96203-0.89203 1.454 0.75503zm-29.873 1.134c0.68102 3e-3 0.87203 0.57102 0.37701 1.092-0.33601 0.35401-0.71702 0.36501-1.105 0.037-0.58902-0.49601-0.138-1.133 0.72802-1.13zm32.54 0.083a0.85103 0.90403 0 1 0 0 1.8071 0.85103 0.90403 0 0 0 0-1.8071zm-27.715 0.71302c-0.47001 0-0.81502 0.40402-0.81502 0.90303a0.85103 0.90403 0 0 0 1.7001 0 0.90703 0.90703 0 0 0-0.88503-0.90303zm63.067 0.20001v1.9191l4.7972 4e-3v-1.9191zm-63.005 1.704-1.8371 7.1292 1.538-0.93002 0.95803 1.041 0.89303-1.166 1.603 0.44502zm3.2671 0.77402a0.85103 0.90403 0 1 0 0 1.8071 0.85103 0.90403 0 0 0 0-1.8071zm-5.9892 0.36202a0.85103 0.90403 0 1 0 0 1.808 0.85103 0.90403 0 0 0 0-1.808zm65.725 0.56301 4e-3 1.723h4.7962l-4e-3 -1.712zm-39.475 2.2521a0.85103 0.90403 0 1 0 0 1.807 0.85103 0.90403 0 0 0 0-1.807zm39.478 0.96303v1.856h4.7972v-1.856zm-98.908 0.22601 1.6871 0.034 0.028 32.343-1.646-1.848zm-0.70502 0.063-0.083 29.562-3.1971-3.5701 0.85002-0.011v-2.0151l-2.7671-0.022-1.182-1.221 3.9461 4e-3v-1.9781l-4.6811-0.018v1.196l-2.3011-2.6071 0.038-19.304zm60.261 0.90302-2.5611 7.0342 1.61-0.97402 0.83402 0.87002 0.86003-0.82602 1.465 0.76002zm-67.365 0.33801-0.024 1.8921h4.7271v-1.8921zm70.265 0.38102a0.85103 0.90403 0 1 0 0 1.807 0.85103 0.90403 0 0 0 0-1.807zm-5.7902 0.101a0.85103 0.90403 0 1 0 0 1.808 0.85103 0.90403 0 0 0 0-1.808zm-20.017 0.33601a0.85103 0.90403 0 1 0 0 1.808 0.85103 0.90403 0 0 0 0-1.808zm62.259 0.73002v1.9901h4.7972v-1.9901zm-62.363 1.122-0.71202 1.167-1.627-0.59002 2.2201 7.1372 2.7861-7.4432-1.6 0.97003zm-44.354 0.51902v1.8881h4.7031v-1.8881zm106.72 1.692v1.9701h4.7932l4e-3 -1.9701zm-106.72 1.649v1.8921h4.7031v-1.8921zm67.302 0.35501a0.85403 0.90803 0 1 0 0 1.815 0.85403 0.90803 0 0 0 0-1.815zm-25.608 0.94403a0.85403 0.90803 0 1 0 0 1.815 0.85403 0.90803 0 0 0 0-1.815zm5.4592 0.17a0.85403 0.90803 0 1 0 0 1.8151 0.85403 0.90803 0 0 0 0-1.8151zm59.564 0.12701v1.777h4.7932l4e-3 -1.777zm-39.421 0.83002-1.018 1.136-1.46-0.44002 3.3121 6.5622 1.673-7.0592-1.46 0.99003zm-67.296 0.66602v2.1481h4.7031v-2.1481zm44.385 0.97403a0.85403 0.90803 0 1 0 0 1.8151 0.85403 0.90803 0 0 0 0-1.8151zm-0.056 1.8701c-0.36401 0.27401-0.52202 0.75602-0.90203 1.003l-1.555-0.70302 0.93403 8.9373 4.3161-8.4442-1.9731 0.35201zm-44.329 0.29201v2.2331h4.7031v-2.2331zm70.633 1.036a0.85403 0.90803 0 1 0 0 1.815 0.85403 0.90803 0 0 0 0-1.815zm-5.5222 0.103a0.85403 0.90803 0 1 0 0 1.816 0.85403 0.90803 0 0 0 0-1.816zm-65.111 2.1021v2.2371h4.7031v-2.2371zm68.192 0.49902a0.85403 0.90803 0 1 0 0 1.815 0.85403 0.90803 0 0 0 0-1.815zm12.057 0.071c4.5741 0.156 5.2432 1.719 5.2702 7.1142 0.021 4.3071-1.186 5.9902-4.1381 6.8202-1.075 0.30301-5.0962 0.023-6.2362-0.36501-0.019-0.37002-0.58702-1.225-0.71503-1.8831 0.29001-0.088 1.208 0.049 2.9481 0.22501 1.41 0.143 1.7741-0.098 1.328-0.39202-2.6541-0.66502-4.4601-0.48501-7.0102-1.004-0.036-0.81002-0.65202-1.753-0.65202-1.753 0.139-0.059 3.9301 0.37501 5.9302 0.30801 0.88203-0.04 0.35201-0.47801-4e-3 -0.56002-2.3331-0.35401-3.8491-0.297-6.3162-0.62801 0.067-0.67002-0.25401-1.28-0.65202-1.7921 0 0 1.249-0.012 3.8211 0.03 1.354 0.021 2.5331 0.081 3.1241 0.06 0.99503-3e-3 0.90403-0.49501 0.042-0.56201-1.051-0.12501-5.1882-0.15001-5.1882-0.15001 0.30801-0.152 0.71003-2.1201 0.55002-2.1401 0 0 1.073 0.023 1.754-5e-3 3.3151-0.131 3.8871-0.076 3.9501-0.20701 0.43601-0.42301-0.74002-0.58901-1.9671-0.58501-0.52801 2e-3 -1.299 0.124-1.293-0.18201 5e-3 -0.28001-7e-3 -0.85603-0.276-1.45 2.0331-0.83003 3.9041-0.96003 5.7302-0.89803zm-39.434 1.108a0.85403 0.90803 0 1 0 0 1.8151 0.85403 0.90803 0 0 0 0-1.8151zm32.627 0.18801c0.56402 3e-3 0.74103 1.08 0.21301 1.249-0.81202 0.257-1.256 0.054-1.227-0.45602 0.016-0.29001 0.65002-0.79402 1.014-0.79202zm-27.049 0.93703a0.85403 0.90803 0 1 0 0 1.816 0.85403 0.90803 0 0 0 0-1.816zm24.323 1.019c1.9331-0.019 0.93203 2.7741-0.55402 1.766-0.73702-0.50002-0.21901-1.76 0.55402-1.766zm-30.566 2.2331c-0.04-4e-3 -0.061 0.038-0.056 0.14001l0.44601 8.4882 4.6501-7.9292-1.8471 0.73003-0.79502-1.281-0.99703 0.83302c-0.41001 0.34301-1.187-0.96003-1.401-0.98103zm28.775 0.86803c0.86703 0.128 1.446 1.05 0.84303 1.494-1.355 0.63002-2.0801-1.432-0.84303-1.494zm-2.0831 1.8631a0.85403 0.90803 0 1 0 0 1.815 0.85403 0.90803 0 0 0 0-1.815zm3.2851 0.76802c0.73802-0.012 1.086 1.127 0.35501 1.485-0.155 0.077-0.61802 0.13101-0.82302-0.03-0.86202-0.67502-0.41501-1.383 0.46701-1.455zm-31.981 1.4a0.85403 0.90803 0 1 0 0 1.815 0.85403 0.90803 0 0 0 0-1.816zm65.242 1.136-3.1661 1.13v1.59c1.382-0.46702 2.1721-1.66 3.1661-2.7191zm-29.664 0.76803c0.54902 0.245 0.69802 1.035 0.22601 1.3-0.37201 0.21-1.38 0.177-1.627-0.16801-0.63902-1.089 0.73602-1.398 1.4-1.131zm-29.841 0.31401a0.85403 0.90803 0 1 0 0 1.815 0.85403 0.90803 0 0 0 0-1.815zm-3.5001 1.568a0.75302 0.80002 0 1 0 0 1.599 0.75302 0.80002 0 0 0 0-1.6zm35.504 1.35a0.85403 0.90803 0 1 0 0 1.8141 0.85403 0.90803 0 0 0 0-1.8151zm-38.256 0.048-0.042 8.0212 5.0342-6.5632-1.7471 0.40401-0.74502-1.626-1.078 0.74502zm31.953 1.847a0.85403 0.90803 0 1 0 0 1.815 0.85403 0.90803 0 0 0 0-1.815zm25.191 0.032-0.82503 1.496 2.3421-1.382zm-21.782 1.065a0.85403 0.90803 0 1 0 0 1.8151 0.85403 0.90803 0 0 0 0-1.8151zm2.8771 0.97903-1.021 1.548-1.346-0.45902-0.39702 1.474-1.614-0.064 5.2472 4.8521zm-40.893 0.62002a0.85403 0.90803 0 1 0 0 1.8151 0.85403 0.90803 0 0 0 0-1.8151zm78.672 1.303 0.42601 66.486-29.831 0.067-12.28-17.818c-0.25401-2.9021-0.107-5.8822 1.043-9.7763 1.201 0.88303 3.8321 0.40102 3.7431-3.0251-0.06-2.2431-3.3141-3.3901-4.9351-1.703 0.084-2.1681 0.91202-5.4272 2.1051-6.3872 0.82002 0.79003 1.001 1.9611 2.8551 1.634 1.316-0.23201 2.3581-1.796 1.7881-3.6171a4.5191 4.8001 0 0 1-0.22301-1.4c1e-3 -0.37501 0.034-1.043-0.035-1.418a10.212 10.212 0 0 1-0.126-1.03c15.892-5.2982 27.257-13.776 35.471-22.014zm-72.692 1.141a0.85403 0.90803 0 1 0 0 1.8151 0.85403 0.90803 0 0 0 0-1.8151zm-4.0281 0.88703a0.85403 0.90803 0 1 0 0 1.815 0.85403 0.90803 0 0 0 0-1.815zm42.264 0.43601a0.85403 0.90803 0 1 0 0 1.8151 0.85403 0.90803 0 0 0 0-1.8151zm-45.326 0.96803-1.332 8.4483 5.8142-6.3142-1.579-0.038-0.31301-1.44-1.478 0.50702zm39.536 1.8021a0.85403 0.90803 0 1 0 0 1.815 0.85403 0.90803 0 0 0 0-1.815zm3.7691 0.98603a0.85403 0.90803 0 1 0 0 1.815 0.85403 0.90803 0 0 0 0-1.815zm-46.927 1.102a0.85403 0.90803 0 1 0 0 1.815 0.85403 0.90803 0 0 0 0-1.815zm50.326 0.68502-1.39 1.122-1.28-0.83102-0.30001 1.794-1.09 0.60702 4.5771 3.4071zm3.3831 2.4151a0.85403 0.90803 0 1 0 0 1.8151 0.85403 0.90803 0 0 0 0-1.8151zm-48.298 0.30701a0.85403 0.90803 0 1 0 0 1.815 0.85403 0.90803 0 0 0 0-1.815zm-3.7921 1.185a0.85403 0.90803 0 1 0 0 1.815 0.85403 0.90803 0 0 0 0-1.815zm49.901 2.3981a0.85403 0.90803 0 1 0 0 1.815 0.85403 0.90803 0 0 0 0-1.815zm-3.5801 0.81302a0.85403 0.90803 0 1 0 0 1.8151 0.85403 0.90803 0 0 0 0-1.8151zm-33.066 1.292 0.014 7e-3c0.096 0.11 0.39301 0.93403 0.13 1.355-0.136-0.069-0.75002-0.67602-0.59302-0.88202 0.073-0.095 0.37001-0.48202 0.45001-0.48102zm-19.381 1.422s0.82602 0.046 1.007 0.13001c0 0.224-0.19901 0.71402-0.42201 1.263-1.115 2.7421-1.286 5.8162-0.153 8.7783 1.7761 4.0201 6.7932 13.532 6.4202 14.403l-11.085 0.048 0.048-1.791c3.1141-0.13001 3.6051-2.1541 2.8271-3.8261-0.53802-1.159-2.0471-1.821-3.4271-1.213-1.9921 0.87802-2.1151 1.924-2.8261 3.5451l-0.31701-0.42801c0.59902-0.84503 0.79802-1.656 0.75002-2.5811-0.05-0.90903-0.074-0.65802 0.22401-1.156 1.7351-1.9801 0.60002-4.5581 0.60002-4.5581-0.20801-1.583 5.1902-11.685 6.3532-12.613zm-25.352 0.26001c3.1531 2.6651 5.8822 11.642 5.7172 11.781-0.147-0.126-2.5401 2.8841 0.038 5.6892 0 0-0.157 1.685 0.33901 2.5511-1.14 2.5111-1.34 2.7001-1.437 4.7641-0.02-8e-3 -0.19701-0.025-1.255-0.03-5.2232-0.027-5.4672 7.0302-0.24701 7.4182 0.71502 0.053 0.96003-0.12 1.39 0.33401 0.43801 0.57602 0.83002 1.154 1.577 0.85503 0.177 2e-3 0.46301 0.178 0.76302 0.47401 0.50202 0.72102 1.23 1.235 2.2691 1.037 0.36801 0.038 0.74602 0.15001 1.143 0.30401 0.45801 0.38301 1.252 0.67302 1.8731 0.38501 0.18501-0.086 0.54002-0.115 0.83002 0.026 0.75402 0.36501 1.522 0.136 1.8061-0.093 0.70002-0.38601 0.85502 0.23301 0.82202 0.80403-0.35701 1.306 0.42801 2.5301 1.618 3.0111 2.5081 0.82302 3.7731-0.81603 4.3121-4.0661 0.134-0.71302 0.25101-1.56 0.25101-1.56l8.3983 0.23401-12.058 14.848-20.526 0.26701-0.108-49.054c0.90203-0.056 1.583 0.023 2.4861 0.022zm75.513 2.6481c1.532 0.62702 1.654 1.777 0.13 1.278-2.4781-0.81003-5.1442 0.79702-5.7002 3.0961-0.103 0.42401-0.21201 0.74402-0.27501 0.82603-0.34701 0.44501-0.33001 0.039-0.22701-1.237 0.20001-2.4761 1.8481-4.2701 3.9981-4.3441a6.3272 6.3272 0 0 1 2.0741 0.38001zm-0.76003 1.752c0.64102 0 1.32 0.20001 1.8261 0.66702 0.57402 0.67002 0.40301 1.114-0.038 1.091-2.0751-0.92003-4.7141 0.194-5.7472 2.9771-0.63402 1.7081-0.74902 0.79203-0.46701-0.53001 0.52002-2.3931 2.2341-4.1621 4.4271-4.2051zm-14.432 0.66002c-0.90503 3e-3 -1.7651 0.19301-2.2031 0.63202-0.83102 0.83603-0.14 0.84903 1.367 0.29301 0.73202-0.27001 2.1421-0.146 3.0431 0.18501 0.75502 0.277 1.022 0.39401 0.98003 0.144-0.04-0.75002-1.677-1.262-3.1861-1.255zm16.918 2.7931c0.38301 0.92902 0.135 2.5641-1.199 2.7301-1.573 0.195-2.3851-2.6061 0.48702-2.1161-0.37201-1.12-1.661-0.81002-2.2961-0.52701-1.296 0.60102-2.1791 1.9551-2.9741 4.4401-0.23501 0.73702-0.40801 1.123-0.49802 1.048-0.15-0.123-0.22001-1.268 0.126-2.6471 0.62402-2.4871 2.1481-3.9901 3.7601-4.0371 1.046-0.17 2.2631 0.30401 2.5941 1.109zm-22.502-1.08c-0.14 0.034 0.106 0.55702 0.48801 1.368 0.21101 0.44902 0.35501 1.03 0.35501 1.144-2e-3 0.44001 0.31701 0.55002 0.78502 0.26701 0.54002-0.32701 0.62702-0.57302 1.39-0.21101 0.72002 0.40201 1.43 0.65502 2.0891 0.24801 0.35601-0.22201 0.59302-0.21301 1.282-0.02 0.82402 0.232 0.93303 0.26701 1.548-6e-3 0.78502-0.35001 1.7191-0.11001 1.9171 0.125 0.18901 0.22301 0.08-0.086 0.50702-1.138 0.19801-0.48702 0.48202-1.08 0.40301-1.246-0.106-0.22401-0.82102 0.024-1.6 0.24101-0.42101 0.117-0.82302 0.083-1.631-0.15901-1.7041-0.51001-2.7781-0.36401-3.8451 0.17401-0.59602 0.30001-2.0911-0.11501-3.6011-0.76703l-0.088-0.018zm3.3521 4.8492c-0.76802-0.013-1.465 0.50101-1.7841 1.207-0.37101 0.98003 0.26001 2.7481 1.22 2.9001 0.85403 0.13401 0.82102-0.42001 0.39101-0.57002-0.65002-0.227-1.417-1.217-0.92103-2.0771 0.34001-0.59202 1.369-0.58802 2.0851 0.14001 1.442 1.47 3.0941 1.567 3.4061 0.29101 0.095-0.51002-0.27001-1.189-0.83402-1.003-0.43601 0.143-1.444 0.186-2.2871-0.42202-0.43701-0.31601-0.87303-0.46001-1.276-0.46701zm15.224 4.6661c3.6801-0.23401 2.0971 5.1062-0.027 3.7351-0.75802-0.49001-0.42201-2.2881 1.594-2.2561-1.9771-1.636-3.3261 0.35701-2.8421 2.5931-0.44401 0.73002-0.56701 2.1201-0.85802 2.9071-0.44801 0.90002-0.80002-1.455-0.34701-3.7291 0.43701-2.2021 1.178-3.1671 2.4801-3.2501zm-20.816 0.185c-0.76002 0.01 0.021 0.87803 0.14 0.98203 2.2911 1.9101 3.4121 3.0921 1.568 2.4631-2.9951-0.75703-3.7671 0.142-6.0482 1.21-0.42001 0.21401-0.53802 0.082-1.043-0.077-2.0041-0.63002-1.8571 0.70502 0.23801 1.9101 3.1621 1.82 5.7732 2.2311 8.2302 0.86702 1.58-0.87702 1.66-0.30301 0.19201 0.66602-2.5151 1.557-5.1612 1.321-9.2253-1.366-1.313-0.86902-1.496-0.28801-0.153 0.62602 3.0681 1.9681 7.2002 3.7531 10.573 0.84803 0.66402-0.62702 0.79702-0.95203 1.307-0.68102 1.35 0.71502 0.90603-0.53002-0.014-1.704-0.32501-0.41502-0.56502-0.75003-0.54302-1.033 0.076-1.018-0.45401-1.014-0.93803-0.98903-0.57902 0.03-0.51502-0.176-1.224-1.003-1.035-1.209-2.3001-2.5021-3.0601-2.7181zm-30.626 5.4142c-1.273 0.107-1.565 0.168-1.255 2.9411 0.059 0.52202 0.27701 2.0831 0.33801 2.6701 0.75602 7.2622 0.144 10.474-1.7601 11.363-0.68502 0.32001-1.36 0.20301-1.8611-0.011-1.205-0.51201-1.7021-2.0671-0.82702-3.9191 0.23601-0.49902 0.52002-1.27 0.63402-1.7141 0.114-0.44501 0.37001-1.422 0.56802-2.1701 0.48001-1.8211 0.74002-4.5921 0.45701-7.2372-0.192-1.796-0.15-1.9481 0.27101-3.1601 0.92503-1.7901 1.523-2.7061 3.4711-2.7291 2.1781 0.242 2.7881 3.7451-0.037 3.9671zm46.829-0.15901-0.59602 0.03c-0.71802-2.5391-2.2171-1.717-2.4671 0.064l-0.50602-5e-3c0.087-3.3891 4.0781-2.4701 3.5691-0.088zm-55.977-1.8951c4.0681 0.42702 4.8091 1.501 5.1302 6.7202 0.029 2.5271-0.128 4.0511-0.49302 4.6261-0.60902 0.31201-1.192-0.27-2.0601 0.31501-0.47802 0.31001-0.38701 0.34201-0.59202 5e-3 -0.19301-0.31701 0.033-1.65 0.34501-2.7141 0.29701-1.014-0.21201-1.605-1.559-2.9061-0.36501-0.35301-0.68402-0.84202-1.01-1.54-0.70102-1.9981-1.057-1.119-0.47301 0.60302 0.28801 0.74202 0.35601 1.108-0.52102 0.78902-0.51602-0.19001-0.96703 0.034-1.365 0.25801-1.116 0.30201-2.0781-0.34601-1.11-0.73602 0.59002-0.23701 1.646-0.58002 1.9731-0.57802 0.23701 2e-3 0.35201-0.056 0.35201-0.17401 2e-3 -0.50001-2.1511-0.44501-3.7941 0.15601-2.0161 0.98603-2.1321 0.81002-1.9461-0.72402 0.47201-3.8911 3.8821-4.3661 7.1232-4.1001zm39.783 0.34001c1.04-0.05 1.9961 1.217 1.8061 2.2921l-0.49502-0.034c-0.23301-2.0231-2.0341-2.1101-2.5141 0.15601l-0.71402 0.018c0.45401-1.7481 1.205-2.3991 1.9161-2.4331zm12.094 0.04c0.41101 0.258 0.126 0.96002-0.31201 1.1-0.165 0.043-0.68902-0.34401-0.56302-0.58002 0.23601-0.28501 0.59402-0.43401 0.87503-0.52001zm4.6621 0.34301c0.28701 0 0.65702 0.155 0.70702 0.56501 0.016 0.59802-0.41101 0.47502-0.55402 0.42002-0.28401-0.28001-0.39001-0.96203-0.153-0.98503zm-14.26 0.47901c0.76302 0.095 1.039 1.113 0.175 1.177-0.38601 0.085-0.40501-0.93303-0.175-1.177zm-4.6401 0.11c0.091 3e-3 -0.05 0.83703-0.24001 0.96003-0.37701 0.24301-0.85803-0.022-0.84002-0.27401 0.042-0.60301 0.72902-0.69002 1.08-0.68502zm13.307 2.0301c1.452 0.58502 3.3401 1.152 5.1172 0.49302 0.64802-0.26001 1.167-0.57002 1.166-0.27701-2e-3 0.30601-0.51502 0.77002-1.443 1.047-1.9131 0.56902-3.2981 0.34901-4.6121-0.70002-0.37101-0.29501-0.50002-0.56702-0.22701-0.56302zm-0.60002 0.87203c2.3561 1.46 4.4831 1.605 6.3982 0.54102 0.77502-0.28501 0.80002-0.024 0.79702 0.50401-3.4491 3.2201-7.7602-0.122-7.1952-1.045zm-57.835 2.2241c-0.58402 1.252-0.89803 4.3351-1.8511 5.2502-6.5102-0.39801-2.3231-9.5203 1.8511-5.2502zm40.341-1.022c-0.36801 0.205-0.042 1.187 0.53802 1.452 4.9791 2.2761 7.5322 2.5471 10.364 1.5 1.173-0.43301 1.8141-1.453 1.8721-1.948 0.07-0.58902-0.68802-0.64602-2.0141-0.022-4.0381 1.682-6.5702 0.37001-9.8303-0.93303-0.30301-0.12001-0.61002-0.16301-0.92903-0.049zm-19.066 0.07-0.017 7.7102-4.7411-0.088 0.056-1.141 3.5481 0.11201-0.056-5.5072-4.1171-0.04-7e-3 -1.023 5.3342-0.022zm1.102 0.02 4.7301 6e-3 0.23801 0.78502h-4.9681zm-19.087 2.4471c-0.31001 0.29701-0.85302 0.36201-1.077 0.12301-0.50002-0.53802 5e-3 -1.525 0.80502-1.518 0.80002 6e-3 0.86803 0.82702 0.27101 1.395zm2.1801-1.253c0.71502 4e-3 0.95203 0.71203 0.40801 1.284-0.36801 0.35701-0.55702 0.38001-0.88903 0.11901-0.41801-0.39002-0.20001-1.379 0.48001-1.403zm-4.6681 0.19001c0.187-6e-3 0.35301 0.013 0.47401 0.21201 0.43501 0.94602-0.99303 1.6-1.29 0.89602-0.22001-0.57001 0.33401-1.088 0.81602-1.107zm26.752 0.103 0.27501 0.99303-5.4522 0.026v-0.99303zm-19.517 0.28601c0.81302 0.104 0.68802 0.97203 0.31001 1.359-0.64702 0.63702-1.276 0.43002-1.111-0.42601 0.103-0.53602 0.43001-0.92303 0.80102-0.93303zm-4.3841 2.8431c-0.28701 1.086 0.32501 3.2831 0.142 3.5131-0.39801 0.50002-1.037 0.24301-1.32 0.072-0.98603-0.67202-1.048-4.6121-0.095-4.8481 0.61302 0.32701 1.024-0.25701 1.304-0.34201 0.28001-0.085 0.093 0.45101-0.031 1.605zm14.411-1.618a0.97203 1.033 0 1 1 0 2.0661 0.97203 1.033 0 0 1 0-2.0661zm4.3131 0.133h5.5772c0.33401 0.49402 0.30001 0.82803 0.20601 1.17l-5.7832 7e-3zm-16.38 0.13401c0.25501-3e-3 0.38101 0.57601 0.21101 1.238-0.30701 1.193-0.29101 2.8191-0.08 3.5241 0.142 0.48601 0.28101 0.82002 0.20001 0.95903-0.29001 0.48401-1.173 0.153-1.549-0.48502-0.91603-1.805-0.77002-5.1722 0.32501-4.9101 0.41001 0.218 0.64602-0.12501 0.89403-0.32601zm-4.9171 0.45501c-0.27001 0.45701-0.077 3.0211-0.104 3.2331-0.034 0.268-0.72402 0.13-1.108-0.055-0.94703-0.47201-0.69002-1.67-0.50602-2.6371 0.20701-0.76003 0.66202-0.81703 1.224-0.88603 0.31001-0.037 0.72002-9e-3 0.49402 0.34501zm7.5882 0.14c0.30001-0.01 0.34201 0.22501 0.27401 1.174-0.054 0.74302-0.08 1.377 0.034 2.0781 0.24301 1.49 0.27301 1.8941-0.08 2.1861-0.41801 0.34601-0.98103 0.241-1.418-0.16701-0.89503-0.75402-0.95403-4.4501-0.25101-4.7701 0.65402 0.173 1.065-0.37601 1.44-0.50002zm19.263 1.119-0.80102 1.17h-4.7551l4e-3 -1.166 5.5532-4e-3zm-16.956 1.566c0.74202 9e-3 0.62002 1.402 0.22001 2.2771-0.33901 0.52902-0.58602 0.58202-1.095 0.086-0.57702-0.56202 0.109-2.3671 0.87503-2.3641zm15.568 0.39002-0.67002 0.65102-3.4851 4e-3v-0.64802z" style="fill:#131f67;stroke-width:.75646"/><path d="m37.119 176.57-5.7802-4.8151c6.8742-0.16 13.747 9e-3 20.621 0.134l-6.8652 5.1962c-1.405-1.631-2.2351-3.8221-4.2301-4.8802-1.484 0.65002-2.5001 2.8971-3.7451 4.3651zm50.7-1.677c-0.117-0.02-0.21201-0.03-0.28201-0.076-0.158-0.106-0.26001-0.34101-0.37601-1.115-1.7151-8.5003-10.149-7.8992-10.092-7.6482-0.063-0.33601 10.481-10.45 16.68-18.387 1.8731 6.0642 7.5522 19.921 7.3152 19.871 0 0-1.643 0.014-5.9022-0.098-3.8781 1.8601-6.5752 3.6701-6.4482 6.2942-0.022 0.92303-0.23201 1.307-0.52102 1.228l-0.37301-0.068zm18.936-27.362c5.4862-0.092 6.5202-2.9381 7.1462-3.2811 3.6031-0.63002 5.8302 1.862 7.4082 4.5281 2.0161 1.29 1.7651 0.10001 2.1821-1.91l5.0202-1.563-5e-3 1.699c-1.55 0.88603-3.8511 3.1581-3.8511 3.1581l-1.528-0.096-0.87603 1.24c-3.4881 2.0051-6.9082 4.3931-10.587 5.9432 0 0-4.4061-6.0542-4.9102-9.7183zm-68.351 0.53301-0.056-33.608c2.2701-0.17001 6.4472-0.14901 6.4472-0.14901 1.7461-3.2751 4.1281-4.8151 6.5832-6.7172 0.34501 4.1431 0.47701 8.1002 0.39701 12.245-6.5002 8.4302-10.112 18.806-6.1032 34.312l-2.4051-0.284zm35.924 1.8841c1.8511-7.0102 3.2901-14.123 3.8861-21.467l12.376-0.19501 0.24801 4.5021zm42.144-15.304-0.23-12.574c9.0333-11.463 9.5673-21.462 6.2172-34.101 2.9841 0.73002 4.5201 3.2001 7.3632 6.6062l2e-3 32.79c-1.9761 0.31301-6.8742 0.61802-6.8742 0.61802-0.148 1.536-4.2871 5.2102-6.4782 6.6612zm-38.246-19.819-0.55102-5.5442 16.082-16.32c-1.328 7.0712-2.9331 14.332-3.4021 21.861zm-26.683-17.32c-1.148 0.80002-5.3792-3.8701-6.0712-7.0102 1.06-1.523 10.372-6.3702 10.372-6.3702s5.4422 7.4202 5.2202 10.515c-2.4171 0.68202-4.5141 0.87703-6.3492 2.9701-1.05 0.10001-1.418-1.154-3.1711-0.104zm-7.3442-6.2742c1.295 0.22201 0.46401 2.0781 0.26501 3.4381l-6.8432 2.1551c2.3531-2.1331 4.0211-3.9471 6.5782-5.5922zm22.282-16.406c1.406-0.045 2.8731 0.57002 3.9571 0.10701 0.40601-0.16801 1.217-0.42702 2.1051-0.25001 2.0451 0.67202 2.7631-1.721 4.0661-1.732 1.6871 5e-3 2.6241-1.25 2.6351-3.7611 5e-3 -1.086 0.09-1.209 0.28201-1.317 0.57602-0.32401 1.19 0.13001 1.267 0.72703 1.21 4.6251 4.2661 8.7853 9.0853 8.4542-3.8381 4.1551-15.51 16.926-15.51 16.926-2.1021-6.8052-4.8951-13.138-7.8872-19.156zm49.656-3.9861 7.0302-5.4202 4.2081 5.4402 3.6381-5.1802c2.1381 1.628 7.0012 5.2552 7.0012 5.2552s-14.581 0.229-21.878-0.095z" style="fill:#d40000;stroke-width:.75646"/><path d="m120.12 21.696-64.634 0.44002 12.56 17.821c13.343-2.8861 24.961-1.01 37.017 1.226zm-1.653 0.90203-4.3021 5.6782c-1.19-1.143-3.8471-0.73002-3.4701 1.77-3.2971-1.82-3.9961 3.1781-1.197 2.9731-0.35002 0.98203-3.1771 1.24-3.9741-0.54001-2.9021 1.726-3.7881 0.05-4.5561-1.038 3.6871 2.6601 5.4812-2.8071 1.422-3.1151 1.595-3.4261-4.0931-4.9822-3.7581-0.52201-3.7501-0.90403-2.8901 4.7051-0.135 3.5551-1.7901 2.8601-4.7261 0.93803-5.3202 0.38201-1.51 1.203-4.3641 1.24-5.1642-0.68202 4.1761 0.89203 3.7181-4.9481 0.01-3.6041 1.9771-4.4851-4.5981-3.8821-3.0001-0.20701-3.7421-0.15-2.9131 4.7481 0.37201 3.9151-2.9191 2.9221-5.1062 0.2-5.5672 0.14-1.7291 2.0261-4.7641 0.91603-5.1802-0.28001 2.9771 1.25 3.9531-4.0661 0.20001-3.7471 0.96003-3.4231-4.4401-3.8381-3.2481 0.05-2.9761-0.71602-3.1381 4.3471 0.19601 3.5581 0.20601 1.387-2.4171 2.7151-4.0301 1.374-1.184 0.69002-2.4801 1.76-4.0201 0.174 2.3461-0.40001 2.7321-4.6131-1.056-3.7031 0.18-2.5871-1.217-2.7271-2.9441-2.0701l-2.7661-3.9801zm-44.587 6.3512c-0.20601 0.48201-0.55302 0.81002-0.47001 1.178 0.065 0.301 0.35701 0.72002 0.76302 1.285 3.2331 4.4781 9.7903 4.3281 11.761-0.288 0.40201-0.85803 0.32001-1.052-0.164-1.7821-0.58402-0.88002 0.076-1.82 0.79202-1.74 1.068 0.118 1.253 1.107 0.74002 1.811-1.117 1.493 1.9481 4.8702 5.0102 5.4002 3.9211 0.68002 7.6412-2.2501 7.1232-4.8772l-0.132-0.44901c-0.41801-2.2001 2.8651-1.145 1.683 0.256-0.44401 0.50702-0.68402 0.65802-0.62302 1.215 0.95303 4.6541 6.2802 5.1422 8.8163 3.7071-3.2721 5.6702-8.4583 1.3-9.3703-2.6621-4.5961 7.0502-10.118 5.5842-13.195-0.61202 0.36401 0.38702-6.0622 11.105-13.355 0.11501-3.0881 8.8453-8.7173 2.8661-8.3302 2.5031 2.5851 1.53 7.2812 0.97703 7.7342-3.7541 0.062-0.58402-0.35501-0.62002-0.59602-1.082-1.223-2.3381 2.7231-2.3551 1.8131-0.22201zm-12.152 0.58202c0.58502 0.058 0.68202 0.31701 0.58502 0.94803zm50.155 1.663-0.84703 1.13c-0.2-0.55302-0.20701-1.06 0.84703-1.13zm9.2143 0.37401c-2.0101 0.09-3.5631 3.0421-3.4621 6.9782 0.05 1.908 0.36501 6.6982 0.48802 7.4102 0.172 0.99603-0.016 2.3461-0.34501 2.4901-0.87003 0.37501-1.198 0.61702-1.433 1.06-0.61002 1.146-0.105 2.4411 1.182 3.0211 0.92003 0.41501 2.0841-0.15801 2.8721-1.408 0.44001-0.69302 0.54101-1.002 0.92802-2.7471 0.17801-0.80302 0.16201-2.1361-0.042-3.3591-0.46301-2.7801-0.119-6.2442 0.78103-7.8702 1.613-2.9171 1.584-4.8272-0.083-5.4292a2.2861 2.2861 0 0 0-0.88602-0.144zm-0.10501 0.44501c2.3401 0.01 2.2771 2.4881 0.98003 3.2501-0.50201 0.24001-1.117 0.29601-1.733-0.132-0.69002-0.42502-0.59602 0.06 0.12 0.61001 0.84003 0.64802 1.197 0.60802 0.74503 2.1271-0.42002 1.414-0.64002 4.4701-0.41002 6.2072 0.63002 4.7511 0.097 7.1202-1.786 7.9442-0.92703 0.40601-1.9291-0.166-2.1861-0.95803-0.40301-1.239 0.31502-2.3021 2.0861-2.0051 0 0 0.124-0.39401-0.33601-4.5181-0.64002-5.7362-0.38801-9.7403 0.60402-11.14 0.53001-0.74802 1.213-1.388 1.916-1.385zm15.873 5.9142c-0.54702 5e-3 -1.136 0.163-1.736 0.52301 0 0-0.065 2.5801-0.13601 2.9701-0.39801 2.1821-0.28001 2.4411 0.67602 2.7511 2.3231 0.75002 4.2301-0.88603 4.1451-3.4521-0.048-1.442-1.308-2.8071-2.9501-2.7921zm0.31401 0.34501c1.27-0.04 2.4221 1.536 2.2971 3.0221-0.067 1.778-1.668 2.7481-3.1031 2.4361-0.42501-0.068-0.86402-0.153-1-0.49201-0.28801-0.47002 0.17501-0.64202 1.14-0.63702 1.056 5e-3 1.252-0.15001 1.603-0.77802 0.69502-1.246-0.19501-2.8251-1.328-2.5291-0.38702 0.101-0.44402 0.28701 0.01 0.42201 1.39 0.66502 0.87202 1.594 0.39001 1.9701-0.57302 0.44801-1.52-0.166-1.683-0.53701l0.097-2.4071s0.46001-0.45701 1.576-0.47001zm-14.314 11.155s-0.53002 0.27001-0.78502 0.51802c-0.56002 0.55001-0.67902 1.385-0.40402 2.2041 0.12201 0.36202 0.10201 0.42402-0.32501 1.014-1.215 1.683-1.372 2.5231-0.74902 4.0401 0.28301 0.69002 0.28501 0.69002 0.018 1.6-1.147 3.9081-3.4081 8.3362-5.8222 11.403a3.3231 3.3231 0 0 0-0.52301 0.96003s0.56501-0.03 0.88002-0.198c2.4931-1.318 5.1282-3.8721 7.5782-5.5472-3.8741 3.3401-8.0002 6.3262-8.0002 6.3262l5.2702 0.30001c-1.323 1.441-24.437 22.247-18.299 59.564 7.2152-1.9061 10.572-5.0682 14.418-8.7253 0.036 3.0071 0.098 11.1 0.12201 11.1 0.073-0.134-3.3391-1.366-2.5281 1.618 0.48302 1.637 0.72702 5.7802-0.129 8.1182l0.32801 0.35001c-0.046 0.10501-0.54702 0.10601-0.54702 0.10601-1.31 2.5961-4.6841 3.1651-6.3472 3.0861-0.61402-0.06-0.36601 0.83202-0.28501 1.155 0.31001 1.336 1.7601 4.1981 4.4671 8.7953l0.71002 0.1-0.41001 0.40401c0.32 0.62002 1.173 1.782 1.173 1.782l0.038 0.39502s1.485 2.1961 2.2821 3.2281l0.23401-0.027c0.44101 0.56502 0.97202 1.198 1.422 1.76l-0.034 0.24601c0.84703 0.98003 2.5121 2.9621 2.5121 2.9621l0.33001-0.084 1.31 1.566c10.858-5.2452 22.206-16.85 22.088-16.824l0.093-24.976-12.857-0.04-0.055-33.086 12.843 13.488-0.084-3.8701c-2.9131-2.9431-14.62-15.492-14.62-15.492 1.704-0.25201 3.3541-0.84003 4.9532-1.763 2.7931 1.632 5.7802 2.6131 9.2003 2.1301l-0.014-3.6701c-3.8841-8e-3 -6.2932-1.375-8.0362-3.0271l-2.3981-0.085c-4.4301 3.5801-7.5632 1.918-10.932 1.215l-2.3291-3.5621 23.856-0.13001-0.17001-8.6473-3.6231 0.085-2.3531-1.8481 2.7301 1.226s-0.044-0.47702-0.59001-1.382c-1.47-2.5521-3.3361-6.3082-4.4551-9.5843-0.54201-1.664-0.54001-1.596-0.084-2.5701 0.62702-1.34 0.49201-2.9601-0.33501-3.8741-0.58202-0.64302-0.56302-0.78003-0.37301-1.259 0.77502-1.8971-1.094-2.5951-1.1-2.4741-3.9971 1.636-9.3563-0.049-9.2603-0.10001zm9.2943 0.68802c0.79802-7e-3 0.88502 0.36501 0.88202 0.99703-0.068 1.157-1.486 1.575-2.1261 1.7371-3.0661 0.74502-8.4102 0.304-8.7573-1.215-0.25501-1.116 0.40001-1.735 2.5761-1.18 3.4981 0.79703 5.6632-0.06 7.4262-0.33801zm-9.8943 3.2231c0.31801-3e-3 0.70002 0.34101 0.81003 0.90303 0.092 0.48001-0.37802 1.893-0.77003 2.2181-0.97603 0.80703-1.856-0.44701-1.205-1.81 0.37501-0.78702 0.75602-1.31 1.164-1.31zm10.458 0.16c0.14601 3e-3 0.40602 0.035 0.57602 0.16201 0.77202 0.58002 0.84303 2.5871 0.121 2.8771-0.73502 0.296-1.417-0.51802-1.412-1.7961 4e-3 -0.78302 0.28001-1.256 0.71502-1.244zm-2.4501 0.41302a1.01 1.01 0 0 1 0.49402 0.111c0.64301 0.31501 0.95502 2.4211 0.31701 3.0921-0.49402 0.52102-1.558 0.49302-1.8681-0.58801-0.37001-1.292 0.20801-2.5701 1.056-2.6151zm-5.4352 0.06c0.94203 7e-3 1.156 2.2311 0.23401 3.1471-0.77203 0.76703-1.9491 0.012-1.58-1.507 0.184-0.76003 0.60802-1.587 1.346-1.64zm2.6771 0.35501c1.38 0.25001 1.262 3.8351-0.54302 3.4781-1.029-0.76202-1-3.4251 0.54302-3.4781zm-6.0272 3.8401 1.9481 0.19401s-2.5221 5.7982-4.8282 8.0142c-0.86202 0.92803-1.36 0.96703-0.70502-0.022 1.446-1.8981 3.5841-8.1852 3.5841-8.1852zm11.681 0.038c1.14 3.2241 2.3061 6.4962 3.8601 9.7923-2.3601-2.4171-4.4521-6.1332-6.3802-9.6223zm-9.1603 0.311 1.29 0.015c0.43001 2.0881 1.172 3.4201 2.0451 4.5631 0.75603-1.357 1.234-2.8471 1.698-4.4371l1.025-0.015c0.39302 0.25001-1.206 6.5412-2.7701 7.3072-1.659-1.43-3.0571-5.2962-3.2881-7.4332zm-0.54501 1.49c-0.10801 0.15 2.0041 5.5402 3.7901 7.2702 1.683-1.7371 2.7571-4.0241 3.4781-6.7502l5.5402 8.2602-5.4002-3.9271c-1.08 1.9031-2.2241 3.7181-3.5981 5.2302-1.482-1.703-2.7651-3.7241-4.1101-5.6452-2.0831 1.64-3.5451 3.3921-6.2502 4.9222 0.011 0.064 5.3002-6.0602 6.5502-9.3623zm-0.52002 5.8702 3.7701 4.8912-10.033-0.152zm8.1622 0.077 6.3302 4.6301-9.4333 0.103zm-50.442 2.2771s0.053 0.29401 0.115 0.47002c1.124 4.8701 4.2231 8.9183 8.8863 8.4372l-15.328 16.276s-2.5301-9.1243-7.6602-18.478c0 0 0.93703 0.205 1.667 0.35601 0.68502 0.11 1.205 0.076 1.7201-0.066 0.39101-0.062 0.69102-0.33501 1.041-0.41501 0.59002-0.132 1.333 0.094 1.7251 0.24001 1.053 0.21201 1.7701-0.41401 3.0901-1.65 0.35001-0.33001 0.48401-0.25001 0.92603-0.24901 1.652 4e-3 2.7061-1.5 2.5201-3.8371l-0.083-1.037-0.21001 1.166c-0.39401 2.2001-0.67002 3.1481-2.7191 3.2401-0.49602 0.023-0.68302 0.37801-1.467 1.093-1.1 1.002-1.8751 1.088-2.6531 0.69602-0.79502-0.40001-0.86903-0.164-1.618 0.21501-0.85903 0.43401-2.1081 0.38301-3.2351 0.04-1.573-0.47802-1.38-0.31801-1.38-0.31801 9.1083 17.224 12.31 33.743 12.107 48.417-0.28801 20.909-7.1732 37.784-13.213 47.957 0 0 1.036-0.11 1.9601-0.25601 0.44501-0.13 0.78702-4e-3 1.227 0.16001 0.41001 0.153 0.72002 0.145 1.122 0.095 0.31401-0.038 1.082 7e-3 1.576 0.081 1.12 0.17101 1.195 0.015 2.4161-1.244 3.4641-3.5741 3.2381-3.4401 5.7482-3.3551 3.7661 0.13 6.7772 2.7701 8.0322 7.0482 0.16 0.54001 0.36601 1.3 0.39501 1.3l-0.24401-1.134c-1.103-5.7372-5.7202-7.8362-9.5763-7.7592l16.273-17.332c-0.083 0.016 3.7711 13.187 7.1302 19.059 4e-3 0.04-1.02-0.46801-2.8901-0.21-1.019 0.14-2.1581-3e-3 -2.7981-0.11901-0.82202-0.022-1.324 0.23601-2.3491 1.133-0.42601 0.38801-0.81002 0.81202-1.642 1.185-1.9791 0.88803-2.7681 1.806-2.7781 4.1101-2e-3 0.42002-0.062 0.95603-0.056 1.164l0.01 0.154c0.033 0 0.08-0.086 0.12-0.146 0.098-0.15401 0.29701-0.57002 0.45101-1.536 0.27501-1.724 0.61602-2.3271 2.1531-3.0901 0.46001-0.23001 1.432-0.85502 1.8631-1.22 1.417-1.2 1.8901-1.473 3.0401-1.19 0.65302 0.163 1.21 0.24601 2.0871 0.133 1.043-0.134 1.105-0.19 2.2211 0.11501a37.151 37.151 0 0 0 1.695 0.40801c-15.77-33.647-15.25-64.839 0.31501-96.487 0 0-4.6081 0.058-4.8031 0.18501-0.074 0.048-0.63402-5e-3 -1.245-0.122-1.254-0.24001-0.98003-0.08-3.9401 3.0801-3.6581 3.9081-9.5103 0.79102-11.273-5.7662a3.0271 3.0271 0 0 0-0.31001-0.79202 1.7461 1.7461 0 0 0-0.16-0.20701zm14.91 3.8481c0.67702 0.077 1.182 0.26601 1.098 0.94003l-21.723 22.597-0.33901-1.455zm4.5801 0.137c-0.26701 0.56002-0.99303 1.263-1.31 1.7931l1.181 1.563-0.65502 1.26-1.8171-1.622-3.4581 3.6251 2.8831 3.4371-2.7301 2.9251-0.91003-1.092 1.443-1.604-2.2401-2.2291-3.9501 4.0781 3.2161 3.4731-2.3601 2.4041-0.94003-0.94803 1.237-1.452-2.0981-2.3031-3.6781 3.9851 2.9101 3.4401-2.2481 2.3701-0.99703-1.073 1.08-1.196-2.0821-2.3151-3.7471 3.9261 3.0401 3.5041-2.2351 2.1221-0.78702-0.88502 1.08-1.233-2.0421-2.3221-2.3251 2.2401-0.38701-1.536 23.002-24.273zm1.325 0.36001-0.97003 2.0671-0.74903-0.87403 0.97603-1.067zm-54.252 0.13301c-0.59602 0.154-14.292 8.2582-22.089 17.156l-0.024 3.3141-0.29001 0.39601 0.14 5.1302 0.19501 0.273 0.066 2.0931-0.31001 0.55201-4e-3 5.7442 0.41501 0.074 0.066 7.0302 12.807 0.036-0.014 33.584s-7.5202-8.7823-12.936-13.966l0.021 3.9261 14.327 15.725c-0.98503 0.14701-2.2671 0.40001-4.2001 1.532-4.6491-3.0841-10.023-2.1401-10.023-2.1401l0.022 4.0001c3.4171-0.35001 6.5002 0.14601 10.092 2.7151 2.9571-2.1301 6.5202-3.4251 11.832-1.7331 1.17 1.9661 2.3371 3.9951 3.5061 5.3142l-25.368 0.20001 0.031 8.1002c1.125 0.024 3.9401 0 3.9401 0 1.426 2.9701 4.2301 7.0242 5.3952 12.124-1.599 2.0401-1.47 3.6801 0.084 5.7352-0.014 0.92603-0.27601 1.9501 0.70402 2.9811 3.2271-1.676 6.8722-0.93202 9.5833-0.076 0.92003 0.29001 1.266-0.82202 1.235-2.2221-0.082-0.80202-0.078-1.144 0.50202-1.678 1.38-1.27 0.52302-3.8821 0.30701-3.9401-0.08-2.2901 6.8272-13.76 6.8322-13.55l-1.377 0.53002-5.9052 0.028c15.532-15.91 22.025-34.06 20.666-54.555-0.30301-5.1632-1.06-7.5292-1.06-7.5292-5.4702 2.5821-9.9673 4.4601-14.334 9.4303l-0.29001-10.68c0.24301 0.50502 1.8651 0.97103 2.5901 0.32501 0.49702-0.34601 0.54702-0.71502 0.088-2.0101-0.66702-1.883-0.82602-5.9192-0.32801-7.2902 0.058-0.16001 0.108-0.58502 0.15-1.003 0.057-0.56202-0.06-0.59402-0.108-0.58502 0.127-0.033 0.66202 0.082 0.72502 0.022 1.8671-1.744 3.8681-2.8341 6.3242-2.9481l0.063-1.274c-1.8221-4.8851-3.3641-6.8002-5.0132-9.5323 0 0-0.46801-0.16501-0.76402-0.1l0.38001-0.42602c-2.3141-3.9001-5.6072-7.4502-8.6353-10.822zm-0.102 0.66302 1.642 1.61c-7.8352 4.0021-15.565 9.8653-23.18 17.816l0.104-2.9231c8.6053-8.5952 15.096-12.725 21.434-16.502zm50.323 2.9221 0.98703 1.044-1.367 1.685 0.89003 0.96303-0.49602 1.285-2.2731-2.5081zm-48.917 0.133c0.51602 0 0.93403 0.44501 0.93403 0.99303s-0.41801 0.99203-0.93403 0.99203c-0.51602 0-0.93403-0.44401-0.93403-0.99203s0.41801-0.99303 0.93403-0.99303zm67.052 1.371c15.973 18.887 7.7702 46.334-13.55 52.928l-0.23701-1.55c21.511-7.6982 26.558-33.451 12.598-49.64zm-64.284 0.126 1.018 1.252c-9.1073 4.6181-17.991 11.54-26.575 21.529l-0.084-2.5221c8.0632-9.0052 16.684-15.519 25.641-20.259zm-5.8762 0.38602c0.51602 0 0.93503 0.44401 0.93503 0.99203 0 0.54801-0.41901 0.99303-0.93503 0.99303-0.51502 0-0.93403-0.44502-0.93403-0.99303 0-0.54802 0.42001-0.99203 0.93403-0.99203zm-2.8441 1.866c0.51602 0 0.93403 0.44402 0.93403 0.99303 0 0.54802-0.41801 0.99203-0.93403 0.99203-0.51602 0-0.93403-0.44401-0.93403-0.99203 0-0.54901 0.41801-0.99303 0.93403-0.99303zm9.4723 0.65202c0.51602 0 0.93403 0.44401 0.93403 0.99203 0 0.55002-0.41801 0.99303-0.93403 0.99303s-0.93503-0.44401-0.93503-0.99303c0-0.54802 0.42001-0.99203 0.93503-0.99203zm40.575 0.68502 0.93403 1.048-1.482 1.577 2.1101 2.3411 2.0281-2.0741-1.018 3.0901-17.888 18.991-0.37301-1.9921 1.41-1.503-2.1591-2.2881-0.38001-1.526 2.1231-2.1101 0.89003 0.97003-1.242 1.52 1.9971 2.0901 3.6301-3.5481-2.9951-3.4921 2.4721-2.5401 0.85402 0.88402-1.18 1.293 2.0801 2.3961 3.7231-3.7891-3.0571-3.4321 2.4581-2.5741 0.93003 0.94403-1.237 1.577 2.1161 2.1741 3.6461-3.8261-2.9981-3.3481zm-52.837 0.66702c0.51602 0 0.93403 0.44402 0.93403 0.99203 0 0.54802-0.41801 0.99303-0.93403 0.99303-0.51602 0-0.93403-0.44501-0.93403-0.99303 0-0.54801 0.41801-0.99203 0.93403-0.99203zm14.732 0.19201 0.71002 1.256c-10.84 5.8182-18.338 11.645-29.433 25.036v-1.685c8.5663-11.17 17.472-18.375 28.724-24.607zm-5.4462 0.15c0.51602 0 0.93403 0.44302 0.93403 0.99103 0 0.54802-0.41801 0.99303-0.93403 0.99303-0.51602 0-0.93403-0.44501-0.93403-0.99303 0-0.54801 0.41801-0.99203 0.93403-0.99203zm83.881 0.38001c1.9131 1.8071 5.9302 3.6101 8.5163 3.4181l0.07 2.1741c-4.5141 0.45501-8.4583-2.6151-8.4583-2.6151-3.4771 2.2521-7.0162 2.5371-10.705 1.56l-1.419-3.2301c5.4722 2.6951 10.604 0.12401 11.996-1.307zm-21.604 0.59002c0.20001 0.39101 0.87503 0.84703 0.87503 0.84703 4.2101-1.165 5.5232 3.4471 3.5601 6.0812l0.56002 1.9331c0.75203 0.145 1.411 0.42501 1.9461 0.82002 1.025 0.75302 1.588 2.0601 1.46 3.4321 0.144 1.486-1.9501 2.8701-2.0631 2.7661l-0.028 2.1261c0.59002 0.52002 1.298 1.025 1.7501 1.763 1.007 1.7951 0.60701 3.6031-0.94403 4.7401-0.92403 0.66302-1.9261 0.75003-1.9661 0.68202l-0.97302 2.4141c0.85702 0.51401 1.097 1.388 1.231 2.0111 0.29002 1.354-0.60302 3.1161-1.725 3.7671-1.418 0.82202-3.3481 0.091-3.3471 0.093l-1.38 1.466c0.35501 1.271 0.45201 2.0301 0.26401 2.7741-0.46502 1.845-2.2851 2.5701-3.7471 2.4301-1.148-0.109-2.0121-1-2.0121-1l-1.53 0.62202c0.043 0 0.023 2.0601-0.74902 2.6901-0.24301 0.26601-1.105 0.86003-1.105 0.86003l-0.202-1.419c0.60602-0.46401 0.98303-1.589 0.86002-2.4101l3.3061-1.72c0 0.127 0.90403 1.06 1.523 1.192 1.27 0.275 2.5941-0.77703 2.5971-2.0141 2e-3 -0.72203-0.39002-1.213-0.50202-1.7971l2.8071-3.0851c1.16 0.42401 1.9761 0.49601 2.4961 0.17801 0.98003-0.60002 1.245-1.8421 1.056-2.5891-0.22301-0.88203-0.96403-1.453-1.014-1.536l1.565-4.2041c0.73002-3e-3 1.181-0.12501 1.75-0.51802 1.16-0.81002 1.011-2.3831 0.51602-3.1301-0.60002-0.90903-1.475-1.077-1.544-1.055l0.116-4.3661c0 0.035 1.583-0.80803 1.7531-1.7821 0.25001-1.434-0.31901-2.3461-1.9771-2.7521-0.92003-0.22501-0.87003-0.037-0.87003-0.037l-1.312-3.9501c2.0771-1.347 1.418-3.4861 0.36601-4.2051-1.11-0.75702-2.6771-0.055-2.6771-0.055s-0.71402-0.75202-1.255-1.359zm-55.59 0.80003c1.365 1.95 3.6761 5.8552 4.9681 9.3503 0.056 0.15301 0.027 0.92603 0.027 0.92603-3.6851 0.34001-4.9501 1.8751-6.2602 2.9551-1.016-0.55302-1.444-1.203-3.2801 0.02-7e-3 0.057-4.6841-3.0061-5.5792-7.1642 3.3441-2.1891 6.5302-4.2731 10.124-6.0892zm-18.711 0.024c0.51602 0 0.93503 0.44501 0.93503 0.99303 0 0.54801-0.41901 0.99203-0.93503 0.99203-0.51602 0-0.93403-0.44402-0.93403-0.99203 0-0.54802 0.41801-0.99303 0.93403-0.99303zm8.8603 0.197c0.51402 0 0.93303 0.44402 0.93303 0.99203 0 0.54802-0.41901 0.99303-0.93403 0.99303-0.51602 0-0.93503-0.44501-0.93503-0.99303 0-0.54801 0.42001-0.99203 0.93503-0.99203zm63.935 1.218c1.61 2.2521 4.0381 6.5102 4.6151 10.281 0.81203 5.3042 0.27201 10.868-2.0181 14.76-4.1541 8.3102-11.357 10.08-11.36 10.37l-0.074-1.705c0.067 0.38301 5.5052-2.0501 9.2063-7.5442 2.2851-3.7231 3.5831-9.0443 3.1421-13.196-0.27501-5.9832-4.2721-11.5-4.3051-11.52zm-75.709 0.81102c0.51602 0 0.93403 0.44502 0.93403 0.99303 0 0.54802-0.41801 0.99203-0.93403 0.99203-0.51602 0-0.93403-0.44401-0.93403-0.99203 0-0.54801 0.41801-0.99303 0.93403-0.99303zm8.8473 0.015c0.51602 0 0.93403 0.44402 0.93403 0.99203 0 0.55002-0.41801 0.99303-0.93403 0.99303s-0.93403-0.44401-0.93403-0.99303c0-0.54801 0.41801-0.99203 0.93403-0.99203zm79.77 1.674c2.0741 0.23801 4.6101 4.2311 6.9172 6.5112l0.024 32.554-6.8922 0.14801c-0.89803 2.2901-2.9801 4.5541-6.2962 6.7902l-3e-3 -12.2c11.31-12.87 8.2323-26.96 6.2502-33.801zm-91.156 0.37001c0.51602 0 0.93403 0.44502 0.93403 0.99303 0 0.54802-0.41801 0.99203-0.93403 0.99203-0.51602 0-0.93403-0.44401-0.93403-0.99203 0-0.54801 0.41801-0.99303 0.93403-0.99303zm8.5163 0.17801c0.51602 0 0.93503 0.44401 0.93503 0.99303 0 0.54802-0.41901 0.99203-0.93503 0.99203-0.51602 0-0.93403-0.44401-0.93403-0.99203 0-0.54902 0.41801-0.99303 0.93403-0.99303zm87.499 0.078 14.092 15.091-0.049 2.2151-15.879-17.141zm-82.332 1.418 0.37301 1.8961c-0.45501-0.76002-0.47301-1.04-1.262-1.174zm-7.6272 0.55202c0.51602 0 0.93403 0.44501 0.93403 0.99303s-0.41801 0.99203-0.93403 0.99203c-0.51602 0-0.93403-0.44401-0.93403-0.99203s0.41801-0.99303 0.93403-0.99303zm-8.4403 0.27801c0.51602 0 0.93403 0.44401 0.93403 0.99203 0 0.54801-0.41801 0.99303-0.93403 0.99303-0.51602 0-0.93403-0.44502-0.93403-0.99303 0-0.54802 0.41801-0.99203 0.93403-0.99203zm79.278 0 2.7821 2.0921-0.90703 3.7741-2.8481-2.7181zm-64.288 0.30701 0.49502 0.31101-0.57602 2.5821-6.4042 2.4551c2.0601-1.8681 4.1761-3.9041 6.4842-5.3482zm1.05 1.2c0.45501 1.9131 1.442 4.7422 2.6531 7.1402-0.82202 0.45001-3.7761 2.2261-3.7701 3.0521 0.41801 1.497 3.5401 2.8701 3.5401 2.8701a38.677 38.677 0 0 0-3.2291 7.2032c-0.53402-0.96403-0.59602-4.7691 0.55402-6.3502-1.133-0.47601-2.6841-1.56-3.8631-2.6821 0.76002-2.8571 4.0001-4.5641 4.1421-4.5851-0.057 0.14401-0.95703-5.9682-0.028-6.6472zm-10.396 0.48102c0.51602 0 0.93403 0.44401 0.93403 0.99303 0 0.54801-0.41801 0.99203-0.93403 0.99203s-0.93503-0.44402-0.93503-0.99203c0-0.54902 0.42001-0.99303 0.93503-0.99303zm71.326 0.081c4.1571 8.2272 1.684 15.374-4.9462 20.496l0.153-1.94c4.5751-3.5271 7.5402-10.468 4.1971-17.089zm-79.219 0.23701c0.51602 0 0.93503 0.44401 0.93503 0.99303 0 0.54801-0.41901 0.99203-0.93503 0.99203s-0.93403-0.44402-0.93403-0.99203c0-0.54902 0.41801-0.99303 0.93403-0.99303zm66.498 0.052c-3.0501 12.08-2.9741 17.617-3.3291 20.893l-11.842 0.10701-0.46001-4.3551zm-47.31 0.33301s2.5701 2.5331 4.8741 4.7451l-0.27601 0.57702-2.2401 0.31801c-1.7161-3.5881-2.3581-5.6402-2.3581-5.6402zm-2.1261 1.326 0.018 4e-3 0.143 1.8c-0.77002-0.03-9.0973 3.6641-15.496 9.5653 0.95403-1.785 2.5621-3.4961 4.1181-4.9562 3.3081-3.4501 11.217-6.4142 11.217-6.4142zm-11.838 0.41001c0.51602 0 0.93403 0.44501 0.93403 0.99303s-0.41801 0.99303-0.93403 0.99303c-0.51602 0-0.93503-0.44501-0.93503-0.99303s0.42001-0.99203 0.93503-0.99203zm5.2432 1.13 0.47401 0.52001-2.2101 1.214zm15.408 0.53001 0.094 4e-3c0.34201 0.046 0.48402 0.21801 0.68002 0.39201a4.7071 4.7071 0 0 0-1.263-0.126 0.68302 0.68302 0 0 1 0.48802-0.27001zm-8.4573 0.37401 0.20101 1.344c-4.7901 2.8941-10.492 5.6302-18.787 13.96v-2.7721c5.2052-5.1232 11.276-9.4193 18.585-12.532zm6.4452 0.12601c0.30001 0.078 0.56602 0.082 0.83703 0.011 0 0-0.17401 0.36601-0.38001 0.37401-0.21701 0.01-0.45701-0.38501-0.45701-0.38501zm2.0331 0.078c0.60202-0.04 1.013 0.54601 0.89203 1.3-0.46301 2.5551-0.44501 5.1432 0.052 6.9522 0.38801 1.41 0.48501 1.9041 0.164 2.1401-2.8251 2.0701-4.3741-7.2602-2.0151-9.9073 0.32001-0.32001 0.63302-0.46701 0.90703-0.48501zm-23.069 0.32601c0.51602 0 0.93503 0.44501 0.93503 0.99303 0 0.54801-0.41901 0.99203-0.93503 0.99203-0.51602 0-0.93403-0.44402-0.93403-0.99203 0-0.54802 0.41801-0.99303 0.93403-0.99303zm81.182 0.23 1.757 3.1301-2.4471 2.9101-1.489-3.3801zm-60.464 1.7001-0.09 1.08c-1.263 0.40701-2.3631 0.98403-3.3091 1.837-0.183 0.16701 2.9231 1.656 3.2501 1.311l-8e-3 1.152c-0.043 0.37801-5.1362-1.34-5.4802-2.6221 0.57802-0.85303 3.8001-2.8361 5.6372-2.7601zm-23.177 0.57301c0.51602 0 0.93503 0.44402 0.93503 0.99203 0 0.55002-0.41901 0.99303-0.93503 0.99303s-0.93403-0.44401-0.93403-0.99303c0-0.54801 0.41801-0.99203 0.93403-0.99203zm13.89 1.14c-0.36201 0.73002-0.89703 1.698-1 2.7581-3.4931 2.2501-7.0772 4.3521-11.436 9.5163l-2.3501-0.015-0.052-0.65502c4.7651-4.8261 9.9243-8.9903 14.838-11.604zm9.0003 0.31201 0.024 1.36c-0.81302 0.01-1.256-0.27001-1.8621-0.59802 0.51002-0.34201 0.90603-0.68202 1.8371-0.76202zm26.289 0.144 0.65502 0.73002-0.40801 0.40701zm-35.399 2.8251 1.293 0.85603c-3.3301 1.8451-6.8352 4.5731-9.8683 8.1362h-2.5631c3.2361-3.7261 6.7222-7.0682 11.138-8.9923zm68.998 0.98203 0.25801 3.6961-3.2491 1.8921 0.063-3.9001zm-61.789 0.015 2.2351 0.26001 0.23001 1.003c-1.8751 1.267-3.5031 2.7521-5.0652 4.2961a21.541 21.541 0 0 1 2.6001-5.5602zm-5.3582 0.39602 0.96003 0.47001-0.38001 1.737c-2.7391 1.293-4.9201 3.0401-7.2562 5.3922h-2.6281c2.3021-2.6201 6.1302-5.9192 9.3043-7.5992zm8.3142 1.633 0.01 4e-3 0.35001 11.392c-9.6523 12.004-9.1283 23.613-6.3142 34.139l-1.8401-0.089c-2.1401-2.8241-4.9861-5.6992-4.9861-5.6992l-7e-3 -33.14 6.6552 0.026c1.57-3.8571 5.8852-6.6002 6.1322-6.6332zm-7.8572 1.6 0.08 1.52a19.448 19.448 0 0 0-3.5481 2.8471h-2.5001c1.7281-1.708 3.4431-3.4281 5.9682-4.3661zm22.692 0.74503 0.36601 1.792c-22.403 8.6103-26.451 33.637-13.229 50.818l-0.90003 1.066c-15.18-17.32-8.5183-45.611 13.763-53.676zm-22.513 1.792s0.122 1.373 0.16 1.83h-2.5101c0.56402-0.70402 1.065-1.433 2.3501-1.83zm63.043 0.57402-1.443 3.5741-3.8521 0.063 1.75-3.5741zm-24.385 2.4481h3.5101v3.5631h-3.5101zm-15.193 0.35201 0.06 1.566c-1.56 0.84402-1.167 2.1841-1.559 2.1631-0.95803 0.25701-3.4861 1.681-3.4861 1.681-0.89603-0.86302-2.1041-0.64502-2.6671-0.226-0.77902 0.54201-0.95003 1.803-0.72802 2.8701l-2.6801 3.3301c-1.296-0.58902-2.5581-0.55202-3.1871 0.36601-0.71002 1.035-0.44001 2.3201 0.73102 3.7601l-1.46 3.9801c-0.168-0.239-2.6131 0.52402-2.6461 2.0671-0.035 1.632 2.0211 2.6971 2.0201 2.8211l-0.099 4.3921c-0.093-0.21001-2.0981 0.66002-1.8271 2.7621 0.25001 1.9381 2.7341 1.702 2.7851 1.8631l1.35 4.2031c-0.09-0.128-1.8291 1.68-0.76402 3.3901 0.88803 1.424 3.4661 0.50201 3.4441 0.41001l0.71502 1.07-0.79002 0.91003s-0.34301-0.43402-0.53502-0.39501c-1.5 0.305-3.1771-0.06-3.9801-1.333-1.095-1.7961 0.127-4.6001 0.51602-4.5781l-0.92803-2.4221c-1.69-0.035-3.1201-1.638-3.1971-2.9821-0.16-2.8121 2.0141-3.9891 2.0181-3.9701l0.063-2.6221c-0.133 0.157-2.1471-1.36-2.0991-3.1031 0.036-1.273 1.045-2.7701 2.2871-3.3741l0.92003-0.46302 0.84002-2.1481s-1.189-1.8261-0.88003-3.6661c0.57102-2.7871 3.9901-2.5961 4.5311-2.3261l1.586-2.1101c-0.78002-1.9271 0.56802-4.1621 2.3321-4.5261 0.78402-0.134 2.9801 0.41801 2.9801 0.41801l2.0331-1.115c-0.035-1.18 1.177-1.9481 2.3001-2.6661zm11.556 3.9001h3.0081v3.5621h-3.0081zm8.0142 0h3.3921v3.5621h-3.3921zm-19.327 0.89302-0.038 1.363c-19.424 10.004-11.48 30.718-8.7083 33.128l-0.62402 1.463c-3.4081-2.2021-12.194-26.104 9.3703-35.954zm14.948 3.6071h3.6501l0.031 3.6631h-3.6501zm-15.792 1.782-1.158 3.3371-3.5661 0.31801 1.318-3.3301zm72.874 2.4401 2.4401 0.015c-4.5621 5.6682-9.4853 9.5323-14.345 11.648 0 0-0.017-0.50502 0.132-0.90403 0.12-0.31701-0.073-1.115-0.073-1.115 5.4022-2.8261 9.1123-6.1092 11.845-9.6443zm-12.505 0.05c-0.62702 0.80002-1.344 1.507-2.2341 2.0301l-0.35201-2.0641c0.74602-0.01 2.5861 0.033 2.5861 0.033zm4.2961-0.046c0.246 0.66002-6.4042 4.4751-6.4292 4.1501l0.017-1.268 3.5901-2.8301zm1.436 0h0.014l1.8721 0.011c-1.69 2.8331-10.634 7.9782-10.262 7.2532l0.36001-2.0721c2.8841-1.347 5.5002-3.1791 8.0162-5.1932zm3.1551 0 2.4631 0.011c-3.7061 5.0002-7.4652 6.8252-11.072 8.9763-0.21601-0.034-0.11901-0.12001-0.79403-0.10001l-1.234-1.022c0.23 0.22501 8.2882-4.7931 10.636-7.8662zm-68.925 0.178-0.083 1.51c-5.1852 4.7371-7.2642 10.79-4.5671 17.816l-0.64202 1.5c-2.9001-7.4962-2.0441-14.78 5.2922-20.825zm23.609 0.23701 0.27501 4.0781-16.095 16.644c2.4501-9.2993 3.1281-14.912 3.7861-20.701zm51.543 0.96003 8e-3 2.2621c-6.3462 7.4252-12.742 10.753-18.268 12.1l-0.126-0.87003 2.5601-1.676c8.2432-3.8151 11.854-7.6562 15.825-11.817zm-19.259 0.06c0.11101 1.635-1.26 4.7221-2.8261 6.4652l-2.6831-7e-3 -0.29701-1.238c2.2251-1.274 4.2871-3.0001 5.8072-5.2202zm0.81003 0.48702c0.98603 1.686-0.49302 6.0462-0.55402 5.8742-0.118 0.30101 8.4332 2.2201-0.35201 6.7152 0.19101 1.32 1.015 4.1401 0.38001 5.8802-0.198-0.66702-1.727-5.1902-2.9081-6.3472 2.7431-0.83003 4.7181-2.6131 4.5041-3.2001-0.44601-0.83602-1.674-1.862-3.7401-2.6141 1.758-2.5941 2.2811-4.5401 2.6701-6.3072zm-62.802 0.82602 0.27401 3.4361-3.1231 1.9961-0.24001-3.7731zm54.342 3.1921c0.24301 4e-3 0.47302 0.07 0.58502 0.2 1.543 0.66402 1.655 8.6603 0.25501 9.4743-1.017 0.68002-1.7331-0.41301-1.697-0.60701 0.67402-3.6801 0.253-5.9542-0.028-8.5253 0.03-0.37501 0.48001-0.54701 0.88502-0.54201zm26.909 0.12v2.8431c-9.0703 9.9903-18.845 17.864-28.823 22.285l-0.91002-1.64c12.118-5.9532 22.253-14.446 29.733-23.489zm-1.593 0.26001c-4.2021 6.2122-9.3203 10.268-16.332 12.11l-0.133-1.764c8.7333-2.1081 16.692-10.347 16.464-10.347zm-114.34 1.005c5.4712 5.9432 11.078 11.832 16.65 17.933l-2.2151 0.12301-14.502-15.984zm65.142 0.29601 0.19401 1.467-1.593 1.855 2.5171 2.8741 0.13 0.67802-2.1621 2.4001-0.97603-1.026 1.195-1.426-2.0301-2.2671-3.7601 3.8441 3.1001 3.5741-2.3401 2.3621-0.92003-1.01 1.195-1.467-2.0781-2.3301-3.8341 4.0511 2.9001 3.4031-1.9341 2.2751-0.91703-1.026 0.99403-1.21-2.1021-2.3001-3.6851 3.7701 3.0331 3.5611-2.4641 2.6071-0.95503-0.98503 1.384-1.6-2.2731-2.3001-1.8231 1.83s0.68802-1.816 0.78802-2.1241c0.147-0.45002 0.75102-0.80703 4.5841-4.8252 4.5751-4.8381 9.2683-9.3723 13.833-14.658zm26.243 0.97802c1.337 0.024 3.6121 0.36602 4.7161 0.98503 2.0501 1.15 1.405 2.0531 0.074 2.7261-1.592 0.80602-2.8981 1.2-4.6961 1.255l0.052-0.93702c1.045-0.26801 2.1281-0.53802 3.0501-1.08 0.63502-0.37501 0.80003-0.67502 0.80003-0.67502s-0.62002-0.66802-1.605-1.048c-0.72002-0.27801-1.75-0.27601-2.3101-0.37401zm-59.851 1.237 1.6841 2.6821-1.9941 3.5511-1.9141-3.0631zm33.965 0.29001c0.06 0.50402 0.66202 2.4681 0.34501 2.0881l-1.119-1.338zm25.991 0.26201c0.93003 0.083 1.9101 0.113 2.5901 0.46301-0.79003 0.65002-1.683 0.79403-2.5741 0.95603zm23.361 1.34c0.56101 0 1.017 0.48501 1.017 1.082s-0.45602 1.081-1.018 1.081c-0.56202 0-1.018-0.48401-1.018-1.08 0-0.59802 0.45601-1.082 1.018-1.082zm-52.539 1.877 0.86803 0.89303-1.122 1.388 2.0361 2.2781 2.5201-2.5081 0.33401 1.593-23.615 24.684-1.31-0.1 1.502-1.8851-1.7091-1.855 0.70102-1.334 2.0151 1.904 3.6921-3.7501-2.9901-3.3451 2.5581-2.7901 0.96603 0.88602-1.468 1.688 2.1371 2.3201 3.8621-4.0381-3.0221-3.4921 2.4131-2.4451 0.88503 0.89302-1.122 1.263 2.2031 2.4371 3.2551-3.6001-2.9621-3.4661 2.6321-2.7231 0.81002 0.86003-1.214 1.436 2.2131 2.4331 3.5521-3.8771-2.9241-3.3701zm50.172 0.64502c0.56301 0 1.02 0.48402 1.02 1.081 0 0.59801-0.45702 1.082-1.019 1.082-0.56202 0-1.018-0.48402-1.018-1.082 0-0.59702 0.45601-1.08 1.018-1.08zm-19.195 0.048c1.604 2 2.5701 4.2271 2.7611 6.6222a19.673 19.673 0 0 0-5.0482-5.4882l0.36702-1.004zm22.647 0.163v2.4151c-7.1552 8.6103-15.838 15.1-24.756 19.618l-1.516-1.9591c10.545-5.0022 18.177-11.213 26.271-20.074zm-10.525 1.684-2.9001 2.3921-4e-3 -1.037zm-14.948 0.17801c2.4701 1.28 4.5401 3.4441 5.7732 6.6512-3.3721 2.2481-7.0702 4.0701-10.597 5.8812-1.694-2.8961-3.3971-5.6102-4.7341-9.3393 5.4382-0.042 6.9302-3.1991 6.9682-3.2231 1.311 0.52602 1.586 0.59002 2.5901 0.03zm19.541 0.47001c0.50702 0.01 1.014 0.42301 1.032 1.04 0 0.59802-0.45601 1.082-1.018 1.082-0.56301 0-1.018-0.48401-1.018-1.08 0.11001-0.74702 0.55702-1.05 1.004-1.042zm-7.5262 0.71102 6e-3 1.044c-1.388 1.293-4.0861 3.3851-4.0861 3.3851l-1.115-0.064 0.36201-2.9621c1.69-0.36201 3.3271-0.88602 4.8322-1.404zm-71.038 0.122 2.6641 2.3261-0.81702 3.6081-2.6201-2.1151zm35.768 0.68202 0.24701 1.044-21.882 22.98-1.244-0.215zm40.369 0.89003c0.56302 0 1.018 0.48302 1.018 1.08 0 0.59702-0.45501 1.082-1.018 1.082-0.56202 0-1.018-0.48502-1.018-1.082 0-0.59701 0.45601-1.08 1.018-1.08zm8.0802-8e-3c0.12001 0 0.26201-0.01 0.26201 0.11v1.9901a0.95803 0.95803 0 0 1-0.34001 0.063c-0.56302 0-0.93903-0.48502-0.93903-1.082 0-0.59701 0.45601-1.08 1.018-1.08zm-2.4691 2.4101c0.56201 0 1.018 0.48502 1.018 1.082 0 0.59701-0.45602 1.081-1.018 1.081-0.56202 0-1.018-0.48402-1.018-1.08 0-0.59802 0.45601-1.083 1.018-1.083zm-8.5543 0.011c0.56302 0 1.018 0.48502 1.018 1.082 0 0.59701-0.45501 1.081-1.018 1.081-0.56201 0-1.017-0.48402-1.017-1.08 0-0.59802 0.45502-1.083 1.017-1.083zm-7.3582 0.33301 1.045 0.038-1.945 1.23c0.35701-0.47601 0.69002-0.83902 0.90002-1.268zm18.658 0.50602 0.014 2.2241c-5.0052 5.3152-11.326 10.83-20.991 16.143l-1.23-1.325c7.8802-3.9921 15.273-9.5863 22.207-17.043zm-14.213 1.213c0.56202 0 1.018 0.48401 1.018 1.081s-0.45602 1.082-1.018 1.082c-0.56201 0-1.018-0.48501-1.018-1.082s0.45602-1.08 1.018-1.08zm9.0503 0.08c0.56201 0 1.018 0.48501 1.018 1.082s-0.45602 1.082-1.018 1.082c-0.56202 0-1.018-0.48501-1.018-1.082s0.45602-1.08 1.018-1.08zm-101.38 4.3421c3.4531-2.1291 6.2302-2.3791 10.186-1.737l1.181 2.4781c-3.8521-0.72502-7.9102-0.66002-11.382 2.1851-3.5961-2.4141-6.3302-3.1101-9.2823-2.7201l-0.054-2.6101c3.8501-0.57302 7.3042 0.83002 9.3503 2.4031zm89.521-2.3551c0.56202 0 1.018 0.48401 1.018 1.081s-0.45601 1.082-1.018 1.082c-0.56302 0-1.018-0.48501-1.018-1.082s0.45501-1.08 1.018-1.08zm9.3073 0.44401c0.56202 0 1.018 0.48401 1.018 1.082 0 0.59702-0.45601 1.081-1.018 1.081s-1.018-0.48401-1.018-1.08c0-0.59902 0.45601-1.083 1.018-1.083zm-12.368 1.615c0.56202 0 1.017 0.48401 1.017 1.081 0 0.59802-0.45501 1.082-1.017 1.082-0.56302 0-1.018-0.48401-1.018-1.082 0-0.59702 0.45501-1.08 1.018-1.08zm9.4903 0.62702c0.56202 0 1.018 0.48401 1.018 1.081s-0.45601 1.082-1.018 1.082c-0.56201 0-1.018-0.48501-1.018-1.082s0.45602-1.08 1.018-1.08zm-12.628 1.284c0.57001 0 1.032 0.49001 1.032 1.096s-0.46202 1.096-1.032 1.096c-0.57002 0-1.032-0.49001-1.032-1.096s0.46202-1.096 1.032-1.096zm9.9073 0.90802c0.56202 0 1.018 0.48402 1.018 1.08 0 0.59801-0.45601 1.082-1.018 1.082-0.56201 0-1.018-0.48402-1.018-1.08 0-0.59802 0.45602-1.082 1.018-1.082zm-12.922 0.74803c0.56202 0 1.017 0.48401 1.017 1.081 0 0.59802-0.45501 1.082-1.017 1.082-0.56302 0-1.018-0.48401-1.018-1.082 0-0.59702 0.45501-1.08 1.018-1.08zm-45.003 0.97802 2.5311 2.4631-2.6181 2.7931-0.95803-0.97803 1.457-1.619-0.98603-1.41zm55.117 0.24001c0.56301 0 1.018 0.48302 1.018 1.08 0 0.59802-0.45502 1.082-1.018 1.082-0.56202 0-1.017-0.48402-1.017-1.082 0-0.59701 0.45501-1.08 1.017-1.08zm-2.9301 1.8301c0.56202 0 1.018 0.48401 1.018 1.081s-0.45601 1.082-1.018 1.082-1.018-0.48501-1.018-1.082 0.45601-1.08 1.018-1.08zm-3.1851 1.837c0.56201 0 1.018 0.48402 1.018 1.081 0 0.59702-0.45602 1.081-1.018 1.081-0.56202 0-1.018-0.48402-1.018-1.08 0-0.59801 0.45602-1.082 1.018-1.082zm-52.352 3.0601 0.82602 0.71402-1.297 1.66-0.99003-0.016zm-15.99 4.4731c-2.8861 1.516-4.2571 2.4771-6.2682 4.3361l-2.8831-4.2471zm-19.631 0.03 7.6832 0.114-2.5561 3.8401c-1.685-1.8861-3.3931-3.1681-5.1272-3.9541zm9.1503 0.41801c0.83402 0.28201 3.0121 3.5801 4.0371 5.3822 2.1851-1.847 4.3251-3.9091 6.6582-5.0182-2.7751 3.1131-5.2102 6.3332-6.9442 9.4473-0.49201-1.404-1.8601-5.4242-3.5901-7.1702-2.7301 2.7101-3.8101 5.9782-3.8101 5.9782a51.979 51.979 0 0 0-5.2862-7.8142c-0.34001-0.48601 2.4901 1.382 5.2922 4.2771 0.78802-2.1101 2.9001-4.9982 3.6431-5.0802zm-9.2273 2.0741c1.32 1.114 4.9081 6.0032 5.3202 8.9443l-1.7181 0.114c-0.91403-3.0201-2.4501-6.0382-3.6021-9.0593zm19.108 0.50002c-1.299 2.8301-2.9101 5.7222-4.0681 8.8553l-1.6971-0.078c1.8601-4.3171 2.5371-5.1082 5.7652-8.7783zm-9.7363 1.26 0.042 0.01c1.613 2.3401 2.3751 4.6131 2.8551 7.3812l-1.248-0.052s-0.87003-2.7781-1.468-3.7591c-0.38701-0.60002-0.69602-0.52301-0.96903-0.026-0.61502 1.175-0.84602 2.3511-1.192 3.6301l-1.437-0.11c-0.26501-2.0981 2.9131-7.0202 3.4171-7.0742zm-0.22701 8.0622c0.58302 8e-3 1.194 0.68002 1.19 1.86 0.044 0.55402-0.36001 1.78-0.80002 1.8431-0.81302 0.45801-1.7761-0.96703-1.533-2.1561 0.20601-1.013 0.62802-1.554 1.143-1.547zm-2.8261 0.224c1.153 0.11001 1.402 2.8561 0.93403 3.4181-0.53602 0.56502-1.9561 0.16401-2.0901-0.81502-0.46301-1.247 0.38001-2.5901 1.156-2.6031zm5.6852-0.017c1.255 0.18701 0.94003 3.2041 0.29001 3.6471-1.01 0.56702-1.7801-0.38201-1.438-1.799 0.27401-1.142 0.68402-1.8201 1.148-1.8481zm2.9041 0.50002c1.438 0.17 0.60702 2.8261-0.022 3.3671-0.91203 0.75602-1.7931-0.37401-1.356-1.723 0.34001-1.045 0.90403-1.652 1.377-1.644zm-11.61 0.081c1.045 0.178 1.651 2.6941 1.03 3.4121-0.32701 0.41201-1.273-0.19-1.7051-0.87903-0.52002-0.82802-0.032-2.5371 0.67402-2.5331zm11.138 5.4802c0.124 1.32-0.81302 1.32-3.5161 0.67602-1.365-0.32601-3.7841-0.12-5.0202 0.11801-2.0801 0.40001-2.3741 0.248-2.3701-0.65202 4e-3 -1.044 1.17-1.636 3.8681-1.724 1.9311-0.064 6.7382-0.084 7.0382 1.58zm4.2021-0.77601c-3.2181 0.32201-4.0741 4.6051-3.7201 6.1882 0.28301 2.6461 0.163 5.4162-0.31601 7.2362-0.34401 1.308-0.65002 2.7001-1.203 3.8851-0.84702 1.79-0.62802 3.1201 0.62702 3.8331 1.031 0.58702 2.3001 0.38601 3.0961-0.52201 1.438-1.64 1.61-5.1252 0.73002-13.029-0.31301-2.7881-0.145-3.3451 1.13-3.1881 2.6721-0.022 2.5651-4.4001-0.34301-4.4041zm-0.38701 3.6001c-0.72002-0.29601-1.207 0.40001-1.112 2.1301 0.025 0.76702 0.153 1.63 0.24501 2.3171 1.04 7.5832 0.65002 12.663-1.54 12.914-1.9101 0.32501-3.2001-1.168-2.2701-2.7101 0.52702-0.87503 0.98103-0.99403 2.0071-0.53502 1.41 0.93003 1.057-0.42401-0.21201-1.422-0.81502-0.61202-0.87703-0.61202-0.44001-2.5261 0.59002-2.5801 0.79002-4.4231 0.57202-7.6882-0.30401-2.3101 0.42201-5.3742 3.1901-5.5542 2.7981-0.09 1.9541 4.1321-0.44001 3.0731zm-19.756 9.9883c0.91003 0.46701 1.7971 0.38701 2.6631 8e-3 0.34001-1.612 0.36001-2.9541 1.38-5.1462-1.7001-1.809-4.5641-1.098-5.3702 0.79803-0.80602 1.896-0.056 3.6311 1.328 4.3401zm2.7301-5.5972c1.03 0.23301 0.87603 1.384-0.094 1.008-2.3141-1.157-4.2001 2.3261-2.3331 3.6371 0.95303 0.56601 1.374 0.24 0.43001-0.53702-0.38901-0.47301-0.29001-0.66602-0.057-1.14 0.48501-0.95803 2.2471-0.80303 2.1231-0.10801-0.40001 2.2051-0.66602 2.8421-1.29 2.8481-3.5921 0.19601-4.2701-6.9482 1.22-5.7082zm30.521 3.9671s-10.704 12.856-15.859 19.441l64.616-0.31801-12.295-18.021c-10.548 2.5861-22.941 1.8401-36.461-1.1zm-0.32001 4.1081c1.613 0.02 3.4501 1.264 5.0362 5.4142 0.086 0.04 7.1072-11.326 13.184 0.44002 0.99303-2.6401 6.7182-9.5303 13.335-0.68903 2.3501-5.9172 7.7702-3.9151 8.2802-1.852-0.115-0.44401-5.1662-1.718-7.3542 2.2041-0.40401 0.83002-0.42401 1.618 0.04 2.0851 1.091 1.1-0.098 2.6781-1.342 1.78-0.48501-0.34901-0.54702-1.083-0.175-1.613 1.1-0.87002-1.15-3.5751-3.0021-4.5501-2.5391-1.336-6.0802-0.74603-7.7832 1.172-0.91503 1.031-1.475 1.9571-1.609 2.6981-0.07 0.34301-0.027 0.52302 0.164 0.75202 0.74002 0.94703 0.25201 2.2421-0.74702 2.0851-1.31-0.20601-1.134-1.506-0.25901-2.2171 0.27001-0.14 0.167-0.30701 0.086-0.55002-2.3901-7.1502-11.298-5.7892-12.26-0.83702-0.037 0.18-0.113 0.37001-0.074 0.55402 0.1 0.47301 0.36001 0.87302 0.26001 1.246-0.40801 1.52-2.1991 1.084-2.2801-0.176-0.036-0.57302 0.54602-0.74502 0.83002-1.268 0.17101-0.32801 0.25001-0.73002 0.086-1.093-2.4151-5.3732-6.5582-4.2491-8.6143-3.0351-0.044 0.026 1.8381-2.5791 4.1971-2.5521zm-2.6781 3.1151c0.88203-0.034 1.686 0.42802 2.4361 1.352 2.5301-1.422 4.3301 1.04 4.0301 1.277-3.5831-2.4701-4.7451 3.2861-1.215 3.0681-1.552 3.4101 3.9881 4.8702 3.3671 0.51302 3.4201 1.267 3.9831-3.7201 0.52002-3.6441 1.12-2.0591 4.0231-1.492 5.2522-0.20201 1.444-1.874 4.9921-0.088 5.3442 1.514-3.9781-2.1651-4.3791 4.4531-0.52602 3.0451-1.14 4.2121 4.9851 3.6121 3.2901-0.019 3.8161 1.333 3.2971-4.7241-0.45201-3.4961-0.22701-0.31401 2.9641-3.8151 5.2852-0.52602 0.31401-0.58002 3.9371-2.4771 5.9202 0.50401-4.2971-1.544-3.4841 4.6001-0.40601 3.3771-0.82302 4.0701 4.7311 3.4101 3.3131-0.059 4.3031 1.156 2.3971-5.8092-0.62702-3.2371 0.49302-2.8001 4.1101-1.64 4.0701-1.207 0-2e-3 1.9221-2.2071 4.0731-0.59302-3.3601 0.30001-2.2181 5.1152 0.95803 3.7441-0.034 1.635 1.245 2.7181 2.9741 2.1631l2.7151 4.0331-61.942 0.41501 4.9481-6.2652c1.655 1.453 3.3711 0.76602 3.5821-1.513 3.6021 2.3471 4.5381-3.2281 1.158-3.4691 0.68602-0.49602 1.327-0.75003 1.9311-0.77403zm-3.4621 1.8101c0.21401 0.161-0.077 0.93603-0.55002 0.71202zm48.296 1.62 0.49801 0.74002c0.09 0.25001-0.96503-0.13201-0.49801-0.74002z"/><path d="m53.011 29.982c-7.4442 0-8.4383 7.4722-8.4383 7.4722s-0.99403-7.4722-8.4403-7.4722c-5.2122 0-9.9283 3.3501-9.9283 9.6703 0 8.3502 15.106 16.75 18.369 29.011 3.1051-12.253 18.37-20.661 18.37-29.011 0-6.3202-4.7161-9.6703-9.9283-9.6703zm61.065 182.71c7.4462 0 8.4403-7.4722 8.4403-7.4722s0.99503 7.4722 8.4402 7.4722c5.2132 0 9.9293-3.3531 9.9293-9.6703 0-8.3502-15.108-16.75-18.37-29.011-3.1041 12.25-18.369 20.661-18.369 29.011 0 6.3172 4.7161 9.6703 9.9283 9.6703z" style="fill:#df0000;stroke-width:2.2214"/></svg>
