<svg xmlns="http://www.w3.org/2000/svg" xml:space="preserve" width="216.757" height="309.718" viewBox="0 0 162.568 232.289"><text xml:space="preserve" x="-1.493" y="20.918" style="font-style:normal;font-weight:400;line-height:0%;font-family:&quot;Bitstream Vera Sans&quot;;letter-spacing:0;word-spacing:0;fill:#df0000;fill-opacity:1;stroke:none"><tspan x="-1.493" y="20.918" style="font-style:normal;font-variant:normal;font-weight:400;font-stretch:normal;font-size:29.2227px;line-height:1.25;font-family:Arial;-inkscape-font-specification:Arial;fill:#df0000;fill-opacity:1">K</tspan></text><path d="M12.986 24.047c-3.607 0-4.089 3.62-4.089 3.62s-.481-3.62-4.088-3.62C2.284 24.047 0 25.67 0 28.731c0 4.045 7.318 8.113 8.897 14.052 1.504-5.934 8.898-10.007 8.898-14.052 0-3.061-2.285-4.684-4.81-4.684z" style="fill:#df0000;fill-opacity:1;stroke-width:1.07595"/><text xml:space="preserve" x="-164.059" y="-211.37" style="font-style:normal;font-weight:400;line-height:0%;font-family:&quot;Bitstream Vera Sans&quot;;letter-spacing:0;word-spacing:0;fill:#df0000;fill-opacity:1;stroke:none" transform="scale(-1)"><tspan x="-164.059" y="-211.37" style="font-style:normal;font-variant:normal;font-weight:400;font-stretch:normal;font-size:29.2227px;line-height:1.25;font-family:Arial;-inkscape-font-specification:Arial;fill:#df0000;fill-opacity:1">K</tspan></text><path d="M149.582 208.241c3.607 0 4.088-3.619 4.088-3.619s.482 3.62 4.089 3.62c2.524 0 4.809-1.623 4.809-4.685 0-4.045-7.318-8.113-8.898-14.052-1.503 5.934-8.897 10.007-8.897 14.052 0 3.062 2.284 4.684 4.81 4.684z" style="fill:#df0000;fill-opacity:1;stroke-width:1.07595"/><path d="m58.941 199.264 39.243.89c3.476 5.069 10.455 15.405 10.455 15.405l-63.403.886zm-16.422 3.529c1.695-3.612 2.023-7.092 1.7-12.109-.254-3.849 2.027-6.847 4.38-5.698 1.82.888.98 4.53-.902 3.76-.72-.296-1.351-.028-1.256 1.702.168 4.263 1.244 9.065.319 13.152-.644 3.97-5.816 2.141-4.241-.808zm-15.889-5.569c-1.997-3.164 1.583-6.13 3.824-4.67 1.063.525.912 1.668-.427 1.06-1.87-.85-3.882 2.157-2.255 3.365.749.556 1.034.481.464-.215-1.516-1.862 2.363-2.685 2.25-1.459-.265 1.494-.298 2.123-.427 2.417-.79 1.303-2.308.638-3.429-.499zm5.572-13.307c-2.157-2.845.317-5.082.284-5 .64-.732-5.141-12.113-4.41-12.187 7.302-.82 14.682-.201 21.999.04.002 0-3.902 7.41-5.457 11.076-.627 1.478.838 3.216.232 4.313-1.884 2.174-.713 4.582-1.887 4.69-3.295-.446-6.551-1.024-10.204-.251-.27 0-.298-1.624-.557-2.681zm31.61-79.074c3.692 19.846-1.752 40.884-14.232 54.763-1.761-1.787-3.112-5.18-4.868-7.392-4.878-1.547-8.387.274-11.807 2.056-3.038-1.85-6.46-2.937-9.797-2.89l-.107-3.07c3.375-.077 6.94.253 9.946 2.217l4.703-2.016-14.665-16.066.2-2.745 17.794 18.961 2.291.087c-5.036-14.138-.63-36.595 20.541-43.904Zm24.812 24.894 2.572 12.96s-13.601 15.471-22.01 22.817l-6.337-.61s8.656-16.258 7.068-15.015zm51.13 17.775c-6.04 7.142-13.257 11.684-21.272 16.689-3.204-3.78-7.093-7.939-9.34-11.666 6.992-3.946 13.658-7.004 20.505-13.91-.375.445-8.734 3.442-8.707 3.096-.301 1.475-.12 2.384-1.48 2.772-1.61-2.376-3.167-4.303-5.706-5.365-1.065.101-2.48-.642-2.48-.642.712-.154.399-9.269.003-9.373 0 0 .208-.27 2.068-.23 3.322-.242 5.468-4.486 7.529-5.939 6.44-.56 12.145.11 18.49-.07-.05 8.112.393 16.524.391 24.638zM98.86 126.964c-.162-.344-1.787-13.787-.243-22.217.284-1.977 3.235-2.648 3.8-4.12.938-3.202-.472-7.156.272-10.744.757-3.653 2.39-5.708 3.82-8.423 1.548-2.941 3.766-6.611 6.223-8.804.722-.746 3.241 1.656 5.124 5.809 5.469 3.64 12.48-1.057 12.48-1.057s2.722 2.347 8.876 3.63l-.105 2.524c-.031.735-6.923-.782-8.406-2.247 0 0-5.14 1.818-5.14 2.15 0 1.414 13.572 14.705 13.572 14.705l.076 3.277c-2.034-2.994-17.952-17.383-17.952-17.383 3.529 21.892-4.9 35.526-22.397 42.9zm-22.772-4.284-.305-12.893 11.598.146.477 13.027zm-53.072-13.936c.31-.458-.451-24.03-.403-24.03 7.382-7.762 14.601-12.1 21.84-16.82 3.273 3.427 6.054 6.318 8.466 10.47l-9.986 6.501c.379 1.585-.606 2.156 5.832 8.325.109-.423 2.23-1.678 2.6.2-.873 3.966.386 7.337.552 9.469-.88 1.249-2.845-.092-2.845-.092-1.271-1.401-6.255 5.517-7.677 6.29-6.207-.245-18.727.2-18.378-.314zm69.87-42.033c.082-.084 6.313.05 6.23.287-1.136 3.218-3.954 8.93-6.533 15.521-2.971 5.618-7.094 8.927-10.614 12.608-2.814 2.944-5.323 7.581-7.245 6.377-1.173-3.987-1.444-7.523-2.738-11.94-.593-2.617 3.006-4.322 20.901-22.853zm27.27-22.101c2.283 1.03 8.696.49 9.714.027 1.305.936.49 2.184.326 2.876 1.339 1.793 2.072 2.428.551 5.318-.347 0 4.675 11.956 4.81 11.965 0 0-5.307-2.664-7.179-4.463l-3.66 5.148-4.253-5.813c-.016.525-8.194 6.264-8.293 5.987-.257-.273 7.469-9.07 5.936-14.233-.369-1.245.476-2.51 1.054-3.606.396-.753-.136-2.208.995-3.208zm-4.245-1.072c.346-.42-1.984-11.232.542-15.596 1.07-1.586 3.005-1.667 3.813-.368.619 1.806-1.223 4.321-1.593 5.55-1.197 3.421.58 7.936-.287 11.17-2.6 7.065-7.204-.695-2.476-.756zm17.304-4.8c-1.37.062-.414-4.268-.188-5.509-.006-.245 2.508-.866 3.413.837 1.463 2.546-.296 5.756-3.226 4.671zm-16.34-21.833L103.97 33.507c-13.05-1.589-26.147-2.598-39.491-.438L53.745 17.234Z" style="fill:#e2cf00;stroke-width:.756444"/><path d="m140.297 15.687-119.41.392 1.31 201.38 119.138-.748Zm-27.474 1.233c1.31 0 2.62.004 3.929.007L102.456 35.53l-.352.125c.953 2.952 2.313 6.632 3.61 9.427 2.069 4.516 7.266 12.818 4.023 19.457-.317.57-.613.847-1.01.845-.551-.003-.541-.345-.213-1.012.722-1.467 1.212-4.944.924-6.784-.184-1.175-.8-2.986-1.973-5.722-5.433-10.613-7.13-16.27-6.822-16.27a1.271 1.35 0 0 0-.39-.163l-.534-.188c1.882 6.708 4.942 12.35 7.362 17.572 1.986 4.853 2.2 6.736 1.161 10.27-.402 1.368-1.13 2.244-1.844 2.24-.536-.002-.505-.116-.14-.81 1.904-3.614 1.463-7.56-.902-12.148-3.435-7.579-5.497-12.373-6.721-17.236-.03-.002-.627-.214-.842-.268 1.02 5.06 3.866 10.897 6.517 16.87 2.192 4.6 2.823 7.952 2.032 10.6-.259 1.148-1.085 2.857-2.13 2.908-.408-.003-.472-.228-.087-.82 1.624-2.945 1.912-5.662-.993-11.846-2.672-5.687-5.353-12.05-6.269-17.61-.058-.456-1.22-.997-.968-.241 1.434 6.566 4.29 13.291 7.324 19.847 1.708 4.07 1.884 6.674.603 8.951-.716 1.273-.899 1.563-1.436 1.575-.635.015-.624.04-.273-.734 1.55-3.423 1.295-6.438-.777-11.384-2.84-6.784-5.232-12.397-6.253-18.366-.184-.055-1.145-.45-1.008-.152a100.571 100.571 0 0 0 5.581 16.302c.817 1.852 2.14 5.454 2.566 7.26.81 3.435-1.016 8.153-3.406 8.392-.89.089-.78-.382.213-1.36 1.71-1.683 2.041-4.369 1.46-7.484-.435-2.4-1.186-4.973-2.217-7.589-2.085-5.29-4.354-10.824-5.072-15.706.024-.438-.932-.44-.662.018.516 3.433 1.748 7.343 3.096 10.973 1.475 3.973 3.671 8.424 4.39 13.3.589 3.99-1.762 7.755-4.615 7.98-3.435.272-4.112-3.33-3.285-5.018 1.348-2.52 5.263-1.08 4.1 1.496-.67 1.483-2.716 1.094-2.629-.533-.023-.148.196-.594.157-.618-.07-.044-.371.248-.466.43-.695 1.316 1.392 3.084 2.844 2.025 4.864-2.79 1.58-11.3-.54-16.499-2.053-4.843-3.558-9.22-4.211-13.703-.178-.13-.98-.346-.868-.192.588 2.393.86 4.411 1.446 6.421.919 3.153 2.567 6.683 3.912 10.218 1.221 3.479 2.448 6.435 1.889 10.063-.052.335-.181.736-.397.981-.219.243-.4.205-.464-.718-.022-.125-.175-.292-.199-.452.12-1.363.032-2.714-.3-3.996-.283-1.074-.826-2.17-1.97-4.256-.45-.776-1.63-3.151-1.216-1.51.238.928 1.047 2.991 1.89 4.484.522.927 1.073 3.459.91 3.948-.172.478-.57.505-.757.34-.167-.148-.166-.825-.209-1.244-.177-1.72-1.838-4.722-2.991-5.9-.828-.98 1.95 4.163 2.154 5.533.087.58.257 1.052.07 1.337-.123.187-.373.189-.617.122-.235-.064-.225-.235-.474-1.118-.426-1.51-.953-2.27-2.046-3.633-.375-.466-.625.117-.028.874.826 1.38 1.446 2.263 1.656 4.04-.535.805-.799.649-1.917-1.388-.74-1.346-1.183-1.691-1.377-1.681-.49.025-.027.668 1.349 2.966.713 1.227.73 1.99-.08 1.985-.275-.001-1.814-1.795-2.2-2.573-.32-.646-.717-1.14-.718-.352 0 .314.954 1.965 1.608 2.766 1.03 1.264 1.326 1.518 1.457 2.078.063.267.187.734.275 1.037.265.91.13 1.17-.404.689-.241-.674-.438-.744-1.101-1.263-.56-.438-1.336-1.571-1.845-2.37l-.553-.993c-.5-.989-1.163-1.075-.683-.077.228.462.596 1.221.982 1.784.648.976.514 1.485-.254 1.481-.33-.002-1.249-1.279-1.823-2.277-.375-.651-.961-1.112-.89-.467.018.16.471 1.305 1.152 2.199.738.972.835 1.488.118 1.485-.489-.002-.91-.496-1.534-1.503-.592-.957-.962-1.293-1.13-1.185-.212.138.85 2.035 1.723 3.07.825.98.22 1.538-.729.667-.514-.473-1.545-1.882-1.833-2.552-.517-1.198-.85-.87-.516.078.368 1.046.942 2.19 1.635 2.933.363.39 1.113.695 1.478 1.03 1.036.949 1.692 1.825 1.607 1.981-2.953.177-5.378-3.16-6.041-5.18-.471-1.33-1.01-1.525-.498.351 1.44 4.66 5.928 7.081 9.032 4.992 1.873-1.26.218-4.543-1.315-3.485-.416.288-.435 1.103.094.667.995-.82 1.996 1.201.91 1.8-1.527.84-3.22-.805-2.182-2.8 1.026-2.049 5.141-.876 4.336 2.433-.488 1.485-2.624 3.34-4.455 3.377-3.403.068-5.753-2.694-7.063-5.422-.168-.35-.469-1.04-.717-1.603-.215-.487-.386-.848-.403-.844.378 3.312 3.366 7.407 6.042 8.084 4.447 1.106 5.663-1.7 8.572-4.6 0 0 2.125.293 2.2.245.195-.127 4.135-.313 4.252-.196-15.916 30.556-14.706 66.833-1.018 94.368.905 2.015 1.064 1.633-.435 1.222-1.549-.427-2.954.23-4.212-.078-2.601-.563-3.156 1.318-5.155 2.322-2.494.997-1.93 2.833-2.524 4.607-.187.275-.323.5-.221.463.165-.058.696-.58.737-1.038.102-1.174.497-2.102.948-2.57.43-.445.73-.67.833-.477.08.15.02.676-.192 1.1-.604 1.21.198 5.257.248 2.376.04-2.286 1.349-4.835 3.179-5.878 1.466-.76 1.92-.683.727.487-1.356 1.53-2.277 3.313-2.331 5.532-.023.92.323 1.688.446.863-.052-4.225 3.935-8.931 8.21-6.592.214.163.394.469.331.641-4.14-.735-7.743 1.66-7.213 7.332 0 0 .372-1.111.58-2.221.652-3.473 4.363-4.992 6.965-4.04.49.218.874.95.805 1.048-3.182-1.058-6.676 2.127-6.878 5.577-.066 1.122-.041 2.085.502.06 2.055-7.666 8.395-4.192 7.615-3.563-4.906-.62-6.682 2.876-6.57 6.918.071.37.25.492.398.836.653 1.523.95 2.829 1.004 5.592-.05.712.505 5.244-.055 5.053-1.782-.698-3.136-1.522-6.225-.051-.278.015-.369-.147-.273-.402.128-.343.61-1.021 1.453-2.023 1.897-2.141.807-1.567-.753-.082-1.006.959-.788.303.16-2.971.385-1.328.146-1.489-1.51-2.38-1.703-.915-2.881-1.055-1.435-.095.567.367 1.172.752 1.814 1.024.755.436.668.619.112 2.533-1.081 3.717-1.457 5.076-1.4 7.575.138 6.082 5.611 5.478 8.727 4.11l.13 4.004 11.735 17.5s-41.022-.046-62.968.336c1.253-3.186 14.52-16.681 15.31-19.095.076.012-1.47-4.934-2.283-7.085-3.837-10.158-8.88-14.429-5.96-21.103.628-1.323.738-1.769 1.215-1.766.648.003.856.46.127 1.754-3.136 5.568 3.555 15.175 5.815 21.302.363.981 1.877 5.579 2.143 7.127.026.474 1.088.635.79.082-.832-3.13-1.879-6.55-2.366-7.78-1.786-4.525-3.666-7.612-5.408-12.034-.973-2.794-1.491-6.021.019-8.918.55-1.055.706-1.641 1.069-1.696.313.002.496.114.516.386.022.296-.15.782-.562 1.522-2.636 4.75 2.05 12.428 4.372 17.902 1.514 3.568 2.86 7.322 3.337 10.706.006.234.298.854.879.43-1.005-6.322-3.957-12.453-6.542-18.36-2.21-4.616-3.038-8.639-.086-12.438.257-.262.808-.22.847.17.02.264-.17.765-.631 1.777-2.601 5.758 1.426 10.435 3.315 15.925 1.843 4.59 3.557 8.446 4.245 13.337.521.21.78.472.836-.22-1.349-6.912-4.255-13.124-6.776-19.108-1.165-2.6-1.577-3.847-1.656-5.59-.108-2.394 1.03-5.424 2.051-6.223.265-.208.43-.244.672-.106.33.19.264.318-.39 1.63-1.252 2.506-1.36 5.322-.2 8.3 2.004 4.572 3.692 8.326 4.89 11.688 1.308 3.678 2.044 6.871 2.341 9.753 0 0 .892.42.76-.208-.557-4.032-1.815-8.217-3.173-11.758-1.282-3.342-2.888-6.559-4.19-9.872-1.578-3.973-.271-8.318 2.967-10.488l1.49.035c-.087-.042-3.398 1.35-3.57 6.36-.166 4.773 1.969 7.707 3.513 11.75 1.883 4.878 3.567 9.155 3.967 14.366.147.182.963.22.949.144-.4-3.506-1.367-6.839-2.748-10.935-1.467-4.354-2.926-6.284-4.288-10.855-.921-3.092-.797-7.281 1.255-9.195 3.07-3.286 7.356-.946 6.281 2.814-.828 2.647-4.251 2.121-4.233-.36-.004-1.6 1.857-2.033 2.473-.825.144.236.24 1.266.304 1.304.063.038.256-.81.257-1 .006-1.316-1.68-2.424-2.935-1.756-1.719.915-2.836 3.018-2.723 5.833.12 2.995.633 4.932 2.947 9.628 2.696 5.47 3.59 11.395 4.166 15.387.249-.11.547.032.644 0-.393-5.442-2.081-11.032-4.188-15.679-2.551-5.628-3.265-9.072-2.414-11.595.125-.37.244-.65.397-.673.285-.045.374.438.638 1.448.081.31-.022.797-.08 1.174-.223 2.308 1.305 7.11 2.725 9.244.417.608.948.588.488-.493-1.463-2.79-2.354-5.319-2.471-8.71-.035-.998 1.062-.55 1.086-.05.08 1.62.232 3.528.963 4.887 1.484 2.687 2.31 2.804.792-.197-.337-.696-1.302-3.64-.913-4.652.216-.205.48-.243.61-.037.429 1.664 1.023 3.311 2.074 4.592.55.668.641.366.352-.467-.484-.963-1.997-4.184-1.3-4.91.224-.197.093-.09.704.967.851 1.471 1.315 2.047 1.729 2.478.55.572.684.187.115-.82-1.136-2.008-1.782-3.676-1.383-4.096.395-.415.49-.223 1.387 1.394.4.72.977 1.779 1.175 2.03.196.248.376.313.38.107-.21-1.95-1.792-4.176-2.43-4.563-.092-.181-.06-1.722-.06-1.722 2.38 1.296 2.476 2.758 4.051 5.01.162.168.393-.037.324-.348-.055-.421-.987-2.295-1.572-3.118-.46-.646-.48-1.017-.09-1.203.63-.301 1.51.689 2.447 2.459.435.82 1.016 1.297 1.018.866.001-.237-.808-2.355-1.367-2.967-.93-1.019-.47-1.731.607-.789.489.428 1.151.75 1.834 2.307.398.91.74 1.026.742.3.002-.815-1.294-2.807-2.165-3.358-.674-.428-1.057-.904-.868-1.222.59-.92 2.983 1.426 3.8 3.607.24.644.663.973.766.689.184-.144-.3-1.716-.798-2.444-.821-1.664-2.762-3.272-3.911-3.078-.222.038-.833-1.326-.833-1.326 2.933-.501 5.782 3.214 6.289 4.603.962 2.638 1.45 2.328.61.015-1.644-4.52-6.75-7.054-9.584-4.867-1.614 1.246-.648 4.224 1.012 3.72.66-.262 1.299-.974.138-.74-1.29.137-1.702-1.941-.386-2.358 2.118-.67 2.603 2.898.893 3.693-1.775.805-3.541-.395-3.375-2.455.314-3.895 4.838-5.02 9.305-1.87 1.255.885 2.8 3.774 3.332 5.603.176.605.767.816.84.74.17-.179-1.24-3.393-1.704-4.21-1.945-4.709-8.976-4.942-8.976-4.698 0 0-2.753 1.832-5.2 4.852l-6.284-.612c16.01-27.188 17.269-67.161.847-95.459.21.144 3.157.95 4.173.104.75-.38.964-.51 1.792-.197.932.354 1.913.041 2.928-.94.765-.74.78-.967 1.273-.9 1.458.2 2.426-.702 2.726-2.925.118-.873.199-1.78.08-1.648-.07.077-.238.833-.345 1.307-.295 1.307-.568 1.785-1.05 2.212-.792.701-1.251.31-.92-.756.313-.687.574-2.455.143-3.26-.076-.143-.093.404-.202.841-.865 3.484-1.772 5.253-3.34 5.66-.737.193-1.077.074-.84-.375 2.768-3.118 2.583-6.573 2.375-6.278-.588 2-1.68 4.978-3.476 6.203-1.55 1.058-3.82 1.159-5.082.27-.717-.504.366-.653 1.99-.676 2.733-.039 5.288-3.898 4.864-7.153-.1-.6-.256.045-.478 1.033-1.008 3.524-2.738 5.998-6.69 5.26-.308-.058-.515-.274-.683-.397-.643-.472-.406-.795.872-.618 2.859.394 5.346-2.439 5.33-5.862-.007-1.643-.23-1.624-.477-.4-.348 1.725-1.618 7.016-6.24 5.288-.832-.477-1.287-1.088-.99-1.177 2.696.574 5.167-.052 6.127-3.796a8.222 8.222 0 0 0-.107-4.519c-.134-.898-.42-1.583-.516-2.495-.257-2.446-.627-5.146-.516-7.822.221-.233.26-.182 1.036.362 1.523 1.07 2.676.824 4.225.189 1.993-.761 1.812-.624-.272 1.867-.434.519-.874 1.153-.924 1.25-.53 1.052.465.28 1.21-.71 1.035-1.376 1.253-1.694 1.457-1.693.07 1.488-.438 3.296-.7 4.515-.345 1.352-.34 1.663.474 2.01.353.15 1.033.446 1.412.637 1.704.862 1.547.16.188-.651-1.835-1.097-1.85-1.042-1.324-2.863.615-2.137.918-3.986 1.25-6.1.825-5.228-2.904-8.103-7.857-6.277-.283.15-.611-2.748-.564-3.515.043-.277-.749-.216-1.398-1.06.198-.186-7.304-10.126-10.797-16.154 19.587-.026 39.262-.375 58.907-.37zm-12.18 18.677.077.059zm16.977-18.203h21.007l.303 48.071-1.862.049s-3.506-6.381-4.43-9.396c-.23-.753-.634-1.79-.791-2.197-.357-.922-.606-1.036-.132-1.6.949-1.128.761-3.41-.16-4.51-.286-.357-.433-.236-.419-1.103.013-.746.079-1.223-.108-1.608-.311-.642-.522-.688-.076-1.396.467-.742 1.088-1.944 1.35-2.889.422-1.525.124-1.81 1.066-1.452 2.364.796 4.343-.988 4.282-3.51-.052-2.122-1.929-4.014-4.11-3.434-.504.133-.603.088-1.378-.426-.221-.147-.56-.459-.847-.574-.36-.145-.656-.133-.805-.404-.292-.533-1.205-1.38-2.318-1.325-.679.033-1.562-.226-1.795-.356-.388-.214-1.476-.04-2.859-.26-.615-.097-1.11.156-1.408.16-.851.01-.504-.101-.666-.786-1.067-3.569-4.184-3.143-5.612-.459-.524 1.054-.904 2.616-1.101 4.23l-8.395-.133zm-64.965.104c3.136 4.22 6.136 8.95 9.297 13.258 3.89 5.219 4.018 5.818 2.973 11.07-.584 2.968-.834 3.654-2.018 3.43-1.111-.21-2.052.714-2.203 1.885-.285 2.198 1.718 3.552 3.73 2.452 1.06-.58 1.095-.643.742 1.274-.506 2.746-1.522 5.11-2.175 5.032-1.686-3.787-5.79-1.093-4.428 2.845-.426.688.135 1.56.35 2.28 0 0 .008.084-2.336.905-11.508 3.605-25.763 13.014-33.546 21.847l-.53-66.096Zm66.039 9.018a1.884 2.001 0 0 1 1.331.514c1.003.954.768 2.287-.62 4.796-1.456 3.496-1.06 6.25-.725 9.921-.01 2.132-.69 4.158-1.775 5.033-1.757 1.42-3.923-.48-3.012-2.407.467-.956 1.458-.399 1.691-1.303.084-.541.074-1.393.13-1.797-.21-1.609-.643-6.518-.646-8.221.019-1.468.473-3.312 1.102-4.692.614-1.152 1.602-1.82 2.524-1.844zm2.767 5.704c-.398.35-1.062.358-1.14-.08.002-.46.341-1.926.576-2.088 1.44-.356.98 1.789.564 2.168zm2.152-2.286c1.19-.05 1.973 3.17.941 5.055-.196.04-1.638.029-1.645.06-.025-.337.07-1.01.177-1.653.092-.55.146-.968-.01-1.559-.39-1.475-.644-1.753.536-1.904zm2.266.044h.14c1.206.006 1.894 2.476 1.515 5.174-.054.388-.086.794-.22.885-.504-.145-1.905.384-1.93.38-.132-.142-.078-.91.1-1.602.332-1.28.424-2.131.035-3.455-.279-1.145-.29-1.362.359-1.382zm3.008.711c1.327.236 1.413 4.129.868 5.393-.13.186-.63.14-.809.21-1.128.343-.877.522-.745-1.38.09-1.306.111-2.32-.074-3.397-.09-.473-.125-.802.2-.834a1.32 1.32 0 0 1 .56.007zm-6.62 1.522c.529.767.104 2.542-.3 3.2-.46.728-.645.788-.394 1.107.106.135.328.823.191 1.111-.253.534.397.63.987.956.957.53 1.421 1.509 2.135 3.289.25.62.76.425.513-.243-.212-.572-.295-1.414-.441-1.976-.153-.577.014-.866.643-.696.944.254.813.016 1.16-.119.757-.444 1.266.185.808.533-.263.2-.824.322-1.444.502-.527.154-.404.692.126.689.489-.002 1.892-.42 2.807-.714 2.622-.84 2.71-1.288 2.464.293-.323 2.092-1.4 3.661-3.179 4.192-1.548.463-5.125.374-6.717-.167-1.513-.726-1.613-1.235-2.07-2.647-.627-1.934-.996-5.208-.276-7.111.634-1.607.57-1.438 1.178-1.357.541.2 1.268-.022 1.43-.374.081-.168.287-.474.38-.469zm10.044 1.16c.15.86.163 1.745-.119 2.41-.162.313-1.081.296-1.436.3-.21.053-.194-2.907.032-3.229.534-.85 1.224-.167 1.523.519zm-26.61-.511 2.598.033v.67l-3.064-.02zm9.088.114.004.87-3.91.008v5.451l4.374.015.024 1.134-5.856-.022.018-7.452 5.347-.004zm19.881-.173c4.01.934 2.22 5.64.718 5.925-1.874.356-3.462.131-2.942-1.618.52-1.186.159-2.663.306-3.741.362-.356 1.305-.71 1.917-.567zm-30.23 1.652 3.858.04v.9l-4.41-.01zm8.571.83a1.116 1.186 0 1 1 0 2.37 1.116 1.186 0 0 1 0-2.37zm10.887.47c.718.083.78 1.25.487 1.59-.376.396-1.079.227-1.292-.38-.193-.547.24-1.235.805-1.21zm-20.536.507 4.936.015v.73l-4.985.044-.132-.47zm27.787.315c.685-.017 1.104.594.676 1.115-.645.76-1.959-.403-.676-1.115zm-52.6 1.594c-1.105.99-.22 1.964 1.247 1.026 3.157-2.017 7.813-.419 10.848 1.261.595.324.676-.43.091-.952-2.803-2.621-8.78-4.125-12.186-1.335zm47.832-1.379c.77.004.76 1.025.265 1.389-.495.228-.582.164-.91.028-.451-.186-.115-1.413.645-1.418zm2.73.016c.914.047.813 2-.568 1.296-.5-.571-.175-1.3.569-1.296zm-25.513 1.006 4.797.045v.83l-4.486-.049zm-31.001 1.952c1.31 1.105.904 1.172-1.27.36-1.42-.337-2.833-.122-3.722.251-1.052.442-1.295.314-.84-.433 1.223-1.458 4.594-1.164 5.832-.178zm6.303 1.83-1.19-.156c-.867.171-.616.215.3 1.322.917 1.108 1.217 1.37 1.161 1.797-.082.627.084.973.673.903.283-.033.62.315 1.053.734 1.5 1.449 2.258 2.169 2.746 2.392 1.988.911 1.093-.117-.177-1.048-2.117-1.552-2.854-2.587-1.349-2.033 1.598.588 4.141.255 5.393-.548.616-.394 1.006-1 1.875-.704 1.22.414 1.688-.35 1.349-.778-.554-.377-1.819-.827-3.02-1.685-2.569-1.384-5.27-1.343-7.07-.229-1.06.657-1.429.195-.39-.455 4.171-2.388 7.47-.1 10.141 1.614.463.3.787.275.788.064-.07-.693-1.259-1.12-1.74-1.43-3.72-2.405-7.63-3.171-10.545.241zm25.326-2.115 4.169.003v.875l-3.863-.02zm-33.923 1.115c1.155-.006 3.668 1.095 3.626 2.007-.049.346-.678.036-1.224-.318-1.056-.685-2.678-.868-4.204-.567-1.172.233-1.545.438-1.712.289-.405-.967 2.442-1.406 3.514-1.411zm45.082.651.007 1.567c-2.264.175-2.729 2.846-1.277 4.334 1.19 1.22 3.157.74 4.146-.99.173-.307.194-.494.3-.34.066.094.123.386.177.67.157.821-.066 1.033-.578 1.737-.829 1.138-.942 2.573-.422 3.64.143.294.442.713.39.908.29-.01-2.57 8.491-6.746 12.775-.7.494-1.206-.086-.846-.883 3.403-8.26-3.107-15.934-5.633-23.317l10.482-.1zm-30.249 1.426.596.056c-.48 3.805-3.956 3.193-4.093.093l.502-.02c.678 2.885 3.003 1.704 2.995-.129zM65.5 42.75s.251.425.251.663c0 .886-.013 2.167-.035 2.555-.201 3.662-4.575 4.34-4.243 1.207.26-1.33 1.842-1.477 2.231-.274.568 1.515.67-.365.677-.952.463-.922.803-2.042 1.12-3.2zm21.076.26c.18.005.5.172.753.46.288.327.18.491-.491.858-.728.398-1.057.364-.795-.44.163-.5.303-.884.533-.878zm32.72.193c.1.004.353.143.293.54-.099.665-.639 1.042-.78.886.09-.35.198-1.288.488-1.426zm-37.941 1.284c-.086.27-.236.153-.617-.192-.422-.38-.4-.623.034-.896.623-.4.661.841.582 1.09zm-13.244-.992c.73 2.45 2.218 2.139 2.883.118l.638-.01c-.14 3.154-3.9 3.098-3.932.048zm-1.317.304c.223-.037.063.781.063.781s-.618-.338-.255-.696a.505.536 0 0 1 .191-.085zm5.522.207c.076-.004.22.057.377.167.365.258.302.408-.116.778-.643.569-.933.252-.585-.511.129-.285.226-.427.324-.434zm48.013.534c.272-.018.653.113 1.46.34 2.225.628 5.203.605 7.736-.137.8-.234 1.394 1.257.962 2.34-.19.48-.157.539.426 1.182.826.912.958 2.383.33 3.722-.456.975-.426.887.116 2.552.247.762.567 1.538.624 1.748.684 2.453 2.372 5.35 3.402 7.774 1.028 1.704-1.844.018-1.844.018s.772 1.1 1.799 1.922c.996.803 2.952.26 3.848 1.238.21.307-.204 6.812-.414 6.992-8.845-.437-23.598-.093-23.598-.093l2.765 4.577c4.348 1.846 8.507 1.384 12.484-1.274-.099.382 4.838 2.947 8.892 3.226l.025 3.081c-3.009-.358-6.057-.432-8.851-2.3 0 0-2.569 1.142-5.142 1.996L139.76 99.28l.007 2.647s-6.153-6.1-12.484-12.977l.136 33.816 12.47.26c-.392 8.801-.235 14.396-.15 24.476-5.893 6.423-14 12.848-21.492 16.707-3.535-3.622-6.456-7.545-9.011-11.74l.204-.347-.602-.305c-1.558-2.464-5.178-9.298-4.605-9.458 1.107.081 6.242-.593 7.265-3.863.008-.207-.112-.79.027-1.473.362-1.772.546-4.463-.066-6.174-1.103-3.083 2.217-2.095 2.329-1.888l-.004-11.648c-4.32 3.68-8.678 7.3-14.453 8.815-3.592-19.234 2.104-43.156 18.343-59.379l-.89-.08c-16.684 18.339-21.06 38.507-18.213 59.747 0 0 .106.664.122.888.039.529-.08.73-.523 1.112-.422.295-.805.611-.767.974.072.682-.546.704-1.353.7-.372-.346-.872.09-1.171.248-.419.065-.627-1.75-1.161-.419-.204.84-.59.903-1.482.485-.56-.174-.573.122-.035.811.744.85 1.373 2.122 1.251 2.504-.273.855-.155 1.716.983 2.207-.065.005-.687 2.608 1.077 2.533.562.006 1.984.311 1.984.311.092.497-.058.78-.279 1l-1.227-.652-.32 1.551-1.636-.122 3.978 5.218.464-4.07 4.65.627c.747 2.057 5.445 13.504 14.425 22.02 0 0-4.909 2.27-6.285 2.982l-.854-3.245-.77 1.178-1.375-.375-.16 1.334-1.223.418 2.133 1.712-5.483 1.771c-15.665-26.843-22.755-64.128-3.246-103.558l4.93.066-.963 1.749 1.401-.237.396 1.274 1.03-.517 1.034 1.378 1.177-3.68s3.493.084 3.928.037c.342-.04 7.382-6.315 7.23-6.555-.11-.173-7.667 5.695-7.92 5.47 0 0-.76.192-.168-.559 1.061-1.348 1.81-2.373 2.887-4.31 1.779-2.573 2.579-5.712 2.998-7.837.007-.15.045-.49-.074-.741-.679-1.43-.528-2.364.69-4.051.426-.591.453-.737.331-1.1-.274-.82-.01-1.52.55-2.07.224-.219.368-.323.579-.337zm-41.535 5.71c3.094 1.35.61 4.34-1.689 1.734-1.203-1.365-2.154-1.279-2.809-.281-.295.45.134 1.24.516.988.354-.232.718-.508 1.234-.004 3.912 3.827 6.721-1.53 3.35-2.863-.417-.204-1.01.248-.602.426zM66.05 50.12l.108.045c.147.097.157 1.45.01 2.018-.488 2.882-2.422 9.577-6.39 6.3-1.575-1.301-.142-4.569 1.744-3.458 1.472.867.478 2.935-1.116 1.748-.774-.577-.528.612.126.952 1.108.616 3.113-.44 4.054-2.32.375-.748.726-2.073 1.122-3.98.199-.96.215-1.297.341-1.304zm.335 4.989c.327 2.083-1.166 5.731-3.29 6.27-1.627.412-3.638-.713-3.494-1.756.042-.302.158.097 1.631.356 2.058.36 3.368-.819 4.554-3.537.374-.858.534-1.314.6-1.333zm5.121.996c-.001.236-.106.856-.199 1.267-.22.976-.356 1.347.648.863.665-.325 1.637-.648 2.642-.055 1.11.653 2.17.533 3.476-.055 1.135-.402 1.688-.406 2.322-.02 1.156.707.76.257.61-1.525-.104-1.254-.426-1.09-.84-.614-.273.31-.824.38-1.437.03-.731-.418-1.748-.22-2.092.077-.343.297-.838.337-1.51-.144-.444-.319-.692-.152-1.237.108-.897.427-1.242.196-1.729-.204-.442-.343-.65-.235-.655.274zm-4.455 1.496c.117-.001.13.48.049 1.448-.374 3.573-3.008 5.563-6.108 3.833-1.357-.823-1.173-1.404.164-.889 2.132.821 4.285-.326 5.337-3.263.27-.752.454-1.128.558-1.13zm7.565 2.548c1.532.674 3.232.46 3.664-.137.485-.67-.26-.56-.65-.459-1.34.34-2.262.217-2.806-.04-1.589-.652-1.488.054-.209.636zm-15.99 2.004c1.986 2.584 2.248 3.089 3.96 6.026 12.513 22.563 16.52 51.08 8.293 76.969-2.258 7.143-5.441 14.424-9.012 20.273l-4.284.048 1.471-1.781-1.994.155-.122-1.177-1.513.518-.729-1.778-1.37 4.07-7.94.022c18.599-19.201 22.261-42.47 18.792-61.152 0 0 1.555-1.033 1.771-1.636.053-.147.168-.77.275-.863.692-.48 1.151-.948 1.492-.856.196.053.298.15.44.37.655 1.02.796 1.18 1.154.153.257-.738.146-1.004.99-.863.494.278 1.15.27 1.091.167-.045-.078-.745-.952-1.077-1.448-.786-1.174-1.01-1.386-.938-1.9.11-.784-.477-1.628-.844-1.841.106-2.11-.656-2.32-2.816-2.793a1.83 1.944 0 0 1 .199-.986l1.269 1.074.46-1.992 1.721.1-4.992-5.133c.025 1.448.09 2.912-.034 4.307-2.34-.136-4.65-.937-4.684-.785-3.437-8.595-8.672-15.864-14.2-21.536l5.522-2.818 1.565 3.17.383-1.796 1.37.255.231-1.151 1.513-.226-1.67-1.685zm32.883 3.708c.212.282.38.301.663.559l-.565.425c.026-.403-.007-.61-.098-.985zM54.77 66.92c-.468 0-.85.405-.85.903a.85.902 0 0 0 1.697 0c0-.498-.378-.904-.847-.904zm4.608.143a.851.904 0 1 0 0 1.807.851.904 0 0 0 0-1.807zm-14.843.66c2.735 2.414 5.249 5.56 8.297 10.48l-.062.663.93.367s5.072 7.092 4.804 10.244c-1.742.386-3.089-.297-6.202 2.796l-2.001-.463-2.106.544s.028.7.55.937c.228.102.606-.878.851-.848 1.023.125 2.055.142 1.865.485-.215.097-.764 7.143.303 8.643.596 1.528.17 1.515-.366 1.797-.58.404-2.409-.449-2.409-.449l.422 11.189c4.824-5.846 15.012-9.745 14.29-9.322 5.113 28.695-7.044 47.839-19.77 61.87l6.67.04s-5.75 9.798-6.178 12.507c.327.9 1.23 2.765-.296 4.074-.517.602-.572 3.333-.572 3.333-3.507.129-6.547-1.165-10.59.34-.419.15-.51-2.338-.53-2.788-1.243-1.235-1.44-3.747-.366-5.052.397-.48.229-.225-.105-1.851-.532-2.595-2.306-6.153-3.657-8.436-.442-.749-.885-1.623-.993-1.893-.965-1.215-3.502-.654-3.81-.974-.281-.249-.463-6.883-.178-7.043 9.995.842 25.636-.123 25.636-.123l-4.198-6.228c-5.17-2.141-12.273 1.514-11.931 1.707.017.022-5.679-3.3-9.628-2.827l.13-3.254c3.508-.014 6.746.68 9.573 2.45l4.801-1.898-14.718-16.403.171-2.703s3.76 4.275 7.847 8.843c3.506 3.92 4.817 4.578 4.817 4.578l.01-34.02-12.654-.033-.338-6.952-.329-.607-.15-4.989.353-.507-.122-2.134-.118-.304-.16-5.096.272-.43.041-3.207c6.115-6.359 21.903-17.055 21.903-17.055zm10.81.967 1.475 6.866.99-1.304 1.52.508.104-1.582 1.384-.51zm50.288 1.141a.851.904 0 1 0 0 1.808.851.904 0 0 0 0-1.808zm-3.982.566a.851.904 0 1 0 0 1.807.851.904 0 0 0 0-1.807zm-48.76.8a.851.904 0 1 0 0 1.807.851.904 0 0 0 0-1.807zm51.812.544-5.92 5.914 1.66-.074.297 1.726 1.486-.722 1.202 1.178zm2.52 1.987a.851.904 0 1 0 0 1.807.851.904 0 0 0 0-1.807zm-47.075 1.164a.851.904 0 1 0 0 1.808.851.904 0 0 0 0-1.808zm3.682.756a.851.904 0 1 0 0 1.807.851.904 0 0 0 0-1.807zm-3.34 1.344c.163 2.416.429 5.282.488 7.703l1.123-1.174 1.296.559.46-1.485 1.413-.074zm36.447 2.015a.851.904 0 1 0 0 1.808.851.904 0 0 0 0-1.808zm-38.887.159a.851.904 0 1 0 0 1.807.851.904 0 0 0 0-1.807zm42.259.22a.851.904 0 0 0-.85.903c0 .5.45.904.85.904.4 0 .85-.405.85-.904a.851.904 0 0 0-.85-.903zm-.504 1.951L94.898 86.7l1.607.159.505 1.522 1.029-.926 1.248.97zm2.695 1.15a.851.904 0 1 0 0 1.807.851.904 0 0 0 0-1.808zm-38.69 1.67a.851.904 0 0 0 0 1.808c.47 0 .85-.478.85-.903 0-.426-.38-.904-.85-.904zm-20.843.553-1.596 1.3.394-.063s.966 1.193.966 1.277c0 .084.592-.021.592-.021zm24.866.789a.851.904 0 1 0 0 1.807.851.904 0 0 0 0-1.807zm-6.093 1.289a.851.904 0 1 0 0 1.807.851.904 0 0 0 0-1.807zm35.139 1.82a.851.904 0 1 0 0 1.808.851.904 0 0 0 0-1.808zm-3.357 1.327a.851.904 0 1 0 0 1.807.851.904 0 0 0 0-1.807zm34.268.223 1.767 2.04v29.858l-1.725.037zm-68.804.212c1.44.001 3.045.222 3.556 1.151.794 1.043-.896.64-2.319.866-1.314.171-.552.456 1.304.57 2.557.161 3.562.232 3.943.858.216.583.058.977.103 1.605l-2.904-.144c-1.506.002-2.39-.028-2.837.093-.356.097-.254.4-.132.53.063.067 1.219.084 2.57.122 3.634.101 4.437.231 4.695 1.473.194 1.14-.68.966-4.413.534-1.662-.145-2.556.271-2.795.396-.41.213 1.186.423 1.708.333.326-.055 2.723.22 3.605.396.742.12.089.097-.286.578-.248.397-.17.853-.558 1.077-.476.267-1.42.263-3.113.263-1.936 0-2.839.5-.182.622 1.717.08 1.814.048 1.96.574.387 1.298-.439 1.526-2.19 1.822-.836.153-2.077.067-3.015-.004-3.703-.28-4.986-1.218-5.486-2.952-1.868-6.469.437-10.418 5.832-10.736a17.07 18.135 0 0 1 .955-.03zm37.43.288-4.181 6.463 1.611-.667.767 1.752 1.29-.978 1.288.845zm-31.288.785c.216.282.122.492-.237.7-.302.176-.82.046-1.161-.11-.45-.207-.496-1.06-.126-1.152.532-.113 1.19.15 1.524.563zm-30.29-.33L32.55 93.44l.07.09 3.011-1.26zm64.185.993a.851.904 0 1 0 0 1.807.851.904 0 0 0 0-1.807zm31.137.781s2.13 2.236 3.005 3.174l-.791-.004.02 1.763 2.52.03 1.385 1.44-3.849-.018v1.8l4.765.003-.024-.77 1.882 1.811.224 20.02-9.082-.029c-.034-9.858-.008-19.362-.056-29.22zm-62.299 2.17c-.13.434-.423.434-.92.22-.737-.32-.632-1.184-.074-1.275 1.054-.128 1.25.388.994 1.056zm2.859.378a.851.904 0 1 0 0 1.808.851.904 0 0 0 0-1.808zm-2.995.693c.333.021.662.203.85.4.466.499.302.964-.219 1.25-.583.324-.994-.116-1.164-.851-.115-.496.157-.784.533-.8zm26.702 2.37a.854.908 0 1 0 0 1.815.854.908 0 0 0 0-1.815zm-28.11 1.1a.753.753 0 0 1 .572 1.248c-.55.578-1.403.33-1.524-.222a.943.943 0 0 1 .952-1.026zm25.062.366a.851.904 0 1 0 0 1.808.851.904 0 0 0 0-1.808zm3.021.6-3.806 6.785 1.54-.648.934 1.307.962-.892 1.454.755zm-29.872 1.134c.681.003.872.571.377 1.092-.336.354-.717.365-1.105.037-.589-.496-.138-1.133.728-1.13zm32.539.083a.851.904 0 1 0 0 1.807.851.904 0 0 0 0-1.807zm-27.714.713c-.47 0-.815.404-.815.903a.851.904 0 0 0 1.7 0 .907.907 0 0 0-.885-.903zm63.065.2v1.919l4.797.004v-1.919zm-63.003 1.704-1.837 7.129 1.538-.93.958 1.041.893-1.166 1.603.445zm3.267.774a.851.904 0 1 0 0 1.807.851.904 0 0 0 0-1.807zm-5.989.362a.851.904 0 1 0 0 1.808.851.904 0 0 0 0-1.808zm65.723.563.004 1.723h4.796l-.004-1.712zm-39.474 2.252a.851.904 0 1 0 0 1.807.851.904 0 0 0 0-1.807zm39.477.963v1.856h4.797v-1.856zm-98.905.226 1.687.034.028 32.342-1.646-1.848zm-.705.063-.083 29.561-3.197-3.57.85-.011v-2.015l-2.767-.022-1.182-1.221 3.946.004v-1.978l-4.681-.018v1.196l-2.301-2.607.038-19.303zm60.259.903-2.561 7.034 1.61-.974.834.87.86-.826 1.465.76zm-67.363.338-.024 1.892h4.727v-1.892zm70.263.381a.851.904 0 1 0 0 1.807.851.904 0 0 0 0-1.807zm-5.79.101a.851.904 0 1 0 0 1.808.851.904 0 0 0 0-1.808zm-20.016.336a.851.904 0 1 0 0 1.808.851.904 0 0 0 0-1.808zm62.257.73v1.99h4.797v-1.99zm-62.361 1.122-.712 1.167-1.627-.59 2.22 7.137 2.786-7.443-1.6.97zm-44.353.519v1.888h4.703v-1.888zm106.714 1.692v1.97h4.793l.004-1.97zm-106.714 1.649v1.892h4.703v-1.892zm67.3.355a.854.908 0 1 0 0 1.815.854.908 0 0 0 0-1.815zm-25.607.944a.854.908 0 1 0 0 1.815.854.908 0 0 0 0-1.815zm5.459.17a.854.908 0 1 0 0 1.815.854.908 0 0 0 0-1.815zm59.562.127v1.777h4.793l.004-1.777zm-39.42.83-1.018 1.136-1.46-.44 3.312 6.562 1.673-7.059-1.46.99zm-67.294.666v2.148h4.703v-2.148zm44.384.974a.854.908 0 1 0 0 1.815.854.908 0 0 0 0-1.815zm-.056 1.87c-.364.274-.522.756-.902 1.003l-1.555-.703.934 8.937 4.316-8.444-1.973.352zm-44.328.292v2.233h4.703v-2.233zm70.631 1.036a.854.908 0 1 0 0 1.815.854.908 0 0 0 0-1.815zm-5.522.103a.854.908 0 1 0 0 1.816.854.908 0 0 0 0-1.816zm-65.109 2.102v2.237h4.703v-2.237zm68.19.499a.854.908 0 1 0 0 1.815.854.908 0 0 0 0-1.815zm12.057.071c4.574.156 5.243 1.719 5.27 7.114.021 4.307-1.186 5.99-4.138 6.82-1.075.303-5.096.023-6.236-.365-.019-.37-.587-1.225-.715-1.883.29-.088 1.208.049 2.948.225 1.41.143 1.774-.098 1.328-.392-2.654-.665-4.46-.485-7.01-1.004-.036-.81-.652-1.753-.652-1.753.139-.059 3.93.375 5.93.308.882-.04.352-.478-.004-.56-2.333-.354-3.849-.297-6.316-.628.067-.67-.254-1.28-.652-1.792 0 0 1.249-.012 3.821.03 1.354.021 2.533.081 3.124.06.995-.003.904-.495.042-.562-1.051-.125-5.188-.15-5.188-.15.308-.152.71-2.12.55-2.14 0 0 1.073.023 1.754-.005 3.315-.131 3.887-.076 3.95-.207.436-.423-.74-.589-1.967-.585-.528.002-1.299.124-1.293-.182.005-.28-.007-.856-.276-1.45 2.033-.83 3.904-.96 5.73-.898zm-39.433 1.108a.854.908 0 1 0 0 1.815.854.908 0 0 0 0-1.815zm32.626.188c.564.003.741 1.08.213 1.249-.812.257-1.256.054-1.227-.456.016-.29.65-.794 1.014-.792zm-27.048.937a.854.908 0 1 0 0 1.816.854.908 0 0 0 0-1.816zm24.322 1.019c1.933-.019.932 2.774-.554 1.766-.737-.5-.219-1.76.554-1.766zm-30.565 2.233c-.04-.004-.061.038-.056.14l.446 8.488 4.65-7.929-1.847.73-.795-1.281-.997.833c-.41.343-1.187-.96-1.401-.981zm28.774.868c.867.128 1.446 1.05.843 1.494-1.355.63-2.08-1.432-.843-1.494zm-2.083 1.863a.854.908 0 1 0 0 1.815.854.908 0 0 0 0-1.815zm3.285.768c.738-.012 1.086 1.127.355 1.485-.155.077-.618.131-.823-.03-.862-.675-.415-1.383.467-1.455zm-31.98 1.4a.854.908 0 1 0 0 1.815.854.908 0 0 0 0-1.816zm65.24 1.136-3.166 1.13v1.59c1.382-.467 2.172-1.66 3.166-2.719zm-29.663.768c.549.245.698 1.035.226 1.3-.372.21-1.38.177-1.627-.168-.639-1.089.736-1.398 1.4-1.131zm-29.84.314a.854.908 0 1 0 0 1.815.854.908 0 0 0 0-1.815zm-3.5 1.568a.753.8 0 1 0 0 1.599.753.8 0 0 0 0-1.6zm35.503 1.35a.854.908 0 1 0 0 1.814.854.908 0 0 0 0-1.815zm-38.255.048L63.293 151l5.034-6.563-1.747.404-.745-1.626-1.078.745zm31.952 1.847a.854.908 0 1 0 0 1.815.854.908 0 0 0 0-1.815zm25.19.032-.825 1.496 2.342-1.382zm-21.781 1.065a.854.908 0 1 0 0 1.815.854.908 0 0 0 0-1.815zm2.877.979-1.021 1.548-1.346-.459-.397 1.474-1.614-.064 5.247 4.852zm-40.892.62a.854.908 0 1 0 0 1.815.854.908 0 0 0 0-1.815zm78.67 1.303.426 66.484-29.83.067-12.28-17.817c-.254-2.902-.107-5.882 1.043-9.776 1.201.883 3.832.401 3.743-3.025-.06-2.243-3.314-3.39-4.935-1.703.084-2.168.912-5.427 2.105-6.387.82.79 1.001 1.961 2.855 1.634 1.316-.232 2.358-1.796 1.788-3.617a4.519 4.8 0 0 1-.223-1.4c.001-.375.034-1.043-.035-1.418a10.212 10.212 0 0 1-.126-1.03c15.892-5.298 27.256-13.776 35.47-22.013zm-72.69 1.141a.854.908 0 1 0 0 1.815.854.908 0 0 0 0-1.815zm-4.028.887a.854.908 0 1 0 0 1.815.854.908 0 0 0 0-1.815zm42.263.436a.854.908 0 1 0 0 1.815.854.908 0 0 0 0-1.815zm-45.325.968-1.332 8.448 5.814-6.314-1.579-.038-.313-1.44-1.478.507zm39.535 1.802a.854.908 0 1 0 0 1.815.854.908 0 0 0 0-1.815zm3.769.986a.854.908 0 1 0 0 1.815.854.908 0 0 0 0-1.815zm-46.926 1.102a.854.908 0 1 0 0 1.815.854.908 0 0 0 0-1.815zm50.324.685-1.39 1.122-1.28-.831-.3 1.794-1.09.607 4.577 3.407zm3.383 2.415a.854.908 0 1 0 0 1.815.854.908 0 0 0 0-1.815zm-48.297.307a.854.908 0 1 0 0 1.815.854.908 0 0 0 0-1.815zm-3.792 1.185a.854.908 0 1 0 0 1.815.854.908 0 0 0 0-1.815zm49.9 2.398a.854.908 0 1 0 0 1.815.854.908 0 0 0 0-1.815zm-3.58.813a.854.908 0 1 0 0 1.815.854.908 0 0 0 0-1.815zm-33.065 1.292.014.007c.096.11.393.934.13 1.355-.136-.069-.75-.676-.593-.882.073-.095.37-.482.45-.481zm-19.38 1.422s.826.046 1.007.13c0 .224-.199.714-.422 1.263-1.115 2.742-1.286 5.816-.153 8.778 1.776 4.02 6.793 13.532 6.42 14.403l-11.085.048.048-1.791c3.114-.13 3.605-2.154 2.827-3.826-.538-1.159-2.047-1.821-3.427-1.213-1.992.878-2.115 1.924-2.826 3.545l-.317-.428c.599-.845.798-1.656.75-2.581-.05-.909-.074-.658.224-1.156 1.735-1.98.6-4.558.6-4.558-.208-1.583 5.19-11.685 6.353-12.613zm-25.351.26c3.153 2.665 5.882 11.642 5.717 11.781-.147-.126-2.54 2.884.038 5.689 0 0-.157 1.685.339 2.551-1.14 2.511-1.34 2.7-1.437 4.764-.02-.008-.197-.025-1.255-.03-5.223-.027-5.467 7.03-.247 7.418.715.053.96-.12 1.39.334.438.576.83 1.154 1.577.855.177.002.463.178.763.474.502.721 1.23 1.235 2.269 1.037.368.038.746.15 1.143.304.458.383 1.252.673 1.873.385.185-.086.54-.115.83.026.754.365 1.522.136 1.806-.093.7-.386.855.233.822.804-.357 1.306.428 2.53 1.618 3.011 2.508.823 3.773-.816 4.312-4.066.134-.713.251-1.56.251-1.56l8.398.234L44.24 215.69l-20.525.267-.108-49.053c.902-.056 1.583.023 2.486.022zm75.511 2.648c1.532.627 1.654 1.777.13 1.278-2.478-.81-5.144.797-5.7 3.096-.103.424-.212.744-.275.826-.347.445-.33.039-.227-1.237.2-2.476 1.848-4.27 3.998-4.344a6.327 6.327 0 0 1 2.074.38zm-.76 1.752c.641 0 1.32.2 1.826.667.574.67.403 1.114-.038 1.091-2.075-.92-4.714.194-5.747 2.977-.634 1.708-.749.792-.467-.53.52-2.393 2.234-4.162 4.427-4.205zm-14.432.66c-.905.003-1.765.193-2.203.632-.831.836-.14.849 1.367.293.732-.27 2.142-.146 3.043.185.755.277 1.022.394.98.144-.04-.75-1.677-1.262-3.186-1.255zm16.917 2.793c.383.929.135 2.564-1.199 2.73-1.573.195-2.385-2.606.487-2.116-.372-1.12-1.661-.81-2.296-.527-1.296.601-2.179 1.955-2.974 4.44-.235.737-.408 1.123-.498 1.048-.15-.123-.22-1.268.126-2.647.624-2.487 2.148-3.99 3.76-4.037 1.046-.17 2.263.304 2.594 1.109zm-22.501-1.08c-.14.034.106.557.488 1.368.211.449.355 1.03.355 1.144-.002.44.317.55.785.267.54-.327.627-.573 1.39-.211.72.402 1.43.655 2.089.248.356-.222.593-.213 1.282-.02.824.232.933.267 1.548-.006.785-.35 1.719-.11 1.917.125.189.223.08-.086.507-1.138.198-.487.482-1.08.403-1.246-.106-.224-.821.024-1.6.241-.421.117-.823.083-1.631-.159-1.704-.51-2.778-.364-3.845.174-.596.3-2.091-.115-3.601-.767l-.088-.018zm3.352 4.849c-.768-.013-1.465.501-1.784 1.207-.371.98.26 2.748 1.22 2.9.854.134.821-.42.391-.57-.65-.227-1.417-1.217-.921-2.077.34-.592 1.369-.588 2.085.14 1.442 1.47 3.094 1.567 3.406.291.095-.51-.27-1.189-.834-1.003-.436.143-1.444.186-2.287-.422-.437-.316-.873-.46-1.276-.467zm15.224 4.666c3.68-.234 2.097 5.106-.027 3.735-.758-.49-.422-2.288 1.594-2.256-1.977-1.636-3.326.357-2.842 2.593-.444.73-.567 2.12-.858 2.907-.448.9-.8-1.455-.347-3.729.437-2.202 1.178-3.167 2.48-3.25zm-20.815.185c-.76.01.021.878.14.982 2.291 1.91 3.412 3.092 1.568 2.463-2.995-.757-3.767.142-6.048 1.21-.42.214-.538.082-1.043-.077-2.004-.63-1.857.705.238 1.91 3.162 1.82 5.773 2.231 8.23.867 1.58-.877 1.66-.303.192.666-2.515 1.557-5.161 1.321-9.225-1.366-1.313-.869-1.496-.288-.153.626 3.068 1.968 7.2 3.753 10.573.848.664-.627.797-.952 1.307-.681 1.35.715.906-.53-.014-1.704-.325-.415-.565-.75-.543-1.033.076-1.018-.454-1.014-.938-.989-.579.03-.515-.176-1.224-1.003-1.035-1.209-2.3-2.502-3.06-2.718zm-30.625 5.414c-1.273.107-1.565.168-1.255 2.941.059.522.277 2.083.338 2.67.756 7.262.144 10.474-1.76 11.363-.685.32-1.36.203-1.861-.011-1.205-.512-1.702-2.067-.827-3.919.236-.499.52-1.27.634-1.714.114-.445.37-1.422.568-2.17.48-1.821.74-4.592.457-7.237-.192-1.796-.15-1.948.271-3.16.925-1.79 1.523-2.706 3.471-2.729 2.178.242 2.788 3.745-.037 3.967zm46.828-.159-.596.03c-.718-2.539-2.217-1.717-2.467.064l-.506-.005c.087-3.389 4.078-2.47 3.569-.088zm-55.975-1.895c4.068.427 4.809 1.501 5.13 6.72.029 2.527-.128 4.051-.493 4.626-.609.312-1.192-.27-2.06.315-.478.31-.387.342-.592.005-.193-.317.033-1.65.345-2.714.297-1.014-.212-1.605-1.559-2.906-.365-.353-.684-.842-1.01-1.54-.701-1.998-1.057-1.119-.473.603.288.742.356 1.108-.521.789-.516-.19-.967.034-1.365.258-1.116.302-2.078-.346-1.11-.736.59-.237 1.646-.58 1.973-.578.237.002.352-.056.352-.174.002-.5-2.151-.445-3.794.156-2.016.986-2.132.81-1.946-.724.472-3.891 3.882-4.366 7.123-4.1zm39.782.34c1.04-.05 1.996 1.217 1.806 2.292l-.495-.034c-.233-2.023-2.034-2.11-2.514.156l-.714.018c.454-1.748 1.205-2.399 1.916-2.433zm12.094.04c.411.258.126.96-.312 1.1-.165.043-.689-.344-.563-.58.236-.285.594-.434.875-.52zm4.662.343c.287 0 .657.155.707.565.016.598-.411.475-.554.42-.284-.28-.39-.962-.153-.985zm-14.26.479c.763.095 1.039 1.113.175 1.177-.386.085-.405-.933-.175-1.177zm-4.64.11c.091.003-.05.837-.24.96-.377.243-.858-.022-.84-.274.042-.603.729-.69 1.08-.685zm13.307 2.03c1.452.585 3.34 1.152 5.117.493.648-.26 1.167-.57 1.166-.277-.002.306-.515.77-1.443 1.047-1.913.569-3.298.349-4.612-.7-.371-.295-.5-.567-.227-.563zm-.6.872c2.356 1.46 4.483 1.605 6.398.541.775-.285.8-.024.797.504-3.449 3.22-7.76-.122-7.195-1.045zm-57.833 2.224c-.584 1.252-.898 4.335-1.851 5.25-6.51-.398-2.323-9.52 1.851-5.25zm40.34-1.022c-.368.205-.042 1.187.538 1.452 4.979 2.276 7.532 2.547 10.364 1.5 1.173-.433 1.814-1.453 1.872-1.948.07-.589-.688-.646-2.014-.022-4.038 1.682-6.57.37-9.83-.933-.303-.12-.61-.163-.929-.049zm-19.065.07-.017 7.71-4.741-.088.056-1.141 3.548.112-.056-5.507-4.117-.04-.007-1.023 5.334-.022zm1.102.02 4.73.006.238.785h-4.968Zm-19.086 2.447c-.31.297-.853.362-1.077.123-.5-.538.005-1.525.805-1.518.8.006.868.827.271 1.395zm2.18-1.253c.715.004.952.712.408 1.284-.368.357-.557.38-.889.119-.418-.39-.2-1.379.48-1.403zm-4.668.19c.187-.006.353.013.474.212.435.946-.993 1.6-1.29.896-.22-.57.334-1.088.816-1.107zm26.751.103.275.993-5.452.026v-.993zm-19.516.286c.813.104.688.972.31 1.359-.647.637-1.276.43-1.111-.426.103-.536.43-.923.801-.933zm-4.384 2.843c-.287 1.086.325 3.283.142 3.513-.398.5-1.037.243-1.32.072-.986-.672-1.048-4.612-.095-4.848.613.327 1.024-.257 1.304-.342.28-.085.093.451-.031 1.605zm14.411-1.618a.972 1.033 0 1 1 0 2.066.972 1.033 0 0 1 0-2.066zm4.313.133h5.577c.334.494.3.828.206 1.17l-5.783.007zm-16.38.134c.255-.003.381.576.211 1.238-.307 1.193-.291 2.819-.08 3.524.142.486.281.82.2.959-.29.484-1.173.153-1.549-.485-.916-1.805-.77-5.172.325-4.91.41.218.646-.125.894-.326zm-4.917.455c-.27.457-.077 3.021-.104 3.233-.034.268-.724.13-1.108-.055-.947-.472-.69-1.67-.506-2.637.207-.76.662-.817 1.224-.886.31-.037.72-.009.494.345zm7.588.14c.3-.01.342.225.274 1.174-.054.743-.08 1.377.034 2.078.243 1.49.273 1.894-.08 2.186-.418.346-.981.241-1.418-.167-.895-.754-.954-4.45-.251-4.77.654.173 1.065-.376 1.44-.5zm19.262 1.119-.801 1.17h-4.755l.004-1.166 5.553-.004zm-16.955 1.566c.742.009.62 1.402.22 2.277-.339.529-.586.582-1.095.086-.577-.562.109-2.367.875-2.364zm15.568.39-.67.651-3.485.004v-.648z" style="fill:#131f67;stroke-width:.756444"/><path d="m34.53 171.377-5.78-4.815c6.874-.16 13.747.009 20.62.134l-6.865 5.196c-1.405-1.631-2.235-3.822-4.23-4.88-1.484.65-2.5 2.897-3.745 4.365zm50.698-1.677c-.117-.02-.212-.03-.282-.076-.158-.106-.26-.341-.376-1.115-1.715-8.5-10.149-7.899-10.092-7.648-.063-.336 10.481-10.45 16.68-18.386 1.873 6.064 7.552 19.92 7.315 19.87 0 0-1.643.014-5.902-.098-3.878 1.86-6.575 3.67-6.448 6.294-.022.923-.232 1.307-.521 1.228l-.373-.068zm18.935-27.361c5.486-.092 6.52-2.938 7.146-3.281 3.603-.63 5.83 1.862 7.408 4.528 2.016 1.29 1.765.1 2.182-1.91l5.02-1.563-.005 1.699c-1.55.886-3.851 3.158-3.851 3.158l-1.528-.096-.876 1.24c-3.488 2.005-6.908 4.393-10.587 5.943 0 0-4.406-6.054-4.91-9.718zm-68.349.533-.056-33.607c2.27-.17 6.447-.149 6.447-.149 1.746-3.275 4.128-4.815 6.583-6.717.345 4.143.477 8.1.397 12.245-6.5 8.43-10.112 18.805-6.103 34.311l-2.405-.284zm35.923 1.884c1.851-7.01 3.29-14.123 3.886-21.466l12.376-.195.248 4.502zm42.143-15.304-.23-12.574c9.033-11.463 9.567-21.461 6.217-34.1 2.984.73 4.52 3.2 7.363 6.606l.002 32.789c-1.976.313-6.874.618-6.874.618-.148 1.536-4.287 5.21-6.478 6.661zm-38.245-19.818-.551-5.544L91.166 87.77c-1.328 7.071-2.933 14.332-3.402 21.86zM48.953 92.315c-1.148.8-5.379-3.87-6.071-7.01 1.06-1.523 10.372-6.37 10.372-6.37s5.442 7.42 5.22 10.515c-2.417.682-4.514.877-6.349 2.97-1.05.1-1.418-1.154-3.171-.104zm-7.344-6.274c1.295.222.464 2.078.265 3.438l-6.843 2.155c2.353-2.133 4.021-3.947 6.578-5.592ZM63.89 69.635c1.406-.045 2.873.57 3.957.107.406-.168 1.217-.427 2.105-.25 2.045.672 2.763-1.721 4.066-1.732 1.687.005 2.624-1.25 2.635-3.761.005-1.086.09-1.209.282-1.317.576-.324 1.19.13 1.267.727 1.21 4.625 4.266 8.785 9.085 8.454-3.838 4.155-15.51 16.926-15.51 16.926-2.102-6.805-4.895-13.138-7.887-19.155Zm49.655-3.986 7.03-5.42 4.208 5.44 3.638-5.18c2.138 1.628 7.001 5.255 7.001 5.255s-14.581.229-21.877-.095z" style="fill:#d40000;stroke-width:.756444"/><path d="m117.533 16.51-64.632.44 12.56 17.82c13.343-2.886 24.96-1.01 37.016 1.226zm-1.653.902-4.302 5.678c-1.19-1.143-3.847-.73-3.47 1.77-3.297-1.82-3.996 3.178-1.197 2.973-.35.982-3.177 1.24-3.974-.54-2.902 1.726-3.788.05-4.556-1.038 3.687 2.66 5.481-2.807 1.422-3.115 1.595-3.426-4.093-4.982-3.758-.522-3.75-.904-2.89 4.705-.135 3.555-1.79 2.86-4.726.938-5.32.382-1.51 1.203-4.364 1.24-5.164-.682 4.176.892 3.718-4.948.01-3.604 1.977-4.485-4.598-3.882-3-.207-3.742-.15-2.913 4.748.372 3.915-2.919 2.922-5.106.2-5.567.14-1.729 2.026-4.764.916-5.18-.28 2.977 1.25 3.953-4.066.2-3.747.96-3.423-4.44-3.838-3.248.05-2.976-.716-3.138 4.347.196 3.558.206 1.387-2.417 2.715-4.03 1.374-1.184.69-2.48 1.76-4.02.174 2.346-.4 2.732-4.613-1.056-3.703.18-2.587-1.217-2.727-2.944-2.07l-2.766-3.98zm-44.586 6.351c-.206.482-.553.81-.47 1.178.065.301.357.72.763 1.285 3.233 4.478 9.79 4.328 11.761-.288.402-.858.32-1.052-.164-1.782-.584-.88.076-1.82.792-1.74 1.068.118 1.253 1.107.74 1.811-1.117 1.493 1.948 4.87 5.01 5.4 3.921.68 7.641-2.25 7.123-4.877l-.132-.449c-.418-2.2 2.865-1.145 1.683.256-.444.507-.684.658-.623 1.215.953 4.654 6.28 5.142 8.816 3.707-3.272 5.67-8.458 1.3-9.37-2.662-4.596 7.05-10.118 5.584-13.195-.612.364.387-6.062 11.105-13.355.115-3.088 8.845-8.717 2.866-8.33 2.503 2.585 1.53 7.281.977 7.734-3.754.062-.584-.355-.62-.596-1.082-1.223-2.338 2.723-2.355 1.813-.222zm-12.152.582c.585.058.682.317.585.948zm50.153 1.663-.847 1.13c-.2-.553-.207-1.06.847-1.13zm9.214.374c-2.01.09-3.563 3.042-3.462 6.978.05 1.908.365 6.698.488 7.41.172.996-.016 2.346-.345 2.49-.87.375-1.198.617-1.433 1.06-.61 1.146-.105 2.441 1.182 3.021.92.415 2.084-.158 2.872-1.408.44-.693.541-1.002.928-2.747.178-.803.162-2.136-.042-3.359-.463-2.78-.119-6.244.781-7.87 1.613-2.917 1.584-4.827-.083-5.429a2.286 2.286 0 0 0-.886-.144zm-.105.445c2.34.01 2.277 2.488.98 3.25-.502.24-1.117.296-1.733-.132-.69-.425-.596.06.12.61.84.648 1.197.608.745 2.127-.42 1.414-.64 4.47-.41 6.207.63 4.751.097 7.12-1.786 7.944-.927.406-1.929-.166-2.186-.958-.403-1.239.315-2.302 2.086-2.005 0 0 .124-.394-.336-4.518-.64-5.736-.388-9.74.604-11.14.53-.748 1.213-1.388 1.916-1.385zm15.873 5.914c-.547.005-1.136.163-1.736.523 0 0-.065 2.58-.136 2.97-.398 2.182-.28 2.441.676 2.751 2.323.75 4.23-.886 4.145-3.452-.048-1.442-1.308-2.807-2.95-2.792zm.314.345c1.27-.04 2.422 1.536 2.297 3.022-.067 1.778-1.668 2.748-3.103 2.436-.425-.068-.864-.153-1-.492-.288-.47.175-.642 1.14-.637 1.056.005 1.252-.15 1.603-.778.695-1.246-.195-2.825-1.328-2.529-.387.101-.444.287.01.422 1.39.665.872 1.594.39 1.97-.573.448-1.52-.166-1.683-.537l.097-2.407s.46-.457 1.576-.47zm-14.314 11.155s-.53.27-.785.518c-.56.55-.679 1.385-.404 2.204.122.362.102.424-.325 1.014-1.215 1.683-1.372 2.523-.749 4.04.283.69.285.69.018 1.6-1.147 3.908-3.408 8.336-5.822 11.403a3.323 3.323 0 0 0-.523.96s.565-.03.88-.198c2.493-1.318 5.128-3.872 7.578-5.547-3.874 3.34-8 6.326-8 6.326l5.27.3c-1.323 1.441-24.436 22.246-18.298 59.562 7.215-1.906 10.572-5.068 14.418-8.725.036 3.007.098 11.1.122 11.1.073-.134-3.339-1.366-2.528 1.618.483 1.637.727 5.78-.129 8.118l.328.35c-.046.105-.547.106-.547.106-1.31 2.596-4.684 3.165-6.347 3.086-.614-.06-.366.832-.285 1.155.31 1.336 1.76 4.198 4.467 8.795l.71.1-.41.404c.32.62 1.173 1.782 1.173 1.782l.038.395s1.485 2.196 2.282 3.228l.234-.027c.441.565.972 1.198 1.422 1.76l-.034.246c.847.98 2.512 2.962 2.512 2.962l.33-.084 1.31 1.566c10.858-5.245 22.205-16.85 22.087-16.824l.093-24.975-12.857-.04-.055-33.085 12.843 13.488-.084-3.87c-2.913-2.943-14.62-15.492-14.62-15.492 1.704-.252 3.354-.84 4.953-1.763 2.793 1.632 5.78 2.613 9.2 2.13l-.014-3.67c-3.884-.008-6.293-1.375-8.036-3.027l-2.398-.085c-4.43 3.58-7.563 1.918-10.932 1.215l-2.329-3.562 23.855-.13-.17-8.647-3.623.085-2.353-1.848 2.73 1.226s-.044-.477-.59-1.382c-1.47-2.552-3.336-6.308-4.455-9.584-.542-1.664-.54-1.596-.084-2.57.627-1.34.492-2.96-.335-3.874-.582-.643-.563-.78-.373-1.259.775-1.897-1.094-2.595-1.1-2.474-3.997 1.636-9.356-.049-9.26-.1zm9.294.688c.798-.007.885.365.882.997-.068 1.157-1.486 1.575-2.126 1.737-3.066.745-8.41.304-8.757-1.215-.255-1.116.4-1.735 2.576-1.18 3.498.797 5.663-.06 7.426-.338zm-9.894 3.223c.318-.003.7.341.81.903.092.48-.378 1.893-.77 2.218-.976.807-1.856-.447-1.205-1.81.375-.787.756-1.31 1.164-1.31zm10.458.16c.146.003.406.035.576.162.772.58.843 2.587.121 2.877-.735.296-1.417-.518-1.412-1.796.004-.783.28-1.256.715-1.244zm-2.45.413a1.01 1.01 0 0 1 .494.111c.643.315.955 2.421.317 3.092-.494.521-1.558.493-1.868-.588-.37-1.292.208-2.57 1.056-2.615zm-5.435.06c.942.007 1.156 2.231.234 3.147-.772.767-1.949.012-1.58-1.507.184-.76.608-1.587 1.346-1.64zm2.677.355c1.38.25 1.262 3.835-.543 3.478-1.029-.762-1-3.425.543-3.478zm-6.027 3.84 1.948.194s-2.522 5.798-4.828 8.014c-.862.928-1.36.967-.705-.022 1.446-1.898 3.584-8.185 3.584-8.185zm11.681.038c1.14 3.224 2.306 6.496 3.86 9.792-2.36-2.417-4.452-6.133-6.38-9.622zm-9.16.311 1.29.015c.43 2.088 1.172 3.42 2.045 4.563.756-1.357 1.234-2.847 1.698-4.437l1.025-.015c.393.25-1.206 6.541-2.77 7.307-1.659-1.43-3.057-5.296-3.288-7.433zm-.545 1.49c-.108.15 2.004 5.54 3.79 7.27 1.683-1.737 2.757-4.024 3.478-6.75l5.54 8.26-5.4-3.927c-1.08 1.903-2.224 3.718-3.598 5.23-1.482-1.703-2.765-3.724-4.11-5.645-2.083 1.64-3.545 3.392-6.25 4.922.011.064 5.3-6.06 6.55-9.362zm-.52 5.87 3.77 4.891-10.033-.152zm8.162.077 6.33 4.63-9.433.103zm-50.44 2.277s.053.294.115.47c1.124 4.87 4.223 8.918 8.886 8.437L71.751 88.226s-2.53-9.124-7.66-18.477c0 0 .937.205 1.667.356.685.11 1.205.076 1.72-.066.391-.062.691-.335 1.041-.415.59-.132 1.333.094 1.725.24 1.053.212 1.77-.414 3.09-1.65.35-.33.484-.25.926-.249 1.652.004 2.706-1.5 2.52-3.837l-.083-1.037-.21 1.166c-.394 2.2-.67 3.148-2.719 3.24-.496.023-.683.378-1.467 1.093-1.1 1.002-1.875 1.088-2.653.696-.795-.4-.869-.164-1.618.215-.859.434-2.108.383-3.235.04-1.573-.478-1.38-.318-1.38-.318 9.108 17.223 12.31 33.742 12.107 48.416-.288 20.908-7.173 37.783-13.213 47.956 0 0 1.036-.11 1.96-.256.445-.13.787-.004 1.227.16.41.153.72.145 1.122.095.314-.038 1.082.007 1.576.081 1.12.171 1.195.015 2.416-1.244 3.464-3.574 3.238-3.44 5.748-3.355 3.766.13 6.777 2.77 8.032 7.048.16.54.366 1.3.395 1.3l-.244-1.134c-1.103-5.737-5.72-7.836-9.576-7.759L91.238 143.2c-.083.016 3.771 13.187 7.13 19.058.004.04-1.02-.468-2.89-.21-1.019.14-2.158-.003-2.798-.119-.822-.022-1.324.236-2.349 1.133-.426.388-.81.812-1.642 1.185-1.979.888-2.768 1.806-2.778 4.11-.002.42-.062.956-.056 1.164l.01.154c.033 0 .08-.086.12-.146.098-.154.297-.57.451-1.536.275-1.724.616-2.327 2.153-3.09.46-.23 1.432-.855 1.863-1.22 1.417-1.2 1.89-1.473 3.04-1.19.653.163 1.21.246 2.087.133 1.043-.134 1.105-.19 2.221.115a37.15 37.15 0 0 0 1.695.408c-15.77-33.646-15.25-64.837.315-96.484 0 0-4.608.058-4.803.185-.074.048-.634-.005-1.245-.122-1.254-.24-.98-.08-3.94 3.08-3.658 3.908-9.51.791-11.273-5.766a3.027 3.027 0 0 0-.31-.792 1.746 1.746 0 0 0-.16-.207zm14.91 3.848c.677.077 1.182.266 1.098.94L72.364 90.427l-.339-1.455zm4.58.137c-.267.56-.993 1.263-1.31 1.793l1.181 1.563-.655 1.26-1.817-1.622-3.458 3.625 2.883 3.437-2.73 2.925-.91-1.092 1.443-1.604-2.24-2.229-3.95 4.078 3.216 3.473-2.36 2.404-.94-.948 1.237-1.452-2.098-2.303-3.678 3.985 2.91 3.44-2.248 2.37-.997-1.073 1.08-1.196-2.082-2.315-3.747 3.926 3.04 3.504-2.235 2.122-.787-.885 1.08-1.233-2.042-2.322-2.325 2.24-.387-1.536 23.001-24.272zm1.325.36-.97 2.067-.749-.874.976-1.067zm-54.25.133c-.596.154-14.292 8.258-22.088 17.155l-.024 3.314-.29.396.14 5.13.195.273.066 2.093-.31.552-.004 5.744.415.074.066 7.03 12.807.036-.014 33.583s-7.52-8.782-12.936-13.966l.021 3.926 14.327 15.725c-.985.147-2.267.4-4.2 1.532-4.649-3.084-10.023-2.14-10.023-2.14l.022 4c3.417-.35 6.5.146 10.092 2.715 2.957-2.13 6.52-3.425 11.832-1.733 1.17 1.966 2.337 3.995 3.506 5.314l-25.367.2.031 8.1c1.125.024 3.94 0 3.94 0 1.426 2.97 4.23 7.024 5.395 12.124-1.599 2.04-1.47 3.68.084 5.735-.014.926-.276 1.95.704 2.981 3.227-1.676 6.872-.932 9.583-.076.92.29 1.266-.822 1.235-2.222-.082-.802-.078-1.144.502-1.678 1.38-1.27.523-3.882.307-3.94-.08-2.29 6.827-13.76 6.832-13.55l-1.377.53-5.905.028c15.532-15.91 22.024-34.059 20.665-54.553-.303-5.163-1.06-7.529-1.06-7.529-5.47 2.582-9.967 4.46-14.334 9.43l-.29-10.68c.243.505 1.865.971 2.59.325.497-.346.547-.715.088-2.01-.667-1.883-.826-5.919-.328-7.29.058-.16.108-.585.15-1.003.057-.562-.06-.594-.108-.585.127-.033.662.082.725.022 1.867-1.744 3.868-2.834 6.324-2.948l.063-1.274c-1.822-4.885-3.364-6.8-5.013-9.532 0 0-.468-.165-.764-.1l.38-.426c-2.314-3.9-5.607-7.45-8.635-10.822zm-.102.663 1.642 1.61c-7.835 4.002-15.565 9.865-23.179 17.815l.104-2.923c8.605-8.595 15.096-12.725 21.433-16.502zm50.321 2.922.987 1.044-1.367 1.685.89.963-.496 1.285-2.273-2.508zm-48.916.133c.516 0 .934.445.934.993s-.418.992-.934.992-.934-.444-.934-.992.418-.993.934-.993zm67.05 1.371c15.973 18.886 7.77 46.333-13.55 52.926l-.237-1.55c21.51-7.698 26.557-33.45 12.598-49.639zm-64.282.126 1.018 1.252c-9.107 4.618-17.99 11.54-26.574 21.528l-.084-2.522c8.063-9.005 16.684-15.519 25.64-20.258zm-5.876.386c.516 0 .935.444.935.992s-.419.993-.935.993c-.515 0-.934-.445-.934-.993s.42-.992.934-.992zm-2.844 1.866c.516 0 .934.444.934.993 0 .548-.418.992-.934.992s-.934-.444-.934-.992c0-.549.418-.993.934-.993zm9.472.652c.516 0 .934.444.934.992 0 .55-.418.993-.934.993s-.935-.444-.935-.993c0-.548.42-.992.935-.992zm40.574.685.934 1.048-1.482 1.577 2.11 2.341 2.028-2.074-1.018 3.09-17.887 18.99-.373-1.992 1.41-1.503-2.159-2.288-.38-1.526 2.123-2.11.89.97-1.242 1.52 1.997 2.09 3.63-3.548-2.995-3.492 2.472-2.54.854.884-1.18 1.293 2.08 2.396 3.723-3.789-3.057-3.432 2.458-2.574.93.944-1.237 1.577 2.116 2.174 3.646-3.826-2.998-3.348zm-52.835.667c.516 0 .934.444.934.992s-.418.993-.934.993-.934-.445-.934-.993.418-.992.934-.992zm14.732.192.71 1.256c-10.84 5.818-18.337 11.645-29.432 25.035v-1.685c8.566-11.17 17.471-18.374 28.723-24.606zm-5.446.15c.516 0 .934.443.934.991s-.418.993-.934.993-.934-.445-.934-.993.418-.992.934-.992zm83.878.38c1.913 1.807 5.93 3.61 8.516 3.418l.07 2.174c-4.514.455-8.458-2.615-8.458-2.615-3.477 2.252-7.016 2.537-10.705 1.56l-1.419-3.23c5.472 2.695 10.604.124 11.996-1.307zm-21.603.59c.2.391.875.847.875.847 4.21-1.165 5.523 3.447 3.56 6.081l.56 1.933c.752.145 1.411.425 1.946.82 1.025.753 1.588 2.06 1.46 3.432.144 1.486-1.95 2.87-2.063 2.766l-.028 2.126c.59.52 1.298 1.025 1.75 1.763 1.007 1.795.607 3.603-.944 4.74-.924.663-1.926.75-1.966.682l-.973 2.414c.857.514 1.097 1.388 1.231 2.011.29 1.354-.603 3.116-1.725 3.767-1.418.822-3.348.091-3.347.093l-1.38 1.466c.355 1.271.452 2.03.264 2.774-.465 1.845-2.285 2.57-3.747 2.43-1.148-.109-2.012-1-2.012-1l-1.53.622c.043 0 .023 2.06-.749 2.69-.243.266-1.105.86-1.105.86l-.202-1.419c.606-.464.983-1.589.86-2.41l3.306-1.72c0 .127.904 1.06 1.523 1.192 1.27.275 2.594-.777 2.597-2.014.002-.722-.39-1.213-.502-1.797l2.807-3.085c1.16.424 1.976.496 2.496.178.98-.6 1.245-1.842 1.056-2.589-.223-.882-.964-1.453-1.014-1.536l1.565-4.204c.73-.003 1.181-.125 1.75-.518 1.16-.81 1.011-2.383.516-3.13-.6-.909-1.475-1.077-1.544-1.055l.116-4.366c0 .035 1.583-.808 1.753-1.782.25-1.434-.319-2.346-1.977-2.752-.92-.225-.87-.037-.87-.037l-1.312-3.95c2.077-1.347 1.418-3.486.366-4.205-1.11-.757-2.677-.055-2.677-.055s-.714-.752-1.255-1.359zm-55.588.8c1.365 1.95 3.676 5.855 4.968 9.35.056.153.027.926.027.926-3.685.34-4.95 1.875-6.26 2.955-1.016-.553-1.444-1.203-3.28.02-.007.057-4.684-3.006-5.579-7.164 3.344-2.189 6.53-4.273 10.124-6.089zm-18.71.024c.516 0 .935.445.935.993s-.419.992-.935.992-.934-.444-.934-.992.418-.993.934-.993zm8.86.197c.514 0 .933.444.933.992s-.419.993-.934.993c-.516 0-.935-.445-.935-.993s.42-.992.935-.992zm63.933 1.218c1.61 2.252 4.038 6.51 4.615 10.281.812 5.304.272 10.868-2.018 14.76-4.154 8.31-11.357 10.08-11.36 10.37l-.074-1.705c.067.383 5.505-2.05 9.206-7.544 2.285-3.723 3.583-9.044 3.142-13.196-.275-5.983-4.272-11.5-4.305-11.52zm-75.707.811c.516 0 .934.445.934.993s-.418.992-.934.992-.934-.444-.934-.992.418-.993.934-.993zm8.847.015c.516 0 .934.444.934.992 0 .55-.418.993-.934.993s-.934-.444-.934-.993c0-.548.418-.992.934-.992zm79.768 1.674c2.074.238 4.61 4.231 6.917 6.511l.024 32.553-6.892.148c-.898 2.29-2.98 4.554-6.296 6.79l-.003-12.2c11.31-12.87 8.232-26.959 6.25-33.8zm-91.153.37c.516 0 .934.445.934.993s-.418.992-.934.992-.934-.444-.934-.992.418-.993.934-.993zm8.516.178c.516 0 .935.444.935.993 0 .548-.419.992-.935.992s-.934-.444-.934-.992c0-.549.418-.993.934-.993zm87.496.078L139.12 98.76l-.049 2.215-15.879-17.14zm-82.33 1.418.373 1.896c-.455-.76-.473-1.04-1.262-1.174zm-7.627.552c.516 0 .934.445.934.993s-.418.992-.934.992-.934-.444-.934-.992.418-.993.934-.993zm-8.44.278c.516 0 .934.444.934.992s-.418.993-.934.993-.934-.445-.934-.993.418-.992.934-.992zm79.276 0 2.782 2.092-.907 3.774-2.848-2.718zm-64.286.307.495.311-.576 2.582-6.404 2.455c2.06-1.868 4.176-3.904 6.484-5.348zm1.05 1.2c.455 1.913 1.442 4.742 2.653 7.14-.822.45-3.776 2.226-3.77 3.052.418 1.497 3.54 2.87 3.54 2.87a38.676 38.676 0 0 0-3.229 7.203c-.534-.964-.596-4.769.554-6.35-1.133-.476-2.684-1.56-3.863-2.682.76-2.857 4-4.564 4.142-4.585-.057.144-.957-5.968-.028-6.647zm-10.396.481c.516 0 .934.444.934.993 0 .548-.418.992-.934.992s-.935-.444-.935-.992c0-.549.42-.993.935-.993zm71.324.081c4.157 8.227 1.684 15.374-4.946 20.495l.153-1.94c4.575-3.527 7.54-10.468 4.197-17.088zm-79.217.237c.516 0 .935.444.935.993 0 .548-.419.992-.935.992s-.934-.444-.934-.992c0-.549.418-.993.934-.993zm66.496.052c-3.05 12.08-2.974 17.616-3.329 20.892l-11.842.107-.46-4.355zm-47.309.333s2.57 2.533 4.874 4.745l-.276.577-2.24.318c-1.716-3.588-2.358-5.64-2.358-5.64zm-2.126 1.326.018.004.143 1.8c-.77-.03-9.097 3.664-15.496 9.565.954-1.785 2.562-3.496 4.118-4.956 3.308-3.45 11.217-6.414 11.217-6.414zm-11.838.41c.516 0 .934.445.934.993s-.418.993-.934.993-.935-.445-.935-.993.42-.992.935-.992zm5.243 1.13.474.52-2.21 1.214zm15.408.53.094.004c.342.046.484.218.68.392a4.707 4.707 0 0 0-1.263-.126.683.683 0 0 1 .488-.27zm-8.457.374L42 93.722c-4.79 2.894-10.492 5.63-18.786 13.96v-2.772c5.205-5.123 11.276-9.419 18.584-12.532zm6.445.126c.3.078.566.082.837.011 0 0-.174.366-.38.374-.217.01-.457-.385-.457-.385zm2.033.078c.602-.04 1.013.546.892 1.3-.463 2.555-.445 5.143.052 6.952.388 1.41.485 1.904.164 2.14-2.825 2.07-4.374-7.26-2.015-9.907.32-.32.633-.467.907-.485zm-23.068.326c.516 0 .935.445.935.993s-.419.992-.935.992-.934-.444-.934-.992.418-.993.934-.993zm81.18.23 1.757 3.13-2.447 2.91-1.489-3.38zm-60.462 1.7-.09 1.08c-1.263.407-2.363.984-3.309 1.837-.183.167 2.923 1.656 3.25 1.311l-.008 1.152c-.043.378-5.136-1.34-5.48-2.622.578-.853 3.8-2.836 5.637-2.76zm-23.176.573c.516 0 .935.444.935.992 0 .55-.419.993-.935.993s-.934-.444-.934-.993c0-.548.418-.992.934-.992zm13.89 1.14c-.362.73-.897 1.698-1 2.758-3.493 2.25-7.077 4.352-11.436 9.516l-2.35-.015-.052-.655c4.765-4.826 9.924-8.99 14.838-11.604zm9 .312.024 1.36c-.813.01-1.256-.27-1.862-.598.51-.342.906-.682 1.837-.762zm26.288.144.655.73-.408.407zm-35.398 2.825 1.293.856c-3.33 1.845-6.835 4.573-9.868 8.136h-2.563c3.236-3.726 6.722-7.068 11.138-8.992zm68.996.982.258 3.696-3.249 1.892.063-3.9zm-61.787.015 2.235.26.23 1.003c-1.875 1.267-3.503 2.752-5.065 4.296a21.54 21.54 0 0 1 2.6-5.56zm-5.358.396.96.47-.38 1.737c-2.739 1.293-4.92 3.04-7.256 5.392h-2.628c2.302-2.62 6.13-5.919 9.304-7.599zm8.314 1.633.01.004.35 11.392c-9.652 12.004-9.128 23.612-6.314 34.138l-1.84-.089c-2.14-2.824-4.986-5.699-4.986-5.699l-.007-33.139 6.655.026c1.57-3.857 5.885-6.6 6.132-6.633zm-7.857 1.6.08 1.52a19.447 19.447 0 0 0-3.548 2.847h-2.5c1.728-1.708 3.443-3.428 5.968-4.366zm22.691.745.366 1.792c-22.402 8.61-26.45 33.636-13.229 50.816l-.9 1.066c-15.18-17.319-8.518-45.61 13.763-53.674zm-22.512 1.792s.122 1.373.16 1.83h-2.51c.564-.704 1.065-1.433 2.35-1.83zm63.041.574-1.443 3.574-3.852.063 1.75-3.574zm-24.384 2.448h3.51v3.563h-3.51zm-15.193.352.06 1.566c-1.56.844-1.167 2.184-1.559 2.163-.958.257-3.486 1.681-3.486 1.681-.896-.863-2.104-.645-2.667-.226-.779.542-.95 1.803-.728 2.87l-2.68 3.33c-1.296-.589-2.558-.552-3.187.366-.71 1.035-.44 2.32.731 3.76l-1.46 3.98c-.168-.239-2.613.524-2.646 2.067-.035 1.632 2.021 2.697 2.02 2.821l-.099 4.392c-.093-.21-2.098.66-1.827 2.762.25 1.938 2.734 1.702 2.785 1.863l1.35 4.203c-.09-.128-1.829 1.68-.764 3.39.888 1.424 3.466.502 3.444.41l.715 1.07-.79.91s-.343-.434-.535-.395c-1.5.305-3.177-.06-3.98-1.333-1.095-1.796.127-4.6.516-4.578l-.928-2.422c-1.69-.035-3.12-1.638-3.197-2.982-.16-2.812 2.014-3.989 2.018-3.97l.063-2.622c-.133.157-2.147-1.36-2.099-3.103.036-1.273 1.045-2.77 2.287-3.374l.92-.463.84-2.148s-1.189-1.826-.88-3.666c.571-2.787 3.99-2.596 4.531-2.326l1.586-2.11c-.78-1.927.568-4.162 2.332-4.526.784-.134 2.98.418 2.98.418l2.033-1.115c-.035-1.18 1.177-1.948 2.3-2.666zm11.556 3.9h3.008v3.562h-3.008zm8.014 0h3.392v3.562h-3.392zm-19.326.893-.038 1.363c-19.423 10.004-11.48 30.717-8.708 33.127l-.624 1.463c-3.408-2.202-12.194-26.103 9.37-35.953zm14.948 3.607h3.65l.031 3.663h-3.65zm-15.792 1.782-1.158 3.337-3.566.318 1.318-3.33zm72.872 2.44 2.44.015c-4.562 5.668-9.485 9.532-14.345 11.648 0 0-.017-.505.132-.904.12-.317-.073-1.115-.073-1.115 5.402-2.826 9.112-6.109 11.845-9.644zm-12.505.05c-.627.8-1.344 1.507-2.234 2.03l-.352-2.064c.746-.01 2.586.033 2.586.033zm4.296-.046c.246.66-6.404 4.475-6.429 4.15l.017-1.268 3.59-2.83zm1.436 0h.014l1.872.011c-1.69 2.833-10.634 7.978-10.262 7.253l.36-2.072c2.884-1.347 5.5-3.179 8.016-5.193zm3.155 0 2.463.011c-3.706 5-7.465 6.825-11.072 8.976-.216-.034-.119-.12-.794-.1l-1.234-1.022c.23.225 8.288-4.793 10.636-7.866zm-68.923.178-.083 1.51c-5.185 4.737-7.264 10.79-4.567 17.815l-.642 1.5c-2.9-7.496-2.044-14.78 5.292-20.824zm23.608.237.275 4.078-16.095 16.643c2.45-9.299 3.128-14.912 3.786-20.7zm51.541.96.008 2.262c-6.346 7.425-12.742 10.753-18.267 12.1l-.126-.87 2.56-1.676c8.243-3.815 11.854-7.656 15.825-11.817zm-19.258.06c.111 1.635-1.26 4.722-2.826 6.465l-2.683-.007-.297-1.238c2.225-1.274 4.287-3 5.807-5.22zm.81.487c.986 1.686-.493 6.046-.554 5.874-.118.301 8.433 2.22-.352 6.715.191 1.32 1.015 4.14.38 5.88-.198-.667-1.727-5.19-2.908-6.347 2.743-.83 4.718-2.613 4.504-3.2-.446-.836-1.674-1.862-3.74-2.614 1.758-2.594 2.281-4.54 2.67-6.307zm-62.8.826.274 3.436-3.123 1.996-.24-3.773zm54.34 3.192c.243.004.473.07.585.2 1.543.664 1.655 8.66.255 9.474-1.017.68-1.733-.413-1.697-.607.674-3.68.253-5.954-.028-8.525.03-.375.48-.547.885-.542zm26.908.12v2.843c-9.07 9.99-18.844 17.863-28.822 22.284l-.91-1.64c12.118-5.953 22.252-14.446 29.732-23.488zm-1.593.26c-4.202 6.212-9.32 10.268-16.332 12.11l-.133-1.764c8.733-2.108 16.691-10.347 16.464-10.347zM23.43 130.32c5.471 5.943 11.078 11.832 16.65 17.932l-2.215.123-14.502-15.984zm65.14.296.194 1.467-1.593 1.855 2.517 2.874.13.678-2.162 2.4-.976-1.026 1.195-1.426-2.03-2.267-3.76 3.844 3.1 3.574-2.34 2.362-.92-1.01 1.195-1.467-2.078-2.33-3.834 4.051 2.9 3.403-1.934 2.275-.917-1.026.994-1.21-2.102-2.3-3.685 3.77 3.033 3.561-2.464 2.607-.955-.985 1.384-1.6-2.273-2.3-1.823 1.83s.688-1.816.788-2.124c.147-.45.751-.807 4.584-4.825 4.575-4.838 9.268-9.372 13.833-14.658zm26.242.978c1.337.024 3.612.366 4.716.985 2.05 1.15 1.405 2.053.074 2.726-1.592.806-2.898 1.2-4.696 1.255l.052-.937c1.045-.268 2.128-.538 3.05-1.08.635-.375.8-.675.8-.675s-.62-.668-1.605-1.048c-.72-.278-1.75-.276-2.31-.374zm-59.849 1.237 1.684 2.682-1.994 3.551-1.914-3.063zm33.964.29c.06.504.662 2.468.345 2.088l-1.119-1.338zm25.99.262c.93.083 1.91.113 2.59.463-.79.65-1.683.794-2.574.956zm23.36 1.34c.561 0 1.017.485 1.017 1.082 0 .597-.456 1.081-1.018 1.081s-1.018-.484-1.018-1.08c0-.598.456-1.082 1.018-1.082zM85.74 136.6l.868.893-1.122 1.388 2.036 2.278 2.52-2.508.334 1.593-23.614 24.683-1.31-.1 1.502-1.885-1.709-1.855.701-1.334 2.015 1.904 3.692-3.75-2.99-3.345 2.558-2.79.966.886-1.468 1.688 2.137 2.32 3.862-4.038-3.022-3.492 2.413-2.445.885.893-1.122 1.263 2.203 2.437 3.255-3.6-2.962-3.466L81 141.495l.81.86-1.214 1.436 2.213 2.433 3.552-3.877-2.924-3.37zm50.17.645c.563 0 1.02.484 1.02 1.081 0 .598-.457 1.082-1.019 1.082-.562 0-1.018-.484-1.018-1.082 0-.597.456-1.08 1.018-1.08zm-19.194.048c1.604 2 2.57 4.227 2.761 6.622a19.672 19.672 0 0 0-5.048-5.488l.367-1.004zm22.646.163v2.415c-7.155 8.61-15.838 15.1-24.755 19.617l-1.516-1.959c10.545-5.002 18.176-11.213 26.27-20.073zm-10.525 1.684-2.9 2.392-.004-1.037zm-14.948.178c2.47 1.28 4.54 3.444 5.773 6.651-3.372 2.248-7.07 4.07-10.597 5.881-1.694-2.896-3.397-5.61-4.734-9.339 5.438-.042 6.93-3.199 6.968-3.223 1.311.526 1.586.59 2.59.03zm19.54.47c.507.01 1.014.423 1.032 1.04 0 .598-.456 1.082-1.018 1.082-.563 0-1.018-.484-1.018-1.08.11-.747.557-1.05 1.004-1.042zm-7.526.711.006 1.044c-1.388 1.293-4.086 3.385-4.086 3.385l-1.115-.064.362-2.962c1.69-.362 3.327-.886 4.832-1.404zm-71.036.122 2.664 2.326-.817 3.608-2.62-2.115zm35.767.682.247 1.044L69 165.326l-1.244-.215zm40.368.89c.563 0 1.018.483 1.018 1.08 0 .597-.455 1.082-1.018 1.082-.562 0-1.018-.485-1.018-1.082 0-.597.456-1.08 1.018-1.08zm8.08-.008c.12 0 .262-.01.262.11v1.99a.958.958 0 0 1-.34.063c-.563 0-.939-.485-.939-1.082 0-.597.456-1.08 1.018-1.08zm-2.469 2.41c.562 0 1.018.485 1.018 1.082 0 .597-.456 1.081-1.018 1.081s-1.018-.484-1.018-1.08c0-.598.456-1.083 1.018-1.083zm-8.554.011c.563 0 1.018.485 1.018 1.082 0 .597-.455 1.081-1.018 1.081-.562 0-1.017-.484-1.017-1.08 0-.598.455-1.083 1.017-1.083zm-7.358.333 1.045.038-1.945 1.23c.357-.476.69-.839.9-1.268zm18.657.506.014 2.224c-5.005 5.315-11.326 10.83-20.99 16.143l-1.23-1.325c7.88-3.992 15.273-9.586 22.206-17.042zm-14.213 1.213c.562 0 1.018.484 1.018 1.081s-.456 1.082-1.018 1.082-1.018-.485-1.018-1.082c0-.597.456-1.08 1.018-1.08zm9.05.08c.562 0 1.018.485 1.018 1.082 0 .597-.456 1.082-1.018 1.082s-1.018-.485-1.018-1.082c0-.597.456-1.08 1.018-1.08zM32.822 151.08c3.453-2.129 6.23-2.379 10.186-1.737l1.181 2.478c-3.852-.725-7.91-.66-11.382 2.185-3.596-2.414-6.33-3.11-9.282-2.72l-.054-2.61c3.85-.573 7.304.83 9.35 2.403zm89.518-2.355c.562 0 1.018.484 1.018 1.081s-.456 1.082-1.018 1.082c-.563 0-1.018-.485-1.018-1.082 0-.597.455-1.08 1.018-1.08zm9.307.444c.562 0 1.018.484 1.018 1.082 0 .597-.456 1.081-1.018 1.081s-1.018-.484-1.018-1.08c0-.599.456-1.083 1.018-1.083zm-12.368 1.615c.562 0 1.017.484 1.017 1.081 0 .598-.455 1.082-1.017 1.082-.563 0-1.018-.484-1.018-1.082 0-.597.455-1.08 1.018-1.08zm9.49.627c.562 0 1.018.484 1.018 1.081s-.456 1.082-1.018 1.082-1.018-.485-1.018-1.082c0-.597.456-1.08 1.018-1.08zm-12.628 1.284c.57 0 1.032.49 1.032 1.096 0 .606-.462 1.096-1.032 1.096-.57 0-1.032-.49-1.032-1.096 0-.606.462-1.096 1.032-1.096zm9.907.908c.562 0 1.018.484 1.018 1.08 0 .598-.456 1.082-1.018 1.082s-1.018-.484-1.018-1.08c0-.598.456-1.082 1.018-1.082zm-12.922.748c.562 0 1.017.484 1.017 1.081 0 .598-.455 1.082-1.017 1.082-.563 0-1.018-.484-1.018-1.082 0-.597.455-1.08 1.018-1.08zm-45.002.978 2.531 2.463-2.618 2.793-.958-.978 1.457-1.619-.986-1.41zm55.115.24c.563 0 1.018.483 1.018 1.08 0 .598-.455 1.082-1.018 1.082-.562 0-1.017-.484-1.017-1.082 0-.597.455-1.08 1.017-1.08zm-2.93 1.83c.562 0 1.018.484 1.018 1.081s-.456 1.082-1.018 1.082-1.018-.485-1.018-1.082c0-.597.456-1.08 1.018-1.08zm-3.185 1.837c.562 0 1.018.484 1.018 1.081s-.456 1.081-1.018 1.081-1.018-.484-1.018-1.08c0-.598.456-1.082 1.018-1.082zm-52.35 3.06.826.714-1.297 1.66-.99-.016zm-15.99 4.473c-2.886 1.516-4.257 2.477-6.268 4.336l-2.883-4.247zm-19.63.03 7.683.114-2.556 3.84c-1.685-1.886-3.393-3.168-5.127-3.954zm9.15.418c.834.282 3.012 3.58 4.037 5.382 2.185-1.847 4.325-3.909 6.658-5.018-2.775 3.113-5.21 6.333-6.944 9.447-.492-1.404-1.86-5.424-3.59-7.17-2.73 2.71-3.81 5.978-3.81 5.978a51.977 51.977 0 0 0-5.286-7.814c-.34-.486 2.49 1.382 5.292 4.277.788-2.11 2.9-4.998 3.643-5.08zm-9.227 2.074c1.32 1.114 4.908 6.003 5.32 8.944l-1.718.114c-.914-3.02-2.45-6.038-3.602-9.059zm19.107.5c-1.299 2.83-2.91 5.722-4.068 8.855l-1.697-.078c1.86-4.317 2.537-5.108 5.765-8.778zm-9.736 1.26.042.01c1.613 2.34 2.375 4.613 2.855 7.381l-1.248-.052s-.87-2.778-1.468-3.759c-.387-.6-.696-.523-.969-.026-.615 1.175-.846 2.351-1.192 3.63l-1.437-.11c-.265-2.098 2.913-7.02 3.417-7.074zm-.227 8.062c.583.008 1.194.68 1.19 1.86.044.554-.36 1.78-.8 1.843-.813.458-1.776-.967-1.533-2.156.206-1.013.628-1.554 1.143-1.547zm-2.826.224c1.153.11 1.402 2.856.934 3.418-.536.565-1.956.164-2.09-.815-.463-1.247.38-2.59 1.156-2.603zm5.685-.017c1.255.187.94 3.204.29 3.647-1.01.567-1.78-.382-1.438-1.799.274-1.142.684-1.82 1.148-1.848zm2.904.5c1.438.17.607 2.826-.022 3.367-.912.756-1.793-.374-1.356-1.723.34-1.045.904-1.652 1.377-1.644zm-11.61.081c1.045.178 1.651 2.694 1.03 3.412-.327.412-1.273-.19-1.705-.879-.52-.828-.032-2.537.674-2.533zm11.138 5.48c.124 1.32-.813 1.32-3.516.676-1.365-.326-3.784-.12-5.02.118-2.08.4-2.374.248-2.37-.652.004-1.044 1.17-1.636 3.868-1.724 1.931-.064 6.738-.084 7.038 1.58zm4.202-.776c-3.218.322-4.074 4.605-3.72 6.188.283 2.646.163 5.416-.316 7.236-.344 1.308-.65 2.7-1.203 3.885-.847 1.79-.628 3.12.627 3.833 1.031.587 2.3.386 3.096-.522 1.438-1.64 1.61-5.125.73-13.029-.313-2.788-.145-3.345 1.13-3.188 2.672-.022 2.565-4.4-.343-4.404zm-.387 3.6c-.72-.296-1.207.4-1.112 2.13.025.767.153 1.63.245 2.317 1.04 7.583.65 12.663-1.54 12.914-1.91.325-3.2-1.168-2.27-2.71.527-.875.981-.994 2.007-.535 1.41.93 1.057-.424-.212-1.422-.815-.612-.877-.612-.44-2.526.59-2.58.79-4.423.572-7.688-.304-2.31.422-5.374 3.19-5.554 2.798-.09 1.954 4.132-.44 3.073zm-19.755 9.988c.91.467 1.797.387 2.663.008.34-1.612.36-2.954 1.38-5.146-1.7-1.809-4.564-1.098-5.37.798-.806 1.896-.056 3.631 1.328 4.34zm2.73-5.597c1.03.233.876 1.384-.094 1.008-2.314-1.157-4.2 2.326-2.333 3.637.953.566 1.374.24.43-.537-.389-.473-.29-.666-.057-1.14.485-.958 2.247-.803 2.123-.108-.4 2.205-.666 2.842-1.29 2.848-3.592.196-4.27-6.948 1.22-5.708zm30.52 3.967s-10.704 12.856-15.859 19.44l64.614-.318-12.295-18.02c-10.548 2.586-22.94 1.84-36.46-1.1zm-.32 4.108c1.613.02 3.45 1.264 5.036 5.414.086.04 7.107-11.326 13.184.44.993-2.64 6.718-9.53 13.335-.689 2.35-5.917 7.77-3.915 8.28-1.852-.115-.444-5.166-1.718-7.354 2.204-.404.83-.424 1.618.04 2.085 1.091 1.1-.098 2.678-1.342 1.78-.485-.349-.547-1.083-.175-1.613 1.1-.87-1.15-3.575-3.002-4.55-2.539-1.336-6.08-.746-7.783 1.172-.915 1.031-1.475 1.957-1.609 2.698-.07.343-.027.523.164.752.74.947.252 2.242-.747 2.085-1.31-.206-1.134-1.506-.259-2.217.27-.14.167-.307.086-.55-2.39-7.15-11.298-5.789-12.26-.837-.037.18-.113.37-.074.554.1.473.36.873.26 1.246-.408 1.52-2.199 1.084-2.28-.176-.036-.573.546-.745.83-1.268.171-.328.25-.73.086-1.093-2.415-5.373-6.558-4.249-8.614-3.035-.044.026 1.838-2.579 4.197-2.552zm-2.678 3.115c.882-.034 1.686.428 2.436 1.352 2.53-1.422 4.33 1.04 4.03 1.277-3.583-2.47-4.745 3.286-1.215 3.068-1.552 3.41 3.988 4.87 3.367.513 3.42 1.267 3.983-3.72.52-3.644 1.12-2.059 4.023-1.492 5.252-.202 1.444-1.874 4.992-.088 5.344 1.514-3.978-2.165-4.379 4.453-.526 3.045-1.14 4.212 4.985 3.612 3.29-.019 3.816 1.333 3.297-4.724-.452-3.496-.227-.314 2.964-3.815 5.285-.526.314-.58 3.937-2.477 5.92.504-4.297-1.544-3.484 4.6-.406 3.377-.823 4.07 4.731 3.41 3.313-.059 4.303 1.156 2.397-5.809-.627-3.237.493-2.8 4.11-1.64 4.07-1.207 0-.002 1.922-2.207 4.073-.593-3.36.3-2.218 5.115.958 3.744-.034 1.635 1.245 2.718 2.974 2.163l2.715 4.033-61.94.415 4.948-6.265c1.655 1.453 3.371.766 3.582-1.513 3.602 2.347 4.538-3.228 1.158-3.469.686-.496 1.327-.75 1.931-.774zm-3.462 1.81c.214.161-.077.936-.55.712zm48.295 1.62.498.74c.09.25-.965-.132-.498-.74z"/><path d="M50.422 24.796c-7.444 0-8.438 7.472-8.438 7.472s-.994-7.472-8.44-7.472c-5.212 0-9.928 3.35-9.928 9.67 0 8.35 15.106 16.749 18.368 29.01 3.105-12.253 18.369-20.66 18.369-29.01 0-6.32-4.716-9.67-9.928-9.67zM111.485 207.493c7.446 0 8.44-7.472 8.44-7.472s.995 7.472 8.44 7.472c5.213 0 9.929-3.353 9.929-9.67 0-8.35-15.108-16.749-18.369-29.01-3.104 12.25-18.368 20.66-18.368 29.01 0 6.317 4.716 9.67 9.928 9.67z" style="fill:#df0000;fill-opacity:1;stroke-width:2.22126"/></svg>