<?xml version="1.0" encoding="UTF-8"?>
<svg width="222.78" height="323.56" version="1.1" viewBox="0 0 167.09 242.67" xmlns="http://www.w3.org/2000/svg"><text x="8.775" y="28.013" fill="#df0000" font-family="Bitstream Vera Sans" font-size="32px" font-weight="400" letter-spacing="0" word-spacing="0" style="line-height:125%" xml:space="preserve"><tspan x="8.775" y="28.013" fill="#df0000" font-family="Arial" font-weight="400">5</tspan></text><path transform="matrix(1.6743 0 0 1.567 17.178 46.385)" d="M3.676-9C.433-9 0-5.523 0-5.523S-.433-9-3.676-9C-5.946-9-8-7.441-8-4.5-8-.614-1.42 3.294 0 9 1.352 3.299 8-.614 8-4.5 8-7.441 5.946-9 3.676-9z" fill="#df0000"/><text transform="scale(-1)" x="-158.818" y="-213.515" fill="#df0000" font-family="Bitstream Vera Sans" font-size="32px" font-weight="400" letter-spacing="0" word-spacing="0" style="line-height:125%" xml:space="preserve"><tspan x="-158.818" y="-213.515" fill="#df0000" font-family="Arial" font-weight="400">5</tspan></text><path transform="matrix(-1.6743 0 0 -1.567 150.16 195.14)" d="M3.676-9C.433-9 0-5.523 0-5.523S-.433-9-3.676-9C-5.946-9-8-7.441-8-4.5-8-.614-1.42 3.294 0 9 1.352 3.299 8-.614 8-4.5 8-7.441 5.946-9 3.676-9z" fill="#df0000"/><path transform="matrix(2.779 0 0 2.6009 56.112 64.86)" d="M3.676-9C.433-9 0-5.523 0-5.523S-.433-9-3.676-9C-5.946-9-8-7.441-8-4.5-8-.614-1.42 3.294 0 9 1.352 3.299 8-.614 8-4.5 8-7.441 5.946-9 3.676-9z" fill="#df0000"/><path transform="matrix(-2.779 0 0 -2.6009 56.112 177.26)" d="M3.676-9C.433-9 0-5.523 0-5.523S-.433-9-3.676-9C-5.946-9-8-7.441-8-4.5-8-.614-1.42 3.294 0 9 1.352 3.299 8-.614 8-4.5 8-7.441 5.946-9 3.676-9z" fill="#df0000"/><path transform="matrix(2.779 0 0 2.6009 110.7 65.132)" d="M3.676-9C.433-9 0-5.523 0-5.523S-.433-9-3.676-9C-5.946-9-8-7.441-8-4.5-8-.614-1.42 3.294 0 9 1.352 3.299 8-.614 8-4.5 8-7.441 5.946-9 3.676-9z" fill="#df0000"/><path transform="matrix(-2.779 0 0 -2.6009 110.7 177.54)" d="M3.676-9C.433-9 0-5.523 0-5.523S-.433-9-3.676-9C-5.946-9-8-7.441-8-4.5-8-.614-1.42 3.294 0 9 1.352 3.299 8-.614 8-4.5 8-7.441 5.946-9 3.676-9z" fill="#df0000"/><path transform="matrix(2.779 0 0 2.6009 83.213 125.05)" d="M3.676-9C.433-9 0-5.523 0-5.523S-.433-9-3.676-9C-5.946-9-8-7.441-8-4.5-8-.614-1.42 3.294 0 9 1.352 3.299 8-.614 8-4.5 8-7.441 5.946-9 3.676-9z" fill="#df0000"/></svg>
