<?xml version="1.0" encoding="UTF-8"?>
<svg width="222.78" height="323.56" version="1.1" viewBox="0 0 167.09 242.67" xmlns="http://www.w3.org/2000/svg"><text x="6.246" y="28.013" style="fill:#df0000;font-family:Bitstream Vera Sans;font-size:32px;font-weight:400;letter-spacing:0;line-height:125%;word-spacing:0" xml:space="preserve"><tspan x="6.246" y="28.013" style="fill:#df0000;font-family:Arial;font-weight:400">A</tspan></text><g style="fill:#df0000"><path transform="matrix(6.8256 0 0 6.3881 83.142 122.27)" d="M3.676-9C.433-9 0-5.523 0-5.523S-.433-9-3.676-9C-5.946-9-8-7.441-8-4.5-8-.614-1.42 3.294 0 9 1.352 3.299 8-.614 8-4.5 8-7.441 5.946-9 3.676-9z" style="fill:#df0000"/></g><path transform="matrix(1.6743 0 0 1.567 17.178 46.385)" d="M3.676-9C.433-9 0-5.523 0-5.523S-.433-9-3.676-9C-5.946-9-8-7.441-8-4.5-8-.614-1.42 3.294 0 9 1.352 3.299 8-.614 8-4.5 8-7.441 5.946-9 3.676-9z" style="fill:#df0000"/><text transform="scale(-1)" x="-161.088" y="-213.515" style="fill:#df0000;font-family:Bitstream Vera Sans;font-size:32px;font-weight:400;letter-spacing:0;line-height:125%;word-spacing:0" xml:space="preserve"><tspan x="-161.088" y="-213.515" style="fill:#df0000;font-family:Arial;font-weight:400">A</tspan></text><path transform="matrix(-1.6743 0 0 -1.567 150.16 195.14)" d="M3.676-9C.433-9 0-5.523 0-5.523S-.433-9-3.676-9C-5.946-9-8-7.441-8-4.5-8-.614-1.42 3.294 0 9 1.352 3.299 8-.614 8-4.5 8-7.441 5.946-9 3.676-9z" style="fill:#df0000"/></svg>
