<?xml version="1.0" encoding="UTF-8"?>
<svg width="222.78" height="323.56" version="1.1" viewBox="0 0 167.09 242.67" xml:space="preserve" xmlns="http://www.w3.org/2000/svg"><g fill="#df0000"><text x="0.20087315" y="24.899" font-family="'Bitstream Vera Sans'" font-size="28.704px" font-weight="400" letter-spacing="0" word-spacing="0" style="line-height:125%" xml:space="preserve"><tspan x="0.20087315" y="24.899" fill="#df0000" font-family="Arial" font-weight="400">Q</tspan></text><path d="m57.092 25.969c-7.9791 0-9.0445 8.0066-9.0445 8.0066s-1.0654-8.0066-9.0445-8.0066c-5.5852 0-10.639 3.5899-10.639 10.362 0 8.9484 16.19 17.947 19.683 31.087 3.3265-13.128 19.683-22.138 19.683-31.087 0-6.7723-5.0537-10.362-10.639-10.362z" stroke-width="2.3803"/><path d="m15.398 28.112c-3.6068 0-4.0884 3.6192-4.0884 3.6192s-0.48157-3.6192-4.0884-3.6192c-2.5246 0-4.8091 1.6228-4.8091 4.684 0 4.0449 7.3181 8.1128 8.8974 14.052 1.5037-5.9342 8.8974-10.007 8.8974-14.052 0-3.0613-2.2844-4.684-4.8091-4.684z" stroke-width="1.076"/><text transform="scale(-1)" x="-166.86687" y="-217.58299" font-family="'Bitstream Vera Sans'" font-size="28.704px" font-weight="400" letter-spacing="0" word-spacing="0" style="line-height:125%" xml:space="preserve"><tspan x="-166.86687" y="-217.58299" fill="#df0000" font-family="Arial" font-weight="400">Q</tspan></text><path d="m110.09 218.91c7.9791 0 9.0445-8.0066 9.0445-8.0066s1.0654 8.0066 9.0445 8.0066c5.5852 0 10.639-3.5899 10.639-10.362 0-8.9484-16.19-17.947-19.683-31.087-3.3265 13.128-19.683 22.138-19.683 31.087 0 6.7723 5.0537 10.362 10.639 10.362z" stroke-width="2.3803"/><path d="m151.67 214.37c3.6068 0 4.0884-3.6192 4.0884-3.6192s0.48158 3.6192 4.0884 3.6192c2.5246 0 4.8091-1.6228 4.8091-4.684 0-4.0449-7.3181-8.1128-8.8974-14.052-1.5037 5.9342-8.8974 10.007-8.8974 14.052 0 3.0613 2.2844 4.684 4.8091 4.684z" stroke-width="1.076"/></g><g stroke-width=".74644"><path d="m141.81 21.037-117.39 0.063472 0.70687 202.67 117.81-0.26472c-0.91203-67.574-0.99841-135.02-1.1258-202.47zm-13.85 1.706 12.381 0.06734v77.988s-0.77166-0.024-0.69967-0.56969c0.0957-0.73147-9e-3 -2.0992-0.48517-2.6743-0.20083-0.24228-0.52907-0.62388-0.65792-0.90176-0.32537-0.69741-0.8602-1.4188-1.2885-1.6131-0.21307-0.09676-0.45997-0.15094-0.49164-0.30884-0.0302-0.14707-0.0993-0.63316-0.19076-1.0806-0.22747-1.1193-0.43046-1.0844 0.23179-2.1975 2.2948-3.8586 3.178-7.4091 2.8887-10.929-0.0907-1.0991-0.34695-2.5234-0.46789-2.7192-2.2178 2.3902-3.8237 5.3432-5.3325 7.5252-0.33616-3.1178-0.28793-5.4701-0.33688-7.9695 1.1841-0.36302 1.9011-1.0411 2.4107-2.7749 0 0 1.2698 1.0689 2.0472 0.91646l-0.5118-2.0141c3.3962-1.1208 3.8604-5.8866-0.15044-6.8936l0.36135-2.5094s-1.21 0.43578-1.7427 0.71521c-0.26489 0.11998-0.3304 0.02477-0.51611-0.38702-1.8701-3.1287-4.7746-2.463-6.0552 0.62233l-1.5656-0.71521c0.16987 0.85377 0.37215 1.7191 0.2289 2.5737-3.2867 1.5736-2.4748 5.8796 0.14901 6.4447l-0.22891 2.0117 1.9745-0.68502c0.28794 0.9451 0.14037 1.4916 1.7182 2.5551-0.0389 4.2162-0.10222 6.8518 0.0209 10.598-2.0566-2.2648-4.0418-3.8377-7.5208-4.9918 0 0-0.0324 0.90795 0.16988 2.2873 0.0669 0.45514 0.054 0.38857-0.14541 0.38702-0.45205-0.01084-2.4906-3.535-2.4906-3.535s-0.23682 0.0031-0.44341 0.2237c-0.24259 0.2593 0.31168 0.73766 1.0913 1.9815 0.91202 1.4567 0.8242 1.3948 0.10725 2.0489-4.0735 3.7169-9.9574 17.864-8.9691 19.24-2.5748 0.16564-12.613 5.4578-14.435 16.368-0.10797 0.49151-0.32248 1.1286-0.32248 1.1286l-2.9031-0.77482c1.7506-8.9363 5.7018-27.108 5.7018-27.108s2.7778-0.84835 4.4032-1.0357l-0.0173-0.70438-3.8245 0.95749 0.18356-1.5574 3.61-0.76398-0.0101-0.36844-3.8209 0.55112 0.62337-2.5923s-8.5775 1.3546-11.65 1.2555c0.19435 10.082-0.54563 18.457-0.14684 29.322l-4.1937-2.7324c-0.37287-7.5647-0.48516-26.671-0.48516-26.671l-11.579-1.956 0.38439 3.0017c-9.5989-4.0908-19.229-7.855-26.319-15.853 4.365-3.6024 11.65-7.1746 11.65-7.1746l-0.23898-0.57356c-17.912 9.9294-24.565 16.828-33.564 25.386l-0.24258-70.754 48.887-0.02632-0.16268 12.904s-0.06335 0.33438-0.1562 0.45049c-0.59746 3.1256 1.1179 8.6747 0.77238 11.376 0.1598 0.83364 0.10366 2.384 0.10366 2.384-2.9189 4.299-4.4651 8.3798-5.7644 13.377-0.50244 0.21441-1.2431 0.65639-1.7665 0.8081l-0.149 0.68193c1.1452-0.67651 4.3924-1.7803 4.3924-1.7803 14.466 7.5833 25.097 5.7271 36.475 0.09289-1.814 6.8472 2.13 15.554 8.6185 17.385 0.74215 0.20899 2.0134 0.38779 2.7404 0.18267 0.72631-0.22525-1.6355-6.0367-2.6814-6.2542-3.1349-1.4598-4.4255-4.8904-4.0915-8.8248l-0.51972-0.93891c-1.0682 4.7797 1.5023 9.6322 5.0338 10.818l0.94946 2.2277c-6.3993-2.0644-9.1246-8.5075-6.9939-14.878 0.0374-3.9755-2.3582-5.7333-3.4574-7.4463-5.565-2.2826-6.5994-7.8248-5.6262-12.304 2.5907 1.1851-1.7456-3.9337-1.7456-3.9337-1.9083 4.4445-2.7051 10.063 1.6592 15.757-2.8239 4.0227-6.4641 7.2055-10.535 9.9232-5.9487 3.3377-10.412 1.0891-13.285-6.303-1.7254-4.4383-2.3438-8.862-2.3351-13.496 0.01008-2.8686 0.03959-2.9561 1.0394-2.47 0.93866 0.45668 2.9758 0.5217 4.1916-0.15249 1.657-0.91879 1.5786-0.35993-0.22531 1.6355-0.49092 0.5426-1.015 1.0326-1.015 1.1363-0.0022 0.58904 0.77022 0.09289 1.8708-1.0806 0.40167-0.42804 0.69896-0.84061 0.82421-0.83442 0.14397 7e-3 0.13101 0.55886-0.03455 1.1549-0.06335 0.22912-0.26562 1.1959-0.45061 2.1456-0.185 0.94975-0.43766 2.0659-0.56147 2.4808-0.48948 1.6472-0.35632 2.4111 1.1129 3.172 0.77454 0.40095 2.0997 1.7671 2.0882 1.7671 0 0-0.31672-1.4978-0.19939-1.9792 0.14109-0.57898 0.78102-0.16952 1.4332 0.16564 1.4418 0.74076 2.2804 0.76166 3.0542 0.06734 1.0675-0.95826 0.76158-3.1116-0.55787-3.6728-0.96817-0.41179-1.1373-0.03096-0.17132 0.69354 1.4497 1.0875-0.185 2.768-1.4166 1.7261-0.96313-0.81506-2.6353-0.9064-2.8225-0.22757-0.17636 0.64168-0.35848 0.5248-1.0258 0.10604-1.0366-0.65097-1.0452-0.76475-0.17636-4.3586 1.6441-6.8038 1.4836-9.3016-0.69608-11.369-1.6131-1.5303-4.278-2.2408-7.0428-0.54028v-2.3167c4.0584-1.7439 7.0104-4.6288 9.3916-9.458h0.46429c2.3704 5.5189 6.2021 9.4828 13.41 12.389 2.816 2.9901-3.5696-8.588-1.5311-3.8478-3.8245-1.593-7.2343-4.6798-9.1109-8.5415h1.043c1.0985 1.7068 3.3249 4.8215 7.289 6.9733 0.35992 0.32355 0.70687-0.01084 0.70687-0.01084s-3.3256-5.6025-3.8698-6.9362l33.224-0.25311c-1.0546 8.701-2.5388 18.157 3.304 35.103-2.7404-1.5473-13.728 1.7486-11.794 2.4003 0.97105-1.2052 7.9728-2.9832 13.153-1.6688-0.4283-0.39786-7.9009-19.041-3.5545-35.649zm3.5545 35.649 0.0209 0.0039zm-25.67 33.578 0.031 1.3631 0.26346-0.06734-0.15261-1.3259zm-29.996-69.186h1.4584c-0.32032 0.70825-0.78749 1.2392-1.5001 1.6766zm2.5079 0h1.5692c-1.2223 2.0922-2.5223 3.3593-4.0915 4.3509l0.02735-1.6394c0.90699-0.85454 1.7722-1.7377 2.4942-2.7115zm2.595 0h1.4483c-1.9651 3.2463-3.9821 5.426-6.5648 6.8054v-1.3259c1.5951-1.3337 3.8568-3.2943 5.1166-5.4794zm2.2099 0h1.1712c-2.0134 4.1241-4.8207 6.9726-8.4976 8.5562v-0.99077c4.0267-2.3074 5.7889-4.8834 7.3264-7.5655zm3.2011 0h1.4065c1.9299 4.1233 5.9386 8.0237 10.34 9.7336l0.67232 1.6727c-5.8025-2.2401-9.6464-5.5081-12.419-11.406zm4.0706 0h1.0049c1.056 1.5829 2.3358 2.8686 3.8317 3.9375l0.9113 1.8964c-2.0184-1.4598-4.2715-3.2332-5.7471-5.8332zm1.8327 0 1.1222 0.06347 1.4864 2.6635c-0.99049-0.59833-1.7398-1.8144-2.6087-2.7269zm-1.2885 10.706c-1.539-0.0077-2.9391 0.44894-3.9526 1.3375-1.0711 0.93891-0.28289 1.9614 1.2575 1.192 2.6238-1.3104 5.6384-0.71986 8.8928 1.1959 2.7397 1.6123 1.7801-0.06811-0.77598-1.8623-1.7521-1.2462-3.6776-1.8538-5.4218-1.8623zm-12.374 2.1124c2.2077 0.01858 4.7365 1.0697 4.7977 2.4622-1.4641-1.3166-4.4068-1.956-7.23-0.60375-0.21595-0.04954-0.24618-0.87466-0.11805-1.1773 0.60754-0.48223 1.5462-0.69044 2.5496-0.68193zm13.368 0.89789c-1.3958 0-2.6734 0.39244-3.263 1.2369-0.30161 0.40018-0.38079 0.44275-0.71335 0.38392-0.64929-0.11611-0.6133 0.28794 0.12813 1.3933 0.3592 0.53641 0.30017 1.1464-0.17996 1.874-0.55211 0.83519-0.44414 0.86692 1.1985 1.7137 1.2561 0.65716 2.2646 1.5899 3.4055 2.3577 0.81485 0.49461 0.97753 0.0596 0.22531-0.59214-0.25842-0.2237-1.0236-0.81119-1.711-1.2926-1.1654-0.81584-2.0213-1.6402-1.0949-1.2741 0.4247 0.14397 0.53411 0.20435 1.0013 0.29026 1.2007 0.27866 2.387 0.43501 3.3947 0.21596 0.72271-0.15558 1.6642-0.66954 2.4388-1.3894 0.19795-0.0983 0.39303 0.0062 0.87315 0.02632 1.8356 0.07663 1.4303-0.50235-1.2057-2.0489-2.6079-1.5295-4.6537-1.8089-6.3223-0.96832-0.70615 0.35606-1.1107 0.4443-1.0078 0.21983 0.10725-0.23453 0.30305-0.50622 0.61977-0.70438 2.6965-1.7346 4.8632-0.29646 7.24 1.0055 1.02 0.65329 1.2957 0.82358 1.4166 0.61459 0.15548-0.26782-1.1373-1.2555-2.8721-2.1905-1.0171-0.5666-2.3402-0.87157-3.5718-0.87157zm-8.6207 2.0086c0.45637 0.19196 0.25194 0.75314-0.16484 0.57589-2.4899-1.2021-2.9895-1.788-5.958-0.67496-0.98041 0.36767-1.3691 0.04257-0.16556-0.51241 2.6216-1.1796 4.5249-0.38392 6.2884 0.61149zm-1.7067 1.4142c-0.67448 3.6837-4.085 2.5481-3.6999 0.01858l0.62697 0.0039c0.04895 2.2246 2.1221 2.2099 2.4769 0.02245zm19.833 0.0077 0.91778 2.1124c-2.0083 5.3184 0.71839 12.48 6.6476 14.196 0 0 0.95666 1.5806 0.76878 1.7803-11.132-2.6487-10.276-14.06-8.3349-18.088zm-10.545 0.13778 0.31169 0.01858c0.96169 2.5675 2.3574 1.0922 2.6295 0.0077l0.71047 0.01858c-0.21667 2.6588-3.9684 3.1109-3.651-0.04489zm-8.5811 0.07431c0.45061-0.05651 0.60394 0.67032 0.47797 0.805-0.03455 0.03715-0.85876 0.89789-0.95953 0.39089-0.14757-0.74153 0.29441-1.1595 0.48157-1.1959zm-5.1929 0.07431 0.11805 0.0077c0.27929 0.22912 0.38511 0.91337 0.23898 1.2663-0.16556 0.18422-0.83356-0.06734-0.96313-0.3429-0.19867-0.4025 0.03455-0.93504 0.6061-0.93117zm18.055 0.24614c0.21955 0.0093 0.8242 0.29026 0.7659 0.60375-0.01512 0.07973-0.8566 0.7454-1.0459 0.63704-0.36495-0.20899 0.13965-1.1657 0.21163-1.2253l0.0691-0.01471zm-4.9193 0.11533h0.01368c0.06478 0.05186 0.6025 0.41179 0.1454 1.0767-0.03167 0.04567-0.64137-0.18732-0.65145-0.26472-0.04967-0.38702 0.40814-0.78488 0.49164-0.81197zm13.49 4.6636c-0.13604 3.0567 0.60538 6.0251 3.71 7.9308l-0.66872-1.3112c-0.79614-0.68193-2.4633-2.6271-2.2552-4.943zm-27.88 5.4647 0.34984 2.0117c-1.7082 3.052-3.0053 6.0522-4.0807 9.5586l-1.6146 0.63316c1.282-4.4221 2.4669-7.9262 5.3455-12.204zm0.6788 3.1325 0.45709 1.7284c-0.8386 1.6626-1.7355 3.5397-2.2761 5.7256l-1.7837 0.70747c0.80261-2.8957 1.9767-5.7085 3.6027-8.1615zm5.6571 0.71521-0.0799 0.01084c-0.01872 0.34058-0.01512 1.2826 0.05183 2.8345 0.01296 0.29414 0.28145 0.17029 1.0394-0.24614 0.6608-0.36302 0.59242-0.4203 1.2331-0.18964 1.7737 0.65329 2.5806 0.36922 3.2738 0.17726 1.0567-0.29259 1.4886-0.17416 2.1026 0.2206 0.3376 0.2175 0.79901 0.37773 0.89043 0.41334 0.4866 0.19041 0.30089-0.03948-0.03095-1.4529-0.37359-1.5891-0.21379-1.7633-0.80621-1.3492-0.13029 0.09056-0.50604 0.31426-0.71119 0.34058-0.51612 0.06502-1.3778-0.61536-1.8917-0.3994-1.2446 0.52325-1.2331 0.38547-2.3891 0.08127-0.57802-0.15249-1.1309 0.22602-1.6326 0.33284-0.28649 0.0387-0.65001-0.77791-1.0495-0.77481zm21.173 0.82358c2.1026 2.0737 4.2643 2.7834 6.6095 3.5683-0.28289 1.031-0.84868 2.1913-1.1121 3.5389-12.205 6.9369-24.469 6.7187-36.038 0.42108l6.0034-2.4661c3.2795 6.1079 7.4841 7.7389 12.211 5.7403 5.2821-2.6418 9.1929-6.3177 12.326-10.803zm-26.078 1.2222 0.51972 1.4978-0.77238 2.2571-1.4721 0.6409c0.28217-1.538 0.82636-2.8012 1.7254-4.3958zm11.03 1.7362c-0.36495 0.01858-0.91706 0.2833-2.1753 0.29026-0.68168 0.0039-1.2151-0.06115-1.4792-0.0039-0.54851 0.1192 0.09214 0.38238 1.3202 0.76011 1.2273 0.37541 2.7267-0.19119 2.9132-0.76398 0.04535-0.1401-0.11661-0.30729-0.57874-0.2833zm-10.168 0.73766 0.32248 0.76011-0.55067 0.21209zm32.449 0.42804 0.91131 2.2316c-1.5786 3.6736-2.6267 13.742 7.9124 16.875l0.46069 1.4413c-7.1731 0.15094-14.361-9.6531-9.2836-20.548zm-24.132 0.76011c-1.0301-0.01084-2.1084 0.26395-2.8023 0.85686-0.62769 0.53409 0.13965 0.8708 0.95593 0.44352 1.0574-0.55344 2.8232-0.50777 3.859 0.18964 0.79253 0.58053 1.2057 0.47836 0.6752-0.40637-0.41606-0.69431-1.521-1.0713-2.6886-1.0837zm46.014 2.5071c2.7548-0.04876 3.0406 4.1914 2.5043 4.556 0.15477-0.0565 0.62554-0.20512 1.2957-0.18654 2.0184 0.05651 3.0708 1.257 3.1874 3.0025 0.11733 1.7586-1.1258 2.7386-2.9376 2.641-0.67232-0.03638-1.1359-0.10914-1.1049 0.01858 0.33688 1.4057-0.0698 3.5242-1.801 4.0529-0.19868 0.06115-0.48229 0.35915-0.48877 0.46597-0.12957 2.2292 0.46069 9.886 0.46069 9.886s3.2464-5.8672 3.9771-6.7574c1.4289-2.0976 1.6873-1.9103 1.6909 1.5759-0.23682 4.8354-0.95809 5.9439-3.6064 10.002-1.1337 1.7478-3.818 0.82977-3.5747 2.0117 0.054 0.26085 0.48948 0.72915 0.92498 1.1734 0.27857 0.28407 0.56723 0.46288 1.2194 0.43965 1.1452-0.04102 1.5908-0.29026 0.90699 0.77946-0.54131 0.8468-2.4438 1.0225-2.6583 1.4629-0.49885 1.0248-0.15765 0.79804-1.0099 1.699-0.65216 0.76863-0.42541 0.37696-0.12812 1.0094 0.46644 0.81584 0.27209 2.4452-0.19076 3.5428-0.37719 0.89402-0.33472 1.5318-0.33472 1.5318 7e-3 0.0743 1.0596-1.1688 1.3778-2.6046 0.26418-1.1951 0.57371-1.7942 0.57155-1.1247-3e-3 0.84371 0.13389 1.9908 0.84148 2.4289 0.56003 0.346 0.64065 0.69199 0.54707 1.1177-0.0965 0.43966 0.3412 0.82745 0.77238 1.1959 0.10149 0.10836 0.44197 0.25156 0.40526 0.48455-0.11517 0.73456 0.16196 1.5984 0.66009 1.7385 0.2217 0.11843 1.6354-0.0108 1.8687-0.86693-0.0223-0.27246-2e-3 -1.3956-0.56435-1.4606-0.39735-0.1966-0.35632-0.31426 0.24618-0.7005 0.90051-0.57744 1.5541-0.99155 1.999-1.0806 0.5953-0.0867 1.1676-0.78256 1.1676-0.78256l0.11446 46.154c-5.3419 5.8788-11.197 11.731-18.918 17.482-4.4867-4.0204-9.3895-8.091-14.595-11.138l-1.7981-1.1433 0.64424-0.88628-3.1212-4.4252 3.5128-3.0397 0.89043 1.2106-1.6628 1.7362 2.4942 2.9654 5.6053-5.8781-3.6927-3.7998 1.9227-3.8702 1.2295 0.64787-0.92858 2.4545 2.8095 1.9111 3.5164-7.5097-4.4586-2.1828 1.1294-5.0436 1.3756 0.15636-0.45709 3.6318 3.4746 0.74153 1.4138-8.564-5.0993-0.97993 0.43334-4.8834 1.4238 0.0186-0.20803 2.7006 3.6028 0.55112 0.6788-7.4648-4.9985-0.89015 0.64425-5.7627 1.1431 0.17494-0.22171 3.5536 3.6683 0.67419c0.4031-2.4104 0.73206-5.4361 1.3302-7.8l-4.725-1.8925 1.6729-4.8385 1.0632 0.39863-0.92858 2.6225 3.4883 1.5945 2.9412-6.2395-4.1088-3.1256c0.92067-1.6425 1.8399-3.203 3.1557-4.5336l0.80693 0.75624s-0.29585 0.28717-0.75151 0.96445c-0.55354 0.8228-0.72702 1.2385-0.65144 1.4529 0.0749 0.21131 2.613 2.2269 2.8059 2.2277 0.22386 7.74e-4 1.0661-0.82435 1.5001-1.3786 0.46429-0.59292 0.70831-0.65019 1.1884-0.27943 0.0957 0.07353 0.23395 0.2206 0.33256 0.34677 0.11517 0.14939 0.16196 0.27401 0.17348 0.36844a0.26562 0.28562 0 0 1-0.0345 0.19351c0.041-0.0418 0.12957-0.11378 0.31888-0.22757 0.3448-0.20667-0.668-1.1642-1.4965-1.6611-2.4777-1.4954-5.3922-4.3122-6.066-7.8379-0.2469-1.5829 3.5588 0.32123 6.1797 3.1287a377.67 406.11 0 0 0 1.8744 1.963c-0.21523-4.0745-0.52404-8.2133-0.35704-12.337l-0.57874-0.43191c-0.80981-0.60685-1.1215-1.6023-1.1949-2.6-0.0511-0.68812 0.49812-1.0395-0.7551-0.99464-2.6087 0.02477-4.1182-2.6155-2.536-4.8726 0.56578-0.84448 2.9715-1.257 2.9686-1.2369-0.61474-2.6991 1.2316-4.1473 2.5914-4.2835zm-0.94946 31.391m3.4537-26.835-0.0727 0.02632zm-86.854 8.8171c7.2854 6.5948 11.933 11.032 26.761 15.999l0.36711 2.3616c-8.5264-2.1162-17.827-6.4013-28.885-17.054zm-2.1926 1.5233c4.6127 4.6303 9.3412 8.1576 14.127 11.116l1.6801 1.0875-0.86596 0.95362 2.8167 4.3656-3.6236 3.1774-0.86236-0.9242 1.8917-1.9932-2.6914-2.8461-5.4837 5.9678 3.759 3.5838-2.1789 3.6024-0.78965-0.38392 1.1568-2.511-3.4919-2.0489-3.9044 7.7149 4.9711 2.4328-1.1222 4.7348-1.1604-0.0635 0.39159-3.71-3.7381-0.71134-1.2575 8.6685 4.8085 0.81197-0.11445 4.9918-1.282-0.0225 0.08998-2.8198-3.7964-0.18964-0.33976 7.2752 4.6731 0.65175-0.46429 5.9044-1.1503-0.31658 0.12813-3.833-3.561-0.37618-1.2266 8.1506 4.8049 1.4753-1.6974 5.0808-1.043-0.61459 0.6824-2.6224c-0.87603-0.41102-3.3393-1.5125-3.3393-1.5125l-3.1385 6.3286 4.0706 2.9801-2.5043 4.7309-0.96673-0.69664 1.7283-2.7602-3.381-2.2834-1.9263 2.8276c-0.81773-0.76398-2.2869-1.8229-2.8476-2.5327-0.5989-0.58673-1.0546-0.67574-1.8255-0.48068-0.60826 0.15403-1.1942 0.27246-1.0603 0.041 0.06622-0.11378 1.2216-0.94974 2.9859-2.1534 0.4938-0.3367 0.88251-0.63007 0.87675-0.93117-0.0043-0.22447 0.26706-0.58053 0.62337-0.81197 0.39447-0.2562 0.30593-0.49461 0.24258-0.7601-0.3412-1.4235-0.12597-3.6426 0.54059-5.1365 0.44629-1.0001 0.58594-1.1796 0.29441-1.1812-0.85876 0.11843-1.9061 3.4638-2.1062 4.4066-0.06766-0.0751-0.16052-0.95671-0.22171-1.2965-0.11013-0.61304-0.19004-0.9931-0.64785-1.11-0.54707-0.1401-0.37359-0.42185-0.42974-0.8646-0.0907-0.71754-0.40598-1.1727-0.97681-1.4266-0.54995-0.24459-0.6097-0.3429-0.58522-0.93117-0.0022-0.4621-0.44989-1.2446-0.78318-1.4939l-1.9054 0.72295c-0.14972 0.54105 0.04967 1.2423 0.36352 1.4978 0.95737 0.9691-0.44342 0.98225-1.4029 1.6131-0.25914 0.18035-0.56939 0.57279-0.77958 0.44352l-1.1604 1.4978 0.14541-46.947c5.105-5.6836 19.981-17.537 19.981-17.537zm77.161 8.3031 0.73423 0.87544c-2.2775 2.7564-3.9296 5.594-5.7507 9.0594-1.5534 2.9568-2.8959 7.0964-3.5992 11.611-0.54276 2.7633-0.62698 5.5762-0.96314 8.4038-0.34264 3.0428-0.40742 7.139-0.94945 10.352-0.99985 8.8109-3.3011 13.5-8.304 18.499-2.1984 2.1967-9.0389 6.3464-9.2253 6.3069l-1.6211-0.43192c14.025-7.7203 17.531-13.045 19.05-31.32 0.29657-22.929 9.9956-31.81 10.628-33.354zm1.3785 1.5349 0.7515 0.77868-4.0944 6.2171 4.0361 3.0582-1.6002 4.0196-1.223-0.48764 0.86955-2.7416-3.3947-1.5388-2.744 7.9865 4.8358 1.6394-0.79685 5.2039-0.97681-0.2833 4e-3 -3.5466-3.5891-0.78565-1.043 8.9216 5.2864 0.78952-0.38798 4.604-1.2504-0.0929-0.0482-2.7416-3.6682-0.20899-0.8386 7.7334 5.2065 0.94975-0.94226 5.4941-1.1085-0.2833 0.24906-3.6248-3.4919-0.49539-2.0198 7.42 4.3859 2.3763-2.158 4.7572-0.92498-0.69276 1.1949-2.8121-3.412-1.8105-3.2947 6.1389 3.5747 3.7812-3.4919 3.9337-0.77958-1.0728 1.801-2.086-2.6914-2.8647-5.5981 4.7867 2.8577 4.049-0.33616 0.5101-2.9513-1.2741-1.4137-2.0079-1.6909 0.79726-1.3338-0.54725c8.268-4.662 13.648-10.067 15.869-18.219 1.2201-4.5072 1.5822-9.4255 1.9781-14.382 0.20515-2.5745 0.41894-5.1598 0.7659-7.7032 0.40742-4.1543 0.99912-7.6413 2.5669-11.649 1.9018-4.8602 4.2124-8.2853 7.0601-11.995zm-44.494 3.0729 5.678 3.2185-0.08278 2.1379-5.2483-2.8276zm1.5973 0.0596 4.0462 0.59601 0.01728 1.7547zm-18.239 0.05573 2.3625 1.1433 2.0026 2.4847 1.5001-1.0581 1.6283 0.65561c-5.1446 2.843-9.7091 6.245-13.264 12.114-3.9612 6.5399-4.4018 15.103-4.9085 23.367-0.84508 11.4-2.6634 19.408-9.7098 28.65l-1.0394-0.70437 3.8036-6.4965-4.2887-2.98 1.9536-3.8408 0.98761 0.36535-0.7659 2.2912 3.5473 2.0117 2.7195-8.1878-5.0021-1.6766 0.8386-5.1218 1.2575 0.1192-0.33256 3.669 3.5747 0.60685 1.025-8.6569-4.8185-0.79339 0.10725-4.5746 1.1812 0.12307-0.0072 2.7827 3.8 0.21983 0.29441-7.8975-4.725-0.56273 0.58162-5.5762 1.323 0.14552-0.30449 3.3454 3.6373 0.55885 1.7254-7.2195-4.725-2.295 2.5496-4.8765 1.1467 0.5666-1.1712 2.7006 3.2774 1.7176 3.4365-5.6474-3.651-3.7696 3.5855-4.0343 0.87963 0.9273-1.9471 2.4065 2.6986 2.682 5.3419-4.8199-2.6087-4.217zm33.98 0.26782-0.16628 2.0226-5.6917 3.4754-0.0036-1.9815zm30.547 0.07044 1.2576 0.83829-0.91131 1.1626-1.0985-0.7454zm-32.941 0.28717-3.4091 2.1155v-2.1046zm40.198 1.9746c0.1778 0.0046 0.3412 0.04567 0.46789 0.13391 0.34264 0.24073 0.29369 0.83364-0.0936 1.1247-0.5046 0.37928-1.886 0.35374-2.0227-0.03715-0.19723-0.56428 0.87747-1.2408 1.6491-1.2222zm-54.405 0.83442 4.8912 2.8384-0.01728 2.0001-4.7077-2.7827zm15.935 0.06347-0.28721 2.6077-5.0366 2.8717-0.04175-2.261zm-24.381 0.04876 2.0054 0.54725c-7.425 3.5621-14.764 8.7288-17.619 17.743-0.89115 2.6975-1.4922 5.7-1.8838 9.5439-0.18428 4.0536-0.67016 8.0438-0.84868 11.424-0.36279 6.8835-2.4705 16.206-9.7494 26.11l-0.69608-0.58827c4.4658-5.9168 6.7866-11.282 8.2205-16.949 2.2718-9.0183 1.146-18.972 3.5682-28.05 1.4778-5.5228 4.5457-10.461 9.1418-14.732 3.1982-2.672 7.8605-5.0475 7.8605-5.0475zm3.371 0.75624 0.03455 0.0077c1.8025 6.5259 4.0289 18.421 4.0289 18.421-4.7682-2.48-12.706-2.0264-12.706-2.0264s-4.4658-6.1954-5.3311-6.7047c3.5718-5.1807 13.293-9.66 13.975-9.6964zm61.399 1.0279c1.0985-0.03793 1.0193 1.7563-0.37072 2.9762-0.70975 0.6231-1.0387 0.53564-1.562 0.03715-0.15404-0.22215-0.60105-0.38083-0.92858-0.33903-0.77885-0.0031 0.76014-1.7354 2.1307-2.4514 0.28289-0.14784 0.52763-0.21673 0.73063-0.2237zm-55.749 1.4606 4.3614 2.4065 0.04175 1.9815-4.0361-2.3546zm14.785 0.26782-0.23538 2.1789-4.5414 2.5404 0.02448-2.0079zm42.499 0.81197c0.15117-0.01471 0.26778 0.04799 0.37792 0.1788 0.61905 0.74153-0.55715 2.9878-1.8917 3.662-0.5118 0.25853-0.8278 0.21595-1.2539-0.17881-0.20731-0.19196-0.51396-0.4443-0.6896-0.42494-0.76374 0.0844-0.34264-0.83674 0.27354-0.89015 0.16988-0.0147 1.2388-0.87467 2.0472-1.5984 0.54203-0.48455 0.88467-0.72373 1.1366-0.7485zm-4.6141 0.87544c0.96386-0.02477 1.3151 0.83751 0.17348 1.2145-0.81268 0.26782-1.2662 0.0774-1.2647-0.51009 0.1706-0.60376 0.66225-0.67419 1.0913-0.70438zm-52.07 1.1657 3.8698 2.086 0.01728 2.1379-3.5545-1.9932zm13.847 0.29414-0.26994 2.0226-4.1671 2.302 0.01008-1.6727zm43.68 0.84912c0.26345 0.0178 0.34119 0.33361 0.33976 0.89402-4e-3 0.92807-0.57515 1.7857-1.4339 2.2052-0.62913 0.30729-1.0725 0.2833-1.3857-0.0782-0.14253-0.16487-0.3412-0.29723-0.44341-0.30188-1.3461-0.0573-1.1294-0.43036 0.15908-1.0093 0.45349-0.20358 1.3446-0.8677 1.7665-1.192 0.47509-0.36457 0.79253-0.53176 0.99769-0.51783zm-4.9402 0.65948c0.66009 3e-3 1.2417 0.5039 0.87676 0.82668-0.28362 0.25156-1.349 0.37309-1.5592 0.14552-0.39878-0.43192-0.0439-0.97529 0.6824-0.9722zm-51.945 1.4382 3.2983 1.9111-0.01728 2.0342-3.1493-1.915zm12.651 0.15636-0.0763 2.0822-3.7863 2.0079-0.02447-1.9854zm40.739 0.86382c0.64065 0.0495 0.56003 0.71677 0.0418 1.0395-0.38655 0.28872-0.88683 0.13701-1.0913-0.20125-0.46069-0.94046 0.58594-0.82745 1.0495-0.83906zm1.2849 2.1371c0.10653 0.22989 0.0475 0.64168-0.16268 0.77172-0.28074 0.12771-1.0099-5e-3 -1.1222-0.23376-0.0921-0.18732-0.0713-0.2864 0.10726-0.47681 0.29801-0.25466 0.96817-0.4443 1.1776-0.0611zm-54.197 0.0387 2.8167 1.6541-0.01728 1.9962-2.5878-1.617zm11.712 0.0519-0.13893 1.9219-3.2774 1.747 0.04535-1.874zm-34.309 1.2106c0.70255 9e-3 1.2446 0.51241 0.8314 1.3708-0.25842 0.53641-0.45277 0.73457-1.5764 1.5868-0.45853 0.34754-0.85588 0.66645-0.88683 0.70747-0.03095 0.0418-0.3232 0.25853-0.51612 0.4025-1.007 0.74927-0.6572-0.81506 0.59962-3.1217a1.7852 1.9196 0 0 1 1.5484-0.94588zm34.059 1.7137-0.25986 2.1155-2.9304 1.6092v-2.0373zm-11.02 0.19738 2.3697 1.2625 0.03455 2.0597-2.1516-1.2145zm28.465 0.16023a0.21163 0.22757 0 0 1 0.19075 0.0968c0.19436 0.29258 0.22531 1.5543 0.0346 2.2687-0.33184 0.8406-0.97681-1.2795-0.90411-1.8182 0.13749-0.24383 0.45061-0.53796 0.6788-0.54725zm-49.812 0.38392c0.95809-0.0186 1.6513 0.68503 1.3266 1.7284-0.37359 1.007-2.5367 1.641-3.5128 2.3353-0.63849 0.34058-0.79253-0.0286-0.59602-0.62232 0.09142-0.27401 0.16124-0.4892-0.32536-0.5666-1.182-0.18732-0.46141-0.805 1.7046-2.3655 0.47437-0.34212 0.96745-0.50157 1.4029-0.51009zm47.522 0.65949c0.33976-4e-3 0.7587 0.20976 1.1913 0.71521 0.7443 0.86847 1.282 2.6983 0.87675 3.1736-0.31096-0.0371-0.46501 0.45591-0.48156 0.65562-0.0475 0.57588-1.025-0.47604-1.95-2.1348-0.74503-1.336-0.38367-2.4011 0.36351-2.4104zm-39.911 0.30884c2.9211-0.0217 8.499 0.62775 16.219 5.8223 0.98473 0.66335 1.9695 1.3948 3.083 1.9854 2.929 1.6982 5.3462 2.8492 9.121 3.6062l-0.10726 2.1008c-0.03383 0.66258 0.98257 4.5018 0.51612 6.6606-0.69248-0.0147 0.66872 0.63704 0.66872 0.63704l0.88683 1.9521s-4.6343-0.0426-6.7412-0.48765c-3.394-0.59369-9.5881-3.6868-12.582-6.1203-3.1097-2.4529-7.8066-4.4918-11.833-5.282l-0.05543-1.8066s-0.39951-6.1861-0.72055-7.0329l-0.74142-1.956c0.18212 0.0782 0.95881-0.0681 2.2862-0.0782zm24.371 1.3561-0.22531 2.0752-2.5705 1.2965v-1.7772zm12.811 0.0929c0.71911 2e-3 1.8089 0.90718 3.0521 2.7153 0.28002 0.40715 0.49597 0.76089 0.537 1.0055 0.0374 0.22602-0.0921 0.35529-0.29801 0.32742-0.49021-0.0952-0.67016-0.28562-0.80693 0.36844-0.0338 0.16178 0.0533 0.45514-0.11445 0.4025-0.87244-0.27555-3.3681-2.9824-3.2148-3.8478 0.11518-0.65019 0.41391-0.97297 0.84509-0.97219zm-22.891 0.13778 1.8744 1.0728 0.08278 2.045-1.6664-0.77094zm-20.141 0.62233c0.57514-0.0201 0.9329 0.2237 1.1157 0.70438 0.44054 1.1572-0.33976 1.8538-2.6569 2.3763-2.0134 0.51473-1.9716 0.54647-1.6909-0.25698 0.18644-0.53332-0.4355-0.59214-0.78318-0.73379-0.58738-0.23918-0.10653-0.31271 1.5829-1.2183 1.0617-0.56892 1.8564-0.85145 2.4316-0.87157zm-6.6995 0.54725c0.05687-5e-3 0.12597 0.0526 0.22531 0.18654 2.9275 3.8129 2.1746 9.3705-1.5311 12.114-0.4211 0.29955-0.4355 0.0217-0.38799-0.57357l0.0727-1.1324c0.01872-0.22524 4.2564-3.0218 1.1222-9.2459l0.26346-0.87931c0.0835-0.2802 0.14037-0.46055 0.23538-0.46906zm47.823 1.1843c1.1553 5e-3 4.3989 3.1689 3.0175 3.2819-0.16196 0.0131-0.10653 0.23995-0.10725 0.38392 0 0.14397-8e-3 0.41798-0.0453 0.5217-0.10006 0.27634-0.47797 0.22138-1.0603-0.14939-1.4756-0.93968-1.8104-1.2392-2.3207-1.7586-1.0042-1.0217-0.71911-2.285 0.51612-2.2795zm-11.422 0.54415-0.02088 1.706-2.3107 1.2029 0.01368-1.5419zm-29.283 1.2253c1.5548-0.0581 2.4301 1.6085 0.87675 2.4847-0.62121 0.34987-2.6655 0.1045-3.6164 0.0147-1.0733-0.1014-0.43982-0.4443-0.38079-0.54725 0.14756-0.26085 0.26202-0.3011-0.29801-0.65948-0.44486-0.50313-0.69967-0.62697 0.41246-0.78256 0.53987-0.0758 1.85-0.21286 2.3035-0.37231 0.24474-0.0859 0.48085-0.12926 0.70327-0.13778zm47.338 0.40637c0.11445-5e-3 0.10222 0.19893 0.0554 0.72992l-0.0763 1.1402c-0.70831 0.12153-4.2268 4.8254-1.3684 10.296l-0.23899 0.9722c-0.11013 0.48068-0.1454 0.55111-0.51611 0.25311-2.1422-1.5922-2.8376-9.6972 1.6002-13.049 0.28865-0.20589 0.45493-0.33825 0.54419-0.3429zm-8.3558 0.94975c0.4139 8e-3 0.91995 0.13314 1.5001 0.41721 1.3518 0.6618 2.2502 1.1967 2.4597 1.5496 0.12957 0.21828-0.0734 0.40017-0.34624 0.48454-0.32968 0.10218-0.36999 0.25079-0.28073 0.66645-1e-3 0.2415 0.0569 0.50932-0.22531 0.52558-0.52116 0.0302-1.6866-0.36458-2.8649-1.0465-1.9896-1.151-1.7197-2.6248-0.24259-2.5961zm-10.109 0.0263v2.0752l-1.8982-0.94278zm-31.822 1.7842c0.20083 5e-3 0.46789 0.0441 0.81773 0.1045 0.42758 0.0735 1.092 0.14397 1.4339 0.13777 2.1638-0.0403 3.0593 1.579 1.2748 2.4026-0.48804 0.22525-0.69104 0.20048-2.0263-0.21595-0.63921-0.19971-1.4224-0.4087-1.7427-0.50622-0.64281-0.19584-0.86524-0.41412-0.43982-0.5697 0.39663-0.14552 0.43046-0.43965 0.18356-0.83054-0.05975-0.39167 0.05615-0.53409 0.49884-0.52171zm50.276 0c-0.30665 3.213-0.55643 5.7171-1.0078 8.862-0.32968-0.13932-2.6641-6.0654 1.0078-8.862zm-9.1037 1.5388c0.704 0.0139 1.8924 0.30497 3.0485 0.79339 1.0106 0.40018 1.138 0.507 0.43982 0.82668-0.42182 0.19351-0.36999 0.36689-0.24618 0.66335 0.19219 0.22215 0.55642 0.66722-0.0173 0.57743-0.67952 0.055-2.4654-0.0534-3.0103-0.15635-1.6304-0.30807-2.0746-1.8887-0.73782-2.6224 0.10797-0.0588 0.28865-0.0867 0.52331-0.0821zm-41.893 0.81197c0.15044 0 0.42686 0.0867 0.92858 0.25698 2.9283 0.99309 4.1153 2.1967 2.6814 3.364-0.41606 0.33825-1.0617 0.19506-2.2797-0.53641-1.2453-0.74772-1.8708-1.1572-2.1026-1.4227-0.23035-0.26317-0.1051-0.56505 0.24906-0.54028 0.48588 0.0348 0.41318-0.22756 0.37431-0.66645-0.02735-0.30729-0.04463-0.45358 0.149-0.45436zm7.8987 0.29026 2.2452 0.54725-5.6053 26.358c-1.9133 0.59369-3.0168 0.84913-4.3614 1.6278l3.8763-0.71908-0.33616 1.8848-3.5192 0.71135-0.0799 0.56272 4.0325-0.78255s-0.14397 1.7989-0.28433 2.4955c3.8482-0.33284 7.6489-1.4838 11.519-1.5164 0 0 0.09358-20.802 0.0799-23.069-0.01512-2.4498 0.0036-5.3788 0.0036-5.3788l3.8799 2.3546 0.64065 26.217 12.152 2.1232a171.2 184.1 0 0 1-0.41534-2.4684c9.0094 2.8562 18.145 7.0794 26.231 15.807-3.7626 2.1898-7.3185 4.3609-10.975 6.4648l-0.52979 0.81971c9.27-4.6566 23.361-14.337 33.537-25.036l0.22531 69.324-48.703 0.20899s-0.0029-3.3384-0.0036-6.4857l0.02735-5.796c-0.19795-3.7169 0.40382-7.8108-0.65504-10.929l-0.20803-3.2672c3.0017-3.7541 4.6235-8.4874 6.0552-13.324 0 0 1.4447-0.60143 2.148-0.8677l0.24258-0.94974c-1.3965 0.76629-4.6004 2.0528-4.6004 2.0528 0.3448-0.29027-6.8132-3.5304-11.234-4.2913-7.2948-1.2555-17.108 0.0379-24.932 4.2092-0.38295 0.29027-0.54635 0.2833-0.45061-0.0929 1.8169-7.1034-2.0105-14.235-8.7265-16.301-1.4245-0.43811-2.5914-0.43579-2.5914-0.43579l0.12093 0.62233c10.975 1.3298 13.55 13.8 9.3247 19.594-1.1078 1.9111-1.2763 2.4692 1.0488 2.4057 9.3974-0.0828 12.664 11.208 8.381 17.456 0.0108-0.0488 0.34696 0.72682 0.34696 0.72682 2.6706-3.7905 3.3818-10.993-1.3511-16.055 3.4991-4.1953 10.216-10.909 16.026-10.516 2.1141 0.14319 4.2016 2.8949 5.5909 5.0924 2.9427 4.652 3.6992 11.147 3.9072 14.852 0.05111 0.97065 0.17132 1.6758 0.17348 2.1867 0.0043 1.4831-0.25914 1.305-1.1503 1.0581-1.1186-0.31039-2.6526-0.32278-3.7863 0.0488-1.8219 0.59678-1.5275 0.25621 0.09358-1.9034 0.95665-1.2741 1.0848-1.6673 0.6896-1.7509-0.12093-0.0256-0.5262 0.41101-1.0567 1.2888-1.5995 2.6457-1.4749 1.5597-0.31888-2.5667 0.7515-2.6828 0.6752-2.8701-1.372-4.5374-0.67736-0.55189-1.5095-1.0875-1.5829-1.2555-0.38583-0.88008-0.54635 0.22447-0.20083 0.94975 0.3376 0.70902-0.37791 1.0333-1.6355 0.30187-2.9599-1.7625-4.8862 1.8058-2.2452 3.3524 0.62265 0.36457 0.97033 0.0658 0.48876-0.41334-1.6254-1.6154-0.49452-2.977 1.7046-1.5458 1.2712 0.82745 1.7542 0.56272 2.1789-0.47294 0.23538-0.42185 2.2092 1.0976 2.207 1.6874-0.0014 0.38702-0.22963 1.6255-0.45349 2.4545-0.63201 2.3407-0.80333 3.0683-1.0776 4.5854-0.49596 2.7517-0.48301 4.162 0.04823 5.3718 1.1913 2.7099 4.1894 3.9886 6.7894 2.898 0.37791-0.15868 1.1013-0.29026 1.1013-0.29026l0.03095 1.9893c-5.1281 2.0884-8.8323 8.6058-8.6639 8.8287l-1.8291 4e-3c-2.428-5.183-6.6995-9.0849-12.128-11.242 0 0-0.65288-1.1688-0.0691 0.96446 0.03599 0.85609 0.87459 2.0628 1.552 2.4847 2.5792 1.4095 5.9911 3.9089 7.8742 7.7892l-1.2957 0.0224c-1.58-2.5892-3.6258-4.3377-5.5672-5.8634-0.45637-0.10294 0.33256 4.6953 2.1962 6.1761l-33.43 0.62542c2.2811-9.5973 2.7195-20.247-2.6259-34.207 4.432 0.29259 8.363-0.72992 11.965-2.4212l-0.32536-0.99464c-4.1045 2.1069-8.6077 2.5218-13.115 2.0264 3.4192 6.8077 6.4115 21.072 3.4991 34.792l-12.27 0.0704-0.16988-74.792s0.47941 0.47062 0.63057 0.63316c0.38511 0.41566 0.64569 1.0364 0.7551 1.4862 0.14037 0.57511 0.28865 0.60994 1.0531 1.2253 0.36711 0.29568 0.57874 0.55498 0.57874 0.70747-0.0216 0.16951-0.02663 0.69431 0.22171 1.0171 0.67376 0.87621 0.55427 1.4382 0.04823 2.004-2.3524 2.6317-3.8259 8.1615-2.636 13.995 2.7901-2.0195 5.6629-7.3 5.7543-7.3085l0.26994 7.2117c-0.24762-0.0596-1.9507 1.0256-1.9709 2.4436-0.77094 0.24692-1.7125-0.16564-2.4942-0.41333l0.56363 2.124c-2.8635 1.2284-3.0175 5.44 0.30089 6.642 0 0-0.30305 1.6472-0.56291 2.5319l2.1545-0.35296c1.2518 4.0196 6.0566 2.7324 6.0336-0.072 0 0 1.462 0.59059 2.017 0.85299l-0.54059-2.7401c5.4642-2.9313 1.377-6.7698 0.12885-6.7148 0.01728-0.76553 0.34336-1.007 0.64353-1.8995l-2.207 0.14939c-0.40454-1.4149-1.8881-2.5729-1.9435-2.4173l-0.30449-10.322c1.6686 1.5643 3.3098 3.1689 5.5218 4.4144 2.0414 1.1494 2.2495 0.89247 1.9471-1.0914-0.13677-0.89479-0.12453-1.4823-0.12453-1.4823 0.7659 0.19351 2.6979 2.8926 2.6051 4.2239 0.70543 0.98999 1.3454-1.6735-0.47437-3.9414 4.8452-5.4562 8.5379-14.499 9.3254-20.663l6.4432-2.7564 0.0727-0.90175c4.3895-3.1581 6.6793-7.5515 7.8843-12.52zm5.3627 1.6131 1.4828 0.71135-1.6837 0.89788zm-14.286 0.43579c0.28577 0.14165 0.71839 0.44739 1.313 0.91646 1.2604 0.99387 1.9954 1.6774 2.0198 2.2796 0.01224 0.298-0.19148 0.6827-0.50892 0.8646-0.76086 0.43424-1.4893 0.079-3.1349-1.7323-0.53195-0.58517-0.88755-0.89866-1.0495-1.1587-0.1886-0.30342-0.04967-0.58904 0.26346-0.46597 1.336 0.64865 0.17924-1.1526 1.0985-0.70438zm45.405 0.37231c0.27426 2e-3 0.49093 8e-3 0.62698 0.0372 0.35703 0.0774 0.45997 0.2949 0.23898 0.50622-0.34264 0.32819-0.24474 0.66103 0.10078 0.83828 0.23682 0.12153 0.14108 0.37851-0.14541 0.55499-0.16772 0.10295-0.42326 0.21441-0.77238 0.33129-2.0227 0.68038-3.5135 0.47681-3.9044-0.53641-0.44846-1.1649 0.40958-1.7308 2.8822-1.7284l0.97321-4e-3zm-29.456 0.69277-0.01728 1.5605-2.099 1.0837 0.22891-1.5829zm-17.844 0.48764c0.18428 0.0116 0.48588 0.31581 0.92498 0.89402 2.0249 2.6673 2.2984 3.1813 1.6355 3.8888-0.78606 0.83828-1.8888 0.0279-3.0766-2.3097-0.1598-0.31426-0.35488-0.71753-0.47077-0.8646-0.4355-0.54802-0.24402-0.71986 0.30809-0.67419 0.30233 0.0248 0.44629-0.0898 0.45349-0.42495 0.0086-0.35374 0.08206-0.51938 0.22531-0.51009zm48.526 1.3484c0.36855 0 0.34119 0.13546 0.17635 0.59601-0.12669 0.40792-0.334 0.54028 0.20084 0.79726 0.0885 0.0464 0.28577 0.30807 0.10725 0.42108-0.42254 0.30729-2.3099 1.2315-2.993 1.4753-1.3274 0.47371-2.1444-0.6889-1.3648-1.8438 0.3268-0.48378 2.5712-1.36 3.6891-1.4382l0.18356-8e-3zm-49.586 1.5458c1.3454 2.158 1.5138 3.1666 0.62697 3.7959-0.56147 0.45901-1.7571-0.20048-2.0299-1.5945-0.20947-1.0674-0.30521-2.1828 0.018-3.0691 0.48948-1.3422 1.2453 0.644 1.385 0.8677zm18.893-0.89402 0.01008 1.6874-2.5532 1.3786 0.23538-1.8585zm5.2029 0.0673 2.4006 1.6727 0.13893 1.4382-2.4805-1.4676zm26.781 1.6611c0.0633 7.8e-4 0.0972 0.0317 0.0972 0.11146-1e-3 0.19816-0.0475 0.90408 0.31168 0.96833 0.70616 0.12617 0.54563 0.36302-0.0727 0.93504-0.66944 0.63703-1.2813 1.394-2.089 1.8585-2.0817 0.82745-2.7354-1.538-0.7659-2.768 0.68024-0.42417 1.2964-0.71753 1.7564-0.85686 0.34552-0.1045 0.62337-0.25156 0.7623-0.24924zm-26.716 0.8677 2.7814 1.7617 0.09718 1.7733-2.7641-1.5125zm-5.3663 0.1641 0.01008 1.5419-2.7159 1.6727 0.22531-1.7246zm11.242 1.2594c0.76878 0.38547 10.641 3.3346 13.909 2.3283 0 0 2.7973 4.3362 4.8675 5.8897-3.204 5.056-14.054 10.013-14.054 10.013zm22.219 0.10837c0.17996-7e-3 0.22315 0.18577 0.22171 0.54724-0.0439 1.0488-1.647 4.9105-2.924 2.9313-0.35127-0.73688 6e-3 -1.5001 1.1258-2.4104 0.88827-0.7214 1.3454-1.0604 1.5764-1.069zm-53.746 0.60917c0.24402 0.28562 0.13317 1.1649-0.39159 1.1061-0.15188-0.017-0.17204-0.9095-0.0727-1.3933 0.15116-0.0797 0.37935 0.19273 0.46429 0.28717zm20.32 0.48996-0.01728 1.9591-3.222 1.8848 0.34624-2.1789zm5.3282 0.27556 3.1903 1.8291 0.37431 2.1642-3.5372-1.9707zm-5.3347 2.6635v1.9746l-3.62 1.9962 0.24618-1.9483zm5.3973 0.17107 3.5682 2.1828 0.46789 2.0558-3.9835-2.213zm-50.577 0.0635c0.58522-9e-3 0.79541 0.66103 0.35344 1.0875-0.29153 0.29182-1.1186 0.23299-1.1913 0-0.37359-0.38779 0.13893-1.0775 0.8386-1.0875zm1.0913 2.0899c0.08638-6e-3 0.16844-7.8e-4 0.23898 0.0186 0.42182 0.11533 0.68384 0.77017 0.42614 1.1433-0.47653 0.6889-1.7319 0.21131-1.5484-0.65948 0.04823-0.23067 0.50892-0.47526 0.88323-0.50313zm44.026 0.65948v1.7656l-3.9389 2.2347 0.24906-1.9746zm5.5708 0.24614 4.0634 2.3469 0.31169 1.9777-4.3686-2.4436zm-51.526 0.0519c0.19579-0.0116 0.352 0.0472 0.43622 0.20512 0.07558 0.14088 0.16484 0.50158 0.44701 0.67806 0.5262 0.3282 0.5809 0.39709-0.41894 0.8677-0.4211 0.19816-1.2489 0.80423-1.5383 1.0132-0.88467 0.64013-1.2446 0.42572-1.3094-0.33129-0.08206-0.95439 1.5332-2.3817 2.3834-2.4328zm3.0485 1.4451c0.20515-0.0124 0.40454 0.0286 0.54707 0.13003 0.33832 0.23996 0.3556 0.72218 0.03095 0.96446-0.7443 0.51164-1.9083-0.18964-1.2885-0.80113 0.1742-0.17184 0.44701-0.27788 0.71047-0.29414zm42.9 0.95748 0.02088 2.2912-4.3924 2.4924 0.29081-2.3244zm-45.072 0.26782c0.28793-0.0178 0.56363 0.055 0.80405 0.24615 0.26058 0.35683 0.5737 0.4621 0.7551 0.46906 0.75366 0.031 0.51324 0.32742-0.27714 0.71522-1.0898 0.53486-1.855 1.2137-2.6396 1.9962-0.81629 0.81429-0.87531 0.98922-1.1431 0.65561-0.99696-1.2416 0.94658-3.9879 2.5014-4.0823zm50.716 0.0263 4.604 2.7084 0.39519 2.2873-4.9985-2.9909zm-47.692 1.6131c0.18644-5e-3 0.36135 0.0433 0.49884 0.16409 0.3268 0.28717 0.13821 0.84139-0.31529 1.0914-0.38583 0.21209-1.0207 0.1223-1.2021-0.0743-0.43478-0.47139 0.35344-1.1642 1.0186-1.1812zm-2.2243 1.151c0.28001-0.0294 0.53483 0.35528 0.7623 0.77094 0.07918 0.10372 0.39447 0.0573 0.61977 0.0596 0.86164 8e-3 0.98185 0.39941 0.1454 0.89789-0.24474 0.14552-1.0466 0.80577-1.5829 1.2965-1.4454 1.4846-2.2286 1.1363-2.0436-0.38392 0.17708-1.4536 1.3504-2.5636 2.099-2.641zm49.915 0.14164 5.0784 2.9948 0.49524 2.4622-5.5736-3.2293zm-5.6053 0.0449-0.02088 2.2687-4.7804 2.7192 0.37071-2.302zm5.6816 2.8872 5.6881 3.703 0.20803 2.4104-5.8961-3.6504zm-5.6845 0.4025 0.01008 2.2238-5.2864 2.8833 0.26706-2.1008zm-42.914 1.4714a0.8422 0.90563 0 0 1 0.36711 0.0704c0.61905 0.30652 0.45709 0.83673-0.47437 1.3817-0.95018 0.55653-1.2755 0.46055-1.4793-0.1641-0.17132-0.52557 0.85732-1.2702 1.5865-1.2888zm59.393 0.30187c9.8905 2.4344 19.574 7.6986 28.975 16.89l-1.9644 1.4939s-8.2385-10.103-26.546-16.025zm-10.736 1.0581 2.744 1.7393 0.0072 0.44352-2.7505-0.24227zm-46.742 0.0186c0.20803 0.0116 0.39087 0.14243 1.372 0.64478 3.9375 3.0567 5.5139 4.8997 6.4921 8.2513 0.58594 2.0079 0.57442 1.9258-1.3511 0.83441-1.8111-1.0341-4.2938-2.7502-5.8961-4.9693-0.26562 5.2209 0.30161 11.711 0.30161 11.711 2.4597 1.3035 1.6635 4.6961 1.6563 4.676 6.3295-1.8577 4.9424 7.1243 0.22603 5.1868 1.1244 6.738-6.0509 6.19-5.3159 0.41411-5.7111-0.23763-4.7012-6.9308 0.03959-6.0058-0.49308-2.0651 0.18644-3.4638 1.9349-4.3501l-0.26706-8.821s-4.6544 7.1831-5.4318 7.0701c-0.45637-0.0666-1.1438-0.89092 0.01368-7.1893 0.6025-3.2796 3.836-7.2729 5.6463-7.4014l0.57874-0.0519zm4.5522 0.0674 0.835 0.61458-0.78606 1.5086-0.86955-0.67806zm36.419 0.43191-0.02735 1.3221-2.5633 0.1641zm-28.109 14.93c-0.38439 0.0108 0.64929 0.27092 1.3022 0.90176 6.0322 1.0047 9.7227 8.9394 6.932 14.684-0.3376 0.25853 0.18356 1.5094 0.52332 1.0395 2.9427-4.4848 0.75222-15.508-7.8325-16.558-0.50964-0.0464-0.79685-0.0704-0.92498-0.0674zm2.2797 3.0133c-0.48517 1.4296-0.61258 1.7718 0.63057 1.1882 2.1962 0.87389 4.5652 4.7178 3.8072 8.5787-0.24402 0.45049 0.18212-0.29414 0.47077 0.97606 1.0841-2.8268 0.0029-8.9216-4.9085-10.743zm27.883 7.1932c6.1747-0.0194 12.286 1.432 17.148 4.4368-1.652 0.98768-6.9248 2.3655-6.9248 2.3655-2.9635-3.5753-4.4737-7.1506-9.8314-5.3231-5.6111 1.5574-10.664 6.7798-13.508 10.245-2.8512-1.8252-4.396-2.271-6.9233-2.422-0.14612-5e-3 -0.36351 0.68735-0.18356-0.42805 0.72343-1.1982 1.2216-2.5559 1.7046-3.9259 5.2994-3.2401 11.946-4.926 18.52-4.9469zm19.195 4.5893c-1.2295 4.2781-2.8174 8.492-5.5117 12.204l-0.33256-1.8554c2.5331-4.1821 3.7338-7.985 4.2751-9.6515zm-2.3906 1.11c0.15836 0.27169-2.4553 6.9695-3.7446 8.1878l-0.50604-1.7284c1.0517-1.7091 2.6087-5.8278 2.5633-5.8672zm-15.942 8e-3c-0.08134 8e-3 -0.11013 0.0851-0.11085 0.25311-0.0022 0.61459 0.59386 1.0984 1.6801 1.3631 1.467 0.3576 3.5236-0.18809 3.5264-0.93504 0.0014-0.43114-0.28505-0.46288-1.1258-0.0449-1.0538 0.5248-1.9846 0.42185-3.3602-0.36147-0.31529-0.17958-0.50532-0.28562-0.6097-0.27556zm13.071 1.069c-0.40814 1.6224-1.0142 2.8175-1.7873 4.0567l-0.24906-0.85299c0.53483-0.92962 0.88827-1.9924 1.3403-3.025zm-1.5347 0.52557c-0.19795 0.56428-0.41606 1.2176-0.86955 1.7207l-0.58882-1.3406zm-9.2901 1.2431c-0.99409 0.0209-1.9788 0.36458-2.0645 0.93272-0.04103 0.27246 0.34048 0.16719 2.1904-0.0751 0.97609-0.12772 1.4418 0.49384 2.3358 0.42882 0.45565-0.0581 0.02951-0.51087-0.11229-0.64168-0.4974-0.45514-1.4728-0.66258-2.3502-0.64478zm-4.2448 1.2377c-0.10006 0.0217 0.01152 0.29491 0.38439 0.99077 0.20155 0.37696 0.25194 1.1448 0.29081 1.6201-0.04823 1.1843-0.04463 1.1471 0.49884 0.4621 0.34192-0.36535 1.007-0.28407 2.0609 0.0225 0.67952 0.19738 0.8422 0.26859 1.3137-0.0495 0.54635-0.36844 0.6752-0.18267 1.146-0.0813 0.45421 0.0983 0.86668-0.0975 1.3648-0.24615 0.60826-0.18035 0.72487-0.13855 1.2539 0 0.80909 0.41179 0.69104 0.37541 0.7587-1.0991 0.06767-1.4513-5e-3 -1.5543-0.78605-1.0651-0.75654 0.47371-1.2777 0.68812-2.4388 0.25311-1.2655-0.47372-1.444-0.35374-2.3416-0.0635-1.0848 0.35141-1.5779 0.47061-2.4424-0.0968-0.56867-0.37386-0.95018-0.67264-1.0632-0.64787zm-17.678 2.1905 0.48516 0.84912c4.3737 1.6828 7.3365 5.5266 5.588 12.006l0.41606 0.71522c2.189-6.529-0.30953-11.926-6.4885-13.57zm1.3547 2.7641 0.59602 1.3151c3.2911 1.7091 3.0945 6.4176 2.9096 6.2318l0.51612 1.2253c0.82349-3.0466-0.67664-7.5446-4.0217-8.7722zm13.746 7.0221c-0.12957 2e-3 -0.21451 0.0488-0.24906 0.14552-0.08494 0.23454 0.16988 0.37541 1.6729 1.4939 1.2914 0.96058 2.2898 1.6735 2.2135 1.8105-0.05111 0.0913-0.85372-0.11843-1.4274-0.30188-1.5023-0.48067-3.7179 0.0983-4.9603 1.0395-0.31528 0.22757-0.84004-0.0209-1.2957-0.14939-0.18212-0.0557-0.5845-0.10837-0.78318-0.0519-0.93938 0.26472-0.03023 1.2292 2.2689 2.4808 2.8217 1.5357 4.3485 1.6766 6.0624 0.7454 1.1381-0.63317 1.5462-0.16332 0.30161 0.55886-2.1739 1.2609-4.2556 0.87079-7.6907-1.6688-1.5908-1.1765-2.2264-0.97993-0.85948 0.14165 2.3999 2.0179 7.0198 4.4786 9.8559 1.4714 0.11085-0.0433 0.36783-0.0232 0.49164-0.0224 0.58954 2e-3 0.61474-0.19738 0-1.2439-0.37071-0.63084-1.1201-1.295-0.20803-2.0675 0.69176-0.58594 0.64137-0.86382-0.19435-1.1324-0.22027-0.0658-0.19867 0.0906-0.5298-0.19738-2.0069-1.74-3.9706-3.0544-4.6695-3.0505zm0.86955 3.4383c0.84292 0.0248 1.6916 0.72295 1.9572 1.9777l0.05903 0.34677-0.71767 0.0286c-0.5953-2.5574-2.3884-1.7098-2.5669-0.21209l-0.64713-0.0929c0.23826-1.4258 1.0725-2.0736 1.9155-2.0489zm14.872 2.1828-0.47797 0.0759c-0.31313-0.94201-1.729-2.2068-2.4042 0.0882l-0.6025-0.0263c0.41966-3.1093 3.0449-2.6263 3.4847-0.13778zm-3.6654-1.2919c0.19579 0.298-0.14756 0.80113-0.34696 1.0318-0.19076 0.21983-0.61474 0.0341-0.79181-0.18267-0.15548-0.21441-0.04031-0.6409 0.21811-0.78255 0.2685-0.14707 0.72415-0.28021 0.92138-0.0666zm-8.404 0.0929c0.20083 0.48223-0.36063 0.84293-0.43118 0.67961-0.12021-0.0449-0.26922-0.84061-0.20011-0.89324 0.18572-6e-3 0.55499 0.0588 0.63129 0.21363zm12.634-0.0782c0.30305 0.0263 0.63273 0.18035 0.6932 0.54724 0.0029 0.24305-0.25842 0.50777-0.55787 0.52171-0.13173 6e-3 -0.63561-0.39167-0.54131-0.95981 0.10653-0.20125 0.23034-0.1254 0.40598-0.10992zm-17.563 0.15248c0.10653 0.17493-0.09286 0.69664-0.13893 0.76708-0.02375 0.0364-0.66872 7e-3 -0.65504-0.0449 0.01368-0.0511-0.05975-0.4443 0.09718-0.72992 0.17852-0.1223 0.56723-0.18732 0.69608 8e-3zm11.716 1.6835c0.0835 2e-3 0.19004 0.0387 0.31528 0.12307 1.8039 1.2625 4.1239 1.8252 5.7954 0.92421 0.37359-0.20126 0.61761-0.19042 0.61689 4e-3 -0.0014 0.21286-0.4139 0.64864-1.1848 0.89788-1.7218 0.55576-4.5637-0.17803-5.5463-1.3112-0.28865-0.33361-0.2469-0.644 0.0036-0.63704zm-15.821 1.3221c-0.17204-5e-3 -0.22819 0.10449-0.19435 0.32742 0.11445 0.75237 4.9388 3.7293 6.9557 4.131 1.6563 0.32974 2.9434 0.1819 3.9562-0.45049 2.4604-1.5365 1.8291-3.6148-0.57874-2.0489-1.6175 1.0519-5.7169 0.56738-8.155-0.94587-1.0841-0.67342-1.6981-1.0047-1.9853-1.0132zm21.737 1.0883c0.6097-0.27478 0.87171-0.37077 1.0056-0.25079 0.61977 0.55808-0.39591 1.4273-2.2487 1.7671-1.4821 0.26163-2.3733 0.31349-4.0649-1.0326-1.3101-1.0418-0.69248-1.5465 0.05975-1.0736 2.0011 1.2578 3.4876 1.2973 5.2497 0.58982zm-21.307 3.2548c4.2679 1.6433 9.1238 5.6079 11.279 10.422l-1.3166-0.0108c-1.4656-2.7486-4.365-6.2403-9.1454-8.694-0.42326-0.37463-0.64353-1.0426-0.81773-1.7176zm22.417 2.254v1.5047c-2.6375 1.4296-4.8488 3.6295-6.5159 6.6645l-1.4929-0.0224c1.7103-3.2556 4.2729-6.3046 8.0095-8.1468zm0 2.295v1.8476c-1.6678 1.0512-3.06 2.4375-4.0361 4.0266h-1.7665c1.4159-2.5737 3.3587-4.6257 5.8025-5.8742zm-19.541 1.4196c1.2705 0.78565 3.3753 2.8802 4.1397 4.4925l-0.6788 0.0333c-0.69176-0.94742-1.7981-2.0365-2.6986-2.8941-0.57586-0.7276-0.7623-1.6317-0.7623-1.6317zm19.541 1.1843v1.5125c0 0.0387-1.2669 0.92807-1.8046 1.7586h-1.4339c0.98473-1.9157 3.0334-3.2742 3.2392-3.2703zm0.0036 2.4398-0.0036 0.83054-0.90051 4e-3c0.05975-0.0937 0.56147-0.68657 0.90411-0.83441zm-17.578 0.20899c0.26994 0.15248 0.47725 0.69741 0.47725 0.69741l-0.24186 0.0279z" fill="#131f67"/><path d="m36.82 189.46c2.9686 0.0952 9.2369-1.0798 9.1361-0.95827 0 0 19.353 34.783 18.564 34.437-0.2541 0.43037-24.903 0.34523-24.903 0.34523-0.53411 5e-3 5.2605-12.854-2.798-33.824zm8.8733-24.441c9.4917-8.4123 19.414-8.4471 30.071-9.578l0.31385-28.68 3.8504 2.4924 0.01728 26.279c14.061 1.1727 26.181 6.745 36.581 16.468 0.13029 0.21054-15.103 8.9138-21.771 11.21-5.1626-4.097-18.802-6.7086-27.859-3.5954-2.4877 0.85532-5.5427 2.2261-8.5142 3.237 2.184-13.839-7.8649-15.911-11.4-16.561-0.44342-0.0813-0.96961-1.1076-1.2899-1.2725zm-12.169 4.4422c0.17348-2.9491 7.2e-4 -5.9028-0.19651-8.92-0.05255-0.6889-5.5607 8.9587-5.8616 6.6142-0.75366-5.8696 1.9752-13.323 6.2337-14.225 0.42614-0.61613 8.846 5.0204 8.4486 9.8698-0.12957 1.5798-7.5107-5.3579-7.5417-4.9454-0.17564 0.8081 0.19004 11.634 0.41894 11.613 2.1271 1.295 1.6592 2.9491 1.8888 4.3215 5.7104-0.88937 5.3822 5.9183-5e-3 5.6907 0.31313 8.0446-6.6253 4.3904-5.2461 0.10992-6.9953-0.37386-3.5329-7.3913-0.05327-5.837-0.20587-1.7741 0.20659-3.6225 1.914-4.2913zm8.1096-34.104c-0.40238-0.17261-14.923-1.0132-14.923-1.0132l0.85228-38.022c7.4589-18.282 35.34-9.6445 30.892-5.762-13.356 9.3535-15.427 26.474-16.821 44.797zm26.822-15.544-0.43262-4.2232c-1.133-2.6271 29.66 12.768 30.007 13.096l0.88611 4.508c0.17348 1.98-19.59-8.0748-30.46-13.381zm56.1-7.2992c-0.49524 17.061-2.9707 28.609-12.225 42.526-0.25698 0.45746-2.8664 1.6108-3.0701 2.004 1.313 2.2439 8.8273 5.5514 12.298 7.3278l18.105-11.523c0.20947 0.017-0.51972-40.549-0.51972-40.549zm6.8866-18.51c-2.4273-0.40482-8.0635-6.7218-6.8873-8.6228 0.0396-1.4304 7.0212 4.0629 7.7446 5.5398-0.35776-0.43966-0.37647-13.371-0.49092-12.857-0.26706 0.15094-2.1336-1.2942-1.6398-3.9879-5.3656 1.2594-5.0532-6.2302-0.36711-5.9113-0.58882-6.817 7.1479-4.2921 5.077 0.26627 6.6296-1.2934 5.4664 6.7009 0.46141 5.385 0.4175 3.0342-0.7479 3.8694-2.3769 4.4701 0.10078 1.2717 0.52404 9.7529 0.52404 9.7529s4.9193-8.057 5.2692-7.3603c0.97465 2.4506-0.84364 15.389-7.3149 13.325zm-22.632-29.827c-2.2308 8.1855 3.8043 17.561 9.527 17.552 1.151-0.19196 3.3544 0.483 2.5921 1.1433-9.0475 7.8379-30.121 9.4108-30.125 9.0702 0.19723 9.6531-0.22891 19.402-0.46717 29.051l-3.8547-2.5102c-0.10222-8.8032-0.28289-17.808-0.44845-26.61-13.495-1.9312-25.616-6.6459-35.179-16.629 6.3777-5.0537 13.991-8.2002 21.305-11.381 9.1858 5.1621 21.985 8.1653 36.65 0.31349zm-6.5677-38.94c-0.42254-0.20202 1.4591-1.6959 1.4591-1.6959s15.684 0.2655 23.464 0.17416c-2.8649 12.499-0.88683 23.711 2.7476 34.483-0.97033-0.24692-7.4135 0.29723-8.9885 1.0488-0.25338 0.27169-18.484-33.704-18.682-34.01z" fill="#e2cf00"/><path d="m65.03 222.89-18.879-34.473 2.8484-1.3213 19.463 35.853zm-33.63-46.113 2.7469-3.0226 2.7397 2.9994-2.8793 2.8601zm60.887-19.132-0.37935-2.4614c10.919 2.9065 19.846 8.9688 26.261 15.562l-1.534 1.2005c0.47797-0.13855-15.489-13.083-24.348-14.301zm-31.725-2.5133 3.4645-0.53022-0.10366 2.0682-3.2939 0.79494zm63.955-1.4552-1.8838-1.6402 1.3626-1.7276 1.8305 1.5589zm-64.128-16.858c4.6962-2.3732 8.3803-11.992 7.9224-12.636l2.554 0.65871-5.9681 26.366-4.4471 0.85144c-0.0079-5.0475-0.07558-10.194-0.06191-15.24zm30.83 15.014c-1.5764-5.5584-4.6767-18.13-4.6767-18.13 0.11373 0.41024 10.165 3.5134 13.755 2.4034 1.5268 2.2586 3.2061 4.2448 4.9783 6.0654-3.7345 3.9058-8.3666 7.1645-14.057 9.66zm42.212-20.1-1.7679-1.6557 1.5944-2.0876 1.9421 1.5992zm-23.146-1.1688c-1.4368-2.7927-1.5296-5.9454 1.156-9.047zm-55.027-5.5599c-0.11373-0.28794 0.62409-6.8944 0.79397-7.187 0.29945-0.51396 0.87819 1.3422 1.151 2.7595 0.3412 1.7764-1.5282 5.4833-1.945 4.4275zm40.484-1.939s3.9425-19.394 5.6485-26.994l4.7559-1.2756-0.68024 15.931c-3.9144 3.7432-7.1839 12.68-7.1839 12.68zm-62.596-3.4027-1.8759-1.8933 1.5959-1.867 1.6549 1.8291zm33.709-7.4703-5.1511-6.5128c3.2126-4.7766 8.5321-7.533 14.167-9.691l3.7676 18.246c-4.3053-1.408-8.9475-2.9336-12.783-2.0419zm-26.366-16.327 1.3295-1.7679 1.7312 1.4738-1.3238 1.956zm62.214-5.3037 3.3263-0.50158-0.25697 2.4529-3.5214 0.59214zm-54.122-13.94 2.0501-1.3631c7.1695 6.9563 15.095 11.763 23.744 14.509l0.57442 2.9979c-9.7523-3.2626-18.962-8.1909-26.369-16.143zm83.978-2.5311-2.6547-2.8291 2.4035-2.8578 2.8397 2.6519c-0.94298 1.521-2.5878 3.035-2.5878 3.035zm-14.713-13.772-19.833-36.594 2.8779-0.0178 19.518 35.25z" fill="#d40000"/></g><path d="m97.821 22.102-4.76 0.019 27.018 58.423s-0.732 0.133-2.165-0.271c-6.49-1.831-10.488-9.201-9.021-16.432a6.579 6.579 0 0 0 0.187-1.042c-16.727 8.14-27.083 5.142-36.74-0.041l-4.12 1.699c0.274-2.675 3.351-12.72 7.955-17.449l-8e-3 -5.066-0.11-2.392-0.364-4.34c-6.848 6.933-14.839 17.846-15.838 33.344 0 0-6.236 3.443-11.557 7.252 0.295-0.042 8.29 10.513 27.495 16.44l-0.845-3.368c2.856 0.861 6.916 1.543 10.954 2.093l0.54 26.452 4.587 2.92 0.156-29.286c0.141 0.121 7.315-0.271 11.18-1.262l-0.545 2.824 3.817-0.809v2.06l-4.185 1.062-5.958 27.376 3.471 0.83c1.016-5.514 3.581-9.974 7.3-12.71l-0.039-1.05c2.384-1.84 7.34-3.301 7.372-3.267 1.69-8.878 5.625-15.03 9.807-20.883l-1.992-2.91 7.639-3.013-10.604-19.397c4.08-3.027 12.17-1.899 12.17-1.899-3.468-10.065-6.516-20.447-3.09-35.682l-29.495 0.026zm9.676 0.63c-7e-3 2.546-3.099 2.284-3.476-0.011zm18.95-0.079c-1.878 11.666-1.256 23.03 3.096 33.827 0 0-0.634 0.04-0.714 0.023-0.06-0.013 0.075-0.582 0.042-0.734-0.086-0.406-0.712-0.216-1.236 0.164a7.364 7.364 0 0 1-0.658 0.444c-0.54 0.289-3.273 0.267-3.273 0.267 0.892-0.65 2.146-2.477 1.418-3.543-0.165-0.228-0.265-0.127-0.425 0.18-0.777 1.483-1.162 1.715-2.2 1.701-1.627-0.021-2.792-1.106-2.66-2.741 0.127-1.59 2.302-2.428 1.981-0.886-0.088 1.373 1.18 1.64 1.414 0.271l0.121-0.875c2.534-1.446 1.135-4.39-1.23-3.774-0.556 0.158-0.626 0.214-1.018-4e-3 -0.73-0.404-1.335-0.277-1.611 0.29-0.243 0.5 0.127 0.9 0.669 0.903 0.561 2e-3 0.67 0.293 0.668 0.655-3e-3 0.842-1.355 1.248-2.251 0.756-2.366-1.298-1.49-4.671 1.257-4.66 0.835 4e-3 1.184 0.06 1.22-0.133 0.1-0.545-1.175-1.487-1.895-1.349-0.61 0.129-0.981 0.3-0.658-0.573 0.198-0.9 0.192-1.308 0.025-1.986-0.44-0.966-0.429-0.471-0.7 0.313-0.905 1.613-2.268 1.97-3.444 1.088-1.09-0.82-1.057-2.374-0.02-3.484 0.72-0.77 1.492-0.246 1.06 0.615-0.18 0.356-0.038 0.798 0.284 0.886 0.65 0.178 1.053-0.233 1.057-1.08-0.014-0.467-0.134-0.57 0.648-1.05 2.023-1.243 0.51-4.638-1.774-3.547-0.501 0.239-0.618 0.473-0.845 0.361-0.955-0.97-2.324 0.256-1.514 0.905 0.35 0.184 0.778 0.253 0.89 0.265 0.198 0.12 0.132 0.422-0.156 0.8-0.945 1.2-3.092 0.608-3.599-1.083-0.586-1.958 1.275-4.017 2.702-2.875 0.422 0.337 0.789 0.373 0.79-0.127 2e-3 -0.778-0.91-1.671-2.072-1.583-1.18 0.089-1.051 0.253-0.408-0.894 0.474-1.022 0.41-2.019-4e-3 -2.619-0.319-0.463-0.646-0.56-0.613-0.07 0.258 1.518-1.391 2.961-2.747 2.324-1.304-0.626-1.95-2.196-1.31-3.557 0.59-1.256 2.023-1.386 1.784-0.045-0.112 0.855 0.493 1.306 1.078 0.801 0.212-0.183 0.262-0.346 0.277-0.898 0.016-0.614-0.216-0.795 0.152-1.155 0.967-0.137 1.027-2.345 0.88-2.436l15.523-0.078zm-17.304 0.075c0.613 0 1.122 0.223 1.122 0.883s-0.495 1.192-1.109 1.192c-0.613 0-1.112-0.533-1.112-1.192 0-0.66 0.486-0.883 1.099-0.883zm-10.878 0.085h2.467l19.488 34.923-2.308 1.206zm4.052 1.221c1.182 0.726 2.271 1.322 3.752 1.478-0.433 0.946-0.83 1.98-0.9 3.748zm3.97 7.033c1.202 0.463 2.245 1.165 4.226 0.456-1.056 1.005-1.654 2.207-2.102 3.474zm10.138 4.219c0.568 0 1.028 0.495 1.028 1.106 0 0.61-0.46 1.102-1.028 1.102s-1.029-0.492-1.029-1.102c0-0.611 0.46-1.106 1.029-1.106zm-6.313 2.757c0.869 0.343 1.78 0.572 2.79 0.522-0.5 0.74-0.67 1.864-0.703 3.15zm2.983 5.504c0.804 0.422 1.756 1.036 3.445 0.839-1.119 2.04-0.88 2.604-0.994 3.496zm9.766 4.053c0.594 0 1.077 0.52 1.077 1.16 0 0.639-0.482 1.158-1.077 1.158-0.596 0-1.078-0.519-1.078-1.159s0.482-1.159 1.078-1.159zm-6.053 2.602c0.736 0.447 2.19 0.703 2.207 0.582-0.093-0.075-0.419 1.509-0.476 2.503zm3.391 5.948c1.047 0.665 2.206 0.601 2.887 0.68-0.729 0.156-1.415 0.352-2.196 0.682zm12.35 6.531c-2.523 0.175-3.108 2.255-2.81 4.363-1.923-0.331-4.075 1.63-3.474 4.027 0.571 2.273 2.537 2.353 3.894 2.201-0.104 0.553-0.39 2.41 1.697 3.981l0.277 11.803s-0.92-0.91-1.52-1.552c-2.621-2.809-6.566-4.843-6.318-3.26 0.036 0.233 0.12 0.823 0.183 1.311 0.417 2.672 3.755 5.561 6.032 7.015a6.989 6.989 0 0 1 1.316 1.01c-4.257 4.893-6.545 10.115-7.115 15.298-0.53 4.815-0.958 9.153-1.379 13.574-1.737 22.18-10.589 27.758-11.009 28.843l-0.166 2.958-2.47-0.198-2.848 2.65c9.328 5.181 14.768 11.436 14.692 11.554 7.447-5.244 13.876-11.069 19.944-17.098l-0.118-49.383s-0.504 0.199-0.635 0.198c-0.46-2e-3 -0.519 0.221-0.678 1.166-0.086 0.505-0.366 0.971-0.586 1.303-0.416 0.63-0.268 0.312 0.257 0.54 1.195 0.52-0.357 2.875-2.055 3.163-1.223 0.207-1.905 0.449-2.113 0.752-2.573 2.422-5.138 2.805-7.077 1.915-0.954-0.438-1.992-1.078-2.342-2.145-0.796-2.425 0.863-5.917 1.836-7.935 1.785-3.7 4.75-6.478 4.75-6.478l-0.486-0.566s0.583 9e-3 0.694-0.034c2.558-1 2.716-1.014 3.187-1.743 0.47-0.729 1.657-2.809 1.902-3.494 1.315-3.677 1.491-3.917 1.49-6.328-3e-3 -1.955-0.124-3.26-0.475-3.364-2.016 1.661-4.051 5.543-5.241 7.83-0.412-3.389-0.534-9.305-0.534-9.305 0.427-0.507 2.847-0.224 2.311-4.467 2.13 1.033 4.376-0.547 4.282-2.754-0.147-3.435-2.608-3.334-4.612-2.9 0.955-2.075-0.86-4.577-2.682-4.451zm-0.04 0.289c2.633 0.087 3.155 3.216 1.541 4.987 0 0-1.045-0.865-1.6-1.358-0.526 0.445-0.678 0.83-1.257 1.288-0.686-0.545-1.1-1.51-1.106-2.437 0.032-1.45 1.394-2.514 2.421-2.48zm-60.146 0.097c10.654 6.402 24.011 6.859 36.24 0.335l-0.15 1.083-1.34 0.812 0.759 1.494 0.419-0.216 0.01 0.987c-10.08 5.855-26.964 7.066-40.181-2.656l1.15-0.573s0.26 0.195 0.509 0.361c0.481 0.32 1.277 0.836 1.8 1.088l0.801-1.24s-1.221-0.801-1.101-0.854l1.084-0.622zm0.939 1.962-0.61 1.49 1.528 0.876 0.581-1.5zm-5.796 0.168c16.405 11.073 31.676 7.777 40.846 3.25l0.118 1.18c-11.836 5.415-27.4 6.868-42.214-3.84zm38.616 0.712-1.459 0.625 0.58 1.438 1.5-0.689zm-40.576 0.268c13.33 9.243 27.629 11.052 43.039 4.28l0.589 1.77c-15.008 6.48-30.846 5.734-45.315-5.283zm10.243 0.051-0.596 1.55 1.653 0.674 0.482-1.52zm28.036 0.641-1.444 0.503 0.45 1.483 1.497-0.547zm-25.51 0.425-0.357 1.558 1.688 0.51 0.294-1.565zm61.054 2.564c0.228 2.648-3.424 3.926-4.79 1.454l1.204-1.572-1.077-1.08c1.461-2.484 4.45-1.288 4.664 1.198zm-75.877-2.478 3.977 2.94-2.89 4.827-4.281-3.092zm68.927 0.134 2.525 2.355-2.318 2.916-2.37-2.57zm-1.57 0.799-1.42 1.775 1.536 1.757c-1.822 2.083-4.542 0.797-4.515-1.753 0.02-1.945 2.79-3.84 4.398-1.78zm-29.442-0.683-1.518 0.488 0.347 1.43 1.569-0.44zm-20.466 0.45-0.281 1.54 1.743 0.402 0.294-1.531zm17.962 0.262-1.615 0.376 0.277 1.53 1.618-0.365zm33.685 0.361-1.33 1.404 1.33 1.482 1.34-1.482zm-48.852 0.045-0.204 1.55 1.825 0.264 0.142-1.568zm12.295 0.212-1.642 0.201 0.166 1.52 1.705-0.23zm-9.692 0.179-0.021 1.59 1.6 0.138 4e-3 -1.576zm7.06 0.15-1.608 0.063 0.01 1.538 1.642-0.111-0.045-1.49zm-29.328 0.014c-0.946 0-1.712 0.824-1.711 1.84 0 1.017 0.766 1.84 1.71 1.84 0.947 0 1.712-0.824 1.712-1.84 0-1.017-0.766-1.84-1.711-1.84zm26.632 0.052-1.58 0.015 7e-3 1.557 1.628 8e-3zm41.885 8e-3 0.694 0.745-0.694 0.734-0.71-0.734zm-68.52 0.588c0.62 0 1.121 0.54 1.121 1.207s-0.501 1.21-1.122 1.21c-0.62 0-1.126-0.543-1.126-1.21 0-0.668 0.506-1.207 1.126-1.207zm-6.088 0.089 2.276 1.993c-0.724 1.49-3.017 4.638-3.017 4.638l-4.205-3.625 2.2-1.337a1.9 1.9 0 0 0-0.188 0.826c0 1 0.755 1.807 1.684 1.807 0.93 0 1.684-0.807 1.684-1.807 0-0.958-0.697-1.74-1.573-1.802zm-1.271 1.28c0.623 0 1.13 0.545 1.13 1.215s-0.507 1.21-1.13 1.21-1.13-0.54-1.13-1.21 0.507-1.214 1.13-1.214zm77.356 0.574s0.62 0.254 0.771 0.504c1.221 2.014-0.05 4.41-2.096 4.363-2.39-0.055-3.02-3.277-1.376-4.591l1.336 1.357zm-62.138 0.82 4.711 1.945-1.787 5.505-5.151-2.272zm-19.365 0.574c19.22 18.621 46.527 19.96 66.373 7.598l1.21-0.026 0.64 0.708c-22.61 14.377-50.717 11.249-69.692-7.257zm52.926 1.11 1.517 5.442-5.21 1.475-1.164-5.512zm-54.898 0.197c5.834 6.044 14.082 11.341 23.768 14.345l0.24 2.232c-10.283-3.32-18.05-7.754-25.615-15.452zm22.584 0.086c-0.93 0-1.684 0.811-1.684 1.81 0 1 0.754 1.807 1.684 1.807 0.929 0 1.683-0.807 1.683-1.807 0-0.999-0.754-1.81-1.683-1.81zm-8.38 0.406 4.86 2.764-2.421 5.212-5.162-2.976zm8.36 0.19c0.623 0 1.129 0.544 1.129 1.214s-0.506 1.211-1.13 1.211c-0.623 0-1.129-0.54-1.129-1.21s0.506-1.215 1.13-1.215zm8.046 0.741 4.67 0.73-0.215 5.566-5.449-0.705c0.21-1.959 0.994-5.591 0.994-5.591zm22.556 0.138c-0.93 0-1.684 0.811-1.684 1.81 0 1 0.754 1.807 1.684 1.807 0.929 0 1.683-0.807 1.683-1.806 0-1-0.754-1.81-1.683-1.81zm-0.021 0.596c0.623 0 1.13 0.544 1.13 1.215 0 0.67-0.507 1.21-1.13 1.21-0.624 0-1.13-0.54-1.13-1.21s0.506-1.215 1.13-1.215zm-37.968 0.078c-0.929 0-1.683 0.812-1.683 1.81 0 1 0.754 1.808 1.683 1.808 0.93 0 1.683-0.808 1.684-1.807 0-1-0.754-1.81-1.684-1.81zm29.855 8e-3 0.668 5.592-5.099 0.272-0.302-5.577zm36.547 0.5h0.724c0.067 4.812 0.421 10.382 0.939 14.501 0.077 0.614 0.113 0.795 0.055 0.905-0.501 0.954-1.083-0.247-1.31-2.984-0.062-0.754-0.142-1.852-0.228-2.574-0.262-2.182-0.18-9.849-0.18-9.849zm-86.186 0.085c-7.667 5.144-20.42 17.43-20.345 17.717l0.052 47.211 0.998 0.052 0.824-1.736c-1.276-0.344-0.919-2.921 1.525-3.438 0.416-0.089 1.69-0.55 2.002-0.805 1.854-1.52 4.867-2.418 6.98-1.819 3.083 0.848 3.715 3.285 2.231 7.521-1.169 3.34-3.485 7.61-5.66 8.829l-0.562 0.302s0.505 0.494 0.69 0.622c5.991-3.723 9.016-17.078 8.854-25.386 0.241-8.51 1.607-17.052 4.801-23.263 5.28-10.266 12.264-14.393 12.229-14.431 0 0-9.415-6.146-14.62-11.376zm19.763 4e-3c0.624 0 1.13 0.544 1.13 1.215 0 0.67-0.506 1.21-1.13 1.21-0.623 0-1.129-0.54-1.129-1.21s0.506-1.215 1.13-1.215zm46.576 0.194 1.82 5.196-5.055 2.224-1.822-5.461zm-29.07 0.026c-0.93 0-1.684 0.811-1.684 1.81 0 1 0.754 1.807 1.683 1.807 0.93 0 1.684-0.807 1.684-1.806 0-1-0.754-1.81-1.684-1.81zm10.274 0.45c-0.93 0-1.683 0.812-1.684 1.811 0 1 0.755 1.807 1.684 1.807 0.93 0 1.683-0.808 1.684-1.807 0-1-0.755-1.81-1.684-1.81zm-10.296 0.146c0.624 0 1.13 0.544 1.13 1.215 0 0.67-0.506 1.21-1.13 1.21-0.623 0-1.129-0.54-1.129-1.21s0.506-1.215 1.13-1.215zm10.275 0.45c0.624 0 1.13 0.545 1.13 1.215s-0.506 1.21-1.13 1.21c-0.623 0-1.13-0.54-1.13-1.21s0.507-1.214 1.13-1.214zm17.19 0.619c-0.93 0-1.684 0.811-1.684 1.81 0 1 0.754 1.807 1.684 1.807s1.683-0.807 1.683-1.807c0-0.999-0.753-1.81-1.683-1.81zm-0.021 0.596c0.623 0 1.13 0.544 1.13 1.214s-0.507 1.211-1.13 1.211-1.13-0.54-1.13-1.21 0.507-1.215 1.13-1.215zm-35.699 0.093 5.051 1.39-1.174 5.695-5.699-1.628zm63.895-0.147c0.826 2.782-0.69 6.35-0.766 6.584-0.918 2.799-2.023 5.086-2.425 5.218-0.342 0.14-0.493 0.05-0.492-0.294 2e-3 -0.528 1.129-4.112 2.016-6.418 0.218-0.564 0.72-2.272 0.721-2.558 2e-3 -0.432-0.387 0.271-0.807 1.347-0.813 2.153-1.998 4.458-2.255 6.546-0.185 1.706-0.486 1.464-0.707-0.567-0.307-2.819 0.267-4.269 3.215-8.196 0.705-0.94 1.428-1.904 1.5-1.663zm-37.106 1.446 1.462 5.576-5.962 1.095-0.928-5.654zm-24.963 0.562c-0.93 0-1.684 0.811-1.684 1.81 0 1 0.755 1.807 1.684 1.807 0.93 0 1.684-0.807 1.684-1.806 0-1-0.755-1.81-1.684-1.81zm8.914 0.362 5.4 0.331 0.049 5.796-5.862-0.272zm-8.934 0.234c0.623 0 1.13 0.544 1.13 1.215 0 0.67-0.507 1.21-1.13 1.21-0.624 0-1.13-0.54-1.13-1.21s0.506-1.215 1.13-1.215zm22.666 0.514c-0.93 0-1.684 0.811-1.684 1.81 0 1 0.754 1.807 1.684 1.807 0.929 0 1.683-0.807 1.683-1.806 0-1-0.754-1.81-1.683-1.81zm-11.197 0.466c-0.929 0-1.683 0.811-1.683 1.81 0 1 0.754 1.807 1.683 1.807 0.93 0 1.684-0.807 1.684-1.806 0-1-0.754-1.81-1.684-1.81zm11.176 0.13c0.623 0 1.13 0.544 1.13 1.215 0 0.67-0.507 1.21-1.13 1.21-0.624 0-1.13-0.54-1.13-1.21s0.506-1.215 1.13-1.215zm-11.196 0.466c0.623 0 1.129 0.544 1.129 1.215 0 0.67-0.506 1.21-1.13 1.21-0.623 0-1.129-0.54-1.129-1.21s0.506-1.215 1.13-1.215zm36.828 0.347 0.284 0.015c1.206-0.015 5.273 3.126 6.315 5.029 0.864 1.68 0.417 2.346-0.579 0.845-1.373-1.644-3.91-4.086-4.233-4.086-0.346-2e-3 0.13 0.53 1.745 2.224 1.603 1.678 3.293 3.867 3.292 4.258 0 0.256-0.32 0.224-0.776-0.079-1-0.662-1.867-1.331-2.311-1.78-0.267-0.27-0.778-0.769-1.14-1.11-1.493-1.408-3.196-4.655-2.716-5.278 0.022-0.028 0.065-0.036 0.119-0.037zm-75.353 0.462c1.04-0.032 2.215 0.679 2.262 1.982 0.034 0.92 0.093 0.99 0.866 1.005 0.739 0.014 2.873 0.287 2.873 0.287l0.013 2.578s-1.03-7e-3 -2.217-0.068c-2.021-0.102-2.012-0.106-2.269 0.85-0.103 0.386-0.248 0.575-0.651 0.86-1.816 1.282-3.566-1.044-2.439-3.24 0.387-0.755 0.41-1.012 0.142-1.464-0.543-1.312 0.18-2.725 1.42-2.79zm0.443 1.319c-0.223 0-0.468 0.104-0.693 0.343-0.3 0.319-0.301 1.23-3e-3 1.759 0.284 0.506 0.277 0.642-0.056 0.976-0.586 0.587-0.603 1.754-0.03 2.192 0.52 0.4 1.074-0.129 1.077-0.937 3e-3 -0.886 0.58-0.87 0.58-0.87l3.797 0.07 0.012-0.665-2.755-0.149c-0.383-1e-3 -0.784-0.04-1.08-0.256-0.313-0.233-0.67-0.638-0.33-1.13 0.478-0.69 0.053-1.338-0.52-1.334zm-8.23 1.523 1.8 3.293 2.1 0.082 0.183 2.004 2.552 1.767-2.614 1.645-0.129 2.016-1.981 0.268-1.84 2.477-1.763-2.474-1.943 0.011-0.028-2.067-2.674-1.852 2.928-1.77-0.031-2.36 2.075-0.15 1.365-2.891zm63.63 1.498 0.086 1.99-2.947 0.562 0.384-2.026zm-18.893 2.004 3.973 0.13-0.229 27.92-0.932-8e-3 -0.017-1.088-1.272 0.045-1.292-0.842zm-44.737 0.708-2.332 3.173 2.824 2.652 2.487-3.103zm45.928 0.425v1.284h1.666v-1.284zm-45.876 1.1 1.642 1.292-1.25 1.777-1.584-1.475zm63.66 0.73-0.051 15.28c-5.46 4.607-7.16 12.717-7.16 12.717l-2.22-0.141 5.643-26.918zm-29.594 0.339c-4.912 2.513-9.863 4.416-14.736 10.411 1.887 1.826 3.88 3.688 5.654 6.799 4.057-0.65 8.57 0.13 13.493 2.213zm11.81 0.342v1.33h1.666v-1.33zm-55.223 1.919c0.121 0.406 0.16 0.842 0.16 0.842 3.602-0.325 2.683 4.17 0.388 4.324-0.27 0.037 0.222 0.798 0.758 1.04 1.364 0.616 2.345 0.22 3.24-1.062 0.685-0.983 0.727-1.125 0.727-1.125l2.224 1.266s0.064-0.034-0.328 1.062c-0.715 1.996 0.328 4.444 1.133 2.66 0.429-0.95 1.69-1.492 2.563-1.1 1.02 0.46 1.374 2.42 0.658 3.655-0.217 0.373-0.223 0.451-0.09 0.797 0.2 0.52 0.324 1.86 0.114 2.292-0.272 0.56-0.586 0.688-1.198 0.23-0.84-0.625-1.309-0.885-2.768-1.322-2.563-0.518-3.065-1.488-4.084-3.755-3.037 0.978-7.58-1.069-6.974-5.915 0.276-1.07 0.351-3.122-0.156-3.543-0.994-0.822 0.096-2.01 1.59-2.201 1.227-0.13 1.817 1.118 2.043 1.855zm42.95-1.405 3.948 17.784c-4.335-1.707-8.589-3.039-12.353-2.049-1.724-2.958-3.194-4.414-5.106-6.336 3.725-4.83 8.463-7.533 13.51-9.399zm-44.682 0.872c-0.256-3e-3 -0.544 0.116-0.845 0.403 0 0 0.267 0.24 0.412 0.566 0.233 0.521 0.235 0.521-0.027 1.677-1.204 4.632 1.653 7.697 5.716 6.358 0.998-0.332 0.96-0.295 1.247 0.965 0.473 2.074 1.837 3.146 4.548 3.539 0.167 0.024 0.445 0.083 0.665 0.227 1.193 0.818 0.704-0.27 0.378-0.692-0.232-0.331-0.658-0.66-0.658-0.66s0.364-0.253 0.534-0.35c0.765-0.436 1.05-2.144 0.419-2.51-0.576-0.335-1.556 0.17-1.56 0.804-4e-3 1.159-1.363 1.282-2.553 0.32-1.527-1.237-0.174-4.353-0.165-4.348l-0.861-0.407c0.114 0.11-1.813 3.054-4.185 2.027-1.656-0.717-2.824-2.78-2.056-3.368 0.56-0.161 1.23 0.17 1.656-0.183 0.847-0.715 0.163-1.968-1.046-1.922-0.254 0.01-0.832 0.13-0.832 0.13 0.064-0.584 0.203-0.994 0.136-1.557-0.072-0.564-0.434-1.012-0.922-1.017zm56.971 1.352v1.096l1.65 0.01v-1.095zm-0.017 2.257v1.129h1.667v-1.129zm0 2.433v1.155h1.667v-1.155zm0 2.269v1.222h1.667v-1.222zm0 2.276v1.14h1.667v-1.14zm0 2.32v1.151h1.667v-1.15zm-54.173 1.125 1.403 2.548 1.667 0.078 0.065 1.751 2.834 2.328-2.477 1.904-0.18 1.888-1.964 0.068-1.59 2.883-1.958-2.53-1.572-0.271-0.18-2.302-2.422-1.949 2.276-1.956 0.184-2.045 1.853 0.175zm92.206 1.218c0.152 3e-3 0.317 0.048 0.495 0.146 0.59 0.319 0.775 0.356 2.304 0.44 1.774 0.095 2.4 0.266 3.28 0.897 0.53 0.381 0.562 0.379 1.13-0.026 2.49-1.775 5.336-0.161 5.542 3.144 0.055 0.87 0.136 1.22 0.454 1.948 0.217 0.506 0.442 0.904 0.311 1.226-0.4 0.984-2.318 1.047-3.363-0.414-0.188-0.22-0.378-0.316-0.637-0.316-0.52 0.207-1.848-0.917-1.833-0.965-0.123 0.783-0.185 1.404-0.315 2.54l-2.325-0.037s-0.052-0.458-0.159-2.055c-0.124-1.838-0.548-2.375-1.095-1.382-0.94 1.709-3.437 0.957-3.582-1.077-0.048-0.69-0.085-0.78-0.436-1.069-1.176-0.972-0.833-3.022 0.23-2.998zm-38.033 0.1v1.022h1.667v-1.021zm38.3 1.092c-0.462 0.036-0.198 0.917 0.565 1.382 0.433 0.264 0.434 0.262 0.377 1.073-0.102 1.468 1.213 2.187 1.799 0.983 0.101-0.209 0.144-0.474 0.103-0.652-0.245-1.067 1.902-0.776 2.418 0.327 0.119 0.254 0.251 0.928 0.315 1.61 0.06 0.645 0.077 1.393 0.077 1.393h0.686s-8e-3 -0.446 0.03-0.872c0.17-1.823 0.921-2.977 1.933-2.972 0.432 1e-3 0.448 0.084 0.146 0.685-0.512 1.016-0.019 1.753 1.174 1.762 0.756 5e-3 0.754 7e-3 1.036 0.585 0.31 0.635 0.543 0.836 0.831 0.719 0.204-0.083 0.207 0.04-0.059-2.127-0.397-3.229-2.144-4.098-4.555-2.269-0.682 0.518-0.832 0.503-1.437-0.127-0.908-0.942-1.483-1.158-3.257-1.229-0.845-0.034-1.679-0.123-1.85-0.197a0.715 0.715 0 0 0-0.333-0.075zm-57.246 0.924c-0.394 7e-3 -0.852 0.097-1.25 0.133 0.442 2.495 0.647 4.99 0.849 7.485 2.031-0.379 4.662-0.025 8.133 1.714 2.13 1.068 4.731 2.892 7.458 4.95 2.952 2.23 6.412 3.546 9.36 4.233 3.588 0.838 6.47 0.766 6.392 0.584-0.159 0.029-1.293-6.12-1.145-7.435-4.965-0.49-9.758-2.467-13.422-5.145-4.85-3.545-10.457-6.627-16.375-6.519zm18.946 0.21v1.035h1.667v-1.036zm-54.678 0.204-2.636 2.954 2.868 2.92 2.436-2.976zm-0.073 1.341 1.493 1.539-1.206 1.642-1.68-1.557zm37.17 0.242c0.352 3e-3 0.695 0.269 1.857 0.969 0.975 0.723 1.753 1.174 1.469 0.04 0.222-0.326 1.301 0.736 2.574 1.405 1.534 1.321 1.54 1.003 1.739 0.347 0.206-0.48 0.489-0.156 1.715 1.065 1.61 1.603 1.465 1.606 1.787 1.206 0.367-0.749 0.49-0.741 1.8 0.88 1.365 1.636 1.654 1.985 1.944 1.285 0.45-0.363 0.681-0.011 2.533 1.858 0.91 0.976 1.124 0.825 1.295 0.168 0.177-0.677 0.227-0.525 1.764 0.786 1.78 1.531 1.956 1.644 2.03 1.113 0.117-0.842 0.669-0.543 2.501 0.872 1.11 0.853 1.53 1.09 1.767 0.88 0.242-0.46-0.603-1.344 1.188-0.51l0.492 2.793-0.62-0.19c-0.38-0.116-1.215-0.42-0.9 0.45 0.181 0.504-0.27 0.444-1.66-0.447-1.991-1.275-2.358-1.568-2.507-1.307-0.263 0.955-0.23 1.016-1.573-0.115-1.564-1.275-1.878-1.627-2.096-1.192-0.03 0.962-0.465 0.767-1.923-0.586-1.232-1.158-1.495-1.764-2.047-0.877-0.152 0.308-0.304 0.23-0.508 0.07-0.717-0.57-2.158-2.205-2.565-2.675-0.32-0.375-0.503-0.255-0.766 0.056-0.246 0.29-0.265 0.2-1.06-0.585-1.9-1.874-2.253-2.343-2.52-2.087-0.216 0.44-8e-3 1.037-1.468-0.2-1.83-1.418-2.625-2.047-2.501-1.118-0.314 0.415-0.094 0.497-1.926-0.593-1.741-1.035-1.962-1.346-2.214-0.99-0.17 0.562-0.755 0.36-0.755 0.327l-0.353-2.842 0.627 8e-3s0.603-0.264 0.88-0.265zm-13.97 0.239c-0.14 0.44-1.1 2.974-1.113 9.428 0.116 0.152 2.381-2.331 2.491-4.645 0.104-2.193-1.374-4.79-1.378-4.783zm31.548 0.179v1.177h1.666v-1.177zm-31.43 0.933c2.118 3.61-0.216 7.015-0.797 7.256 0-2.714 0.371-5.264 0.797-7.256zm55.586 3.033c-3.482 2.36-2.917 8.745-1.208 10.38 0.126 0 1.222-6.896 1.208-10.38zm-0.477 0.786-0.937 8.217c-1.217-1.45-1.433-5.77 0.937-8.217zm21.959 1.387 1.839 2.489 1.635 0.13 0.364 1.796 2.387 2.09-2.39 1.743-0.213 1.989-1.777 0.193-1.76 2.977-1.722-2.917-1.649-0.19-0.052-1.915-2.591-2.055 2.473-1.599 0.049-2.164 1.936 8e-3zm-65.144 0.779c-1.17 5.975-3.96 10.065-7.899 12.814l0.02 0.604-6.633 2.86c-1.453 7.29-4.066 14.402-9.544 21.073l1.528 3.338-7.41 2.738 10.607 19.56c0.731 0-5.14 2.986-12.225 2.209 4.485 11.805 5.41 24.028 2.928 34.732l34.722-0.156-26.536-55.992-0.433-0.912c-0.369-0.732 14.106 2.188 11.033 16.624-0.043 0.335 0.065 0.377 0.24 0.239 2.813-2.6 21.501-9.806 36.425-0.29l4.434-1.975c-2.11 7.943-4.51 13.408-8.553 18.197l0.686 11.305c7.156-6.301 14.92-17.869 15.963-33.242 3.222-1.688 6.025-3.606 9.027-5.413l0.398 0.138 1.944-1.256c-6.233-7.331-18.96-14.34-27.114-16.18l0.481 2.484c-4.5-1.3-7.864-1.582-11.366-1.986l-0.537-26.306-4.531-2.872-0.142 29.018c-3.388 0.045-11.179 1.482-11.179 1.482l0.35-2.48-3.568 0.79-0.063-2.418 4.033-1.244 5.847-26.656zm0.488 0.592 1.864 0.406-5.789 26.135s-3.247 0.964-3.446 0.83c-0.259-4.9-0.357-14.889-0.357-14.889 5.713-5.12 6.607-8.746 7.728-12.483zm-39.73 1.918c0.872-0.012 1.81 0.67 1.87 1.285 0.15 0.379 0.274 0.543 0.51 0.577 1.46 0.217 1.506 0.634 1.548 1.54-0.206 1.735 0.875 0.278 1.18-1.446 0.032-0.18 0.014-1.498 0.014-1.498l1.788-0.018s0.06 1.375 0.086 1.594c0.158 1.333 0.686 2.415 1.053 1.706 1.258-2.428 4.138-1.19 3.683 1.151-0.112 0.554-0.105 0.59 0.246 1.01 0.572 0.686 0.785 1.412 0.596 2.045-0.184 0.617-0.586 0.711-1.451 0.339-0.407-0.175-0.9-0.238-2.217-0.28-1.864-0.059-1.98-0.097-2.706-0.853l-0.457-0.477-0.79 0.5c-1.315 0.831-2.51 0.863-3.9 0.096-0.905-0.498-1.432-1.693-1.573-3.557-0.027-0.99-0.285-1.708-0.856-1.944-0.308-0.312 0.035-0.932 0.561-1.498 0.241-0.187 0.524-0.268 0.814-0.272zm104.23 0.283-2.456 3.293 2.92 2.81 2.72-3.44zm-56.893 0.473 3.402 2.094 0.437 25.934-3.846-0.115 7e-3 -27.912zm-47.248 0.362c-0.258 0.027-0.096 0.474 0.094 1.155 0.17 0.609 0.213 0.988 0.159 1.412-0.361 2.841 2.67 4.286 4.857 2.316 0.581-0.717 0.676-0.67 1.164 0.097 0.6 0.809 1.473 1.072 3.304 0.954 0.836-0.055 1.39 0.425 1.753 0.108 0.262-0.204 8e-3 -0.746-0.499-1.062-0.31-0.193-0.32-0.223-0.26-0.89 0.156-1.682-1.134-2.128-2.05-0.708-0.757 1.173-1.898 0.398-2.266-1.538-0.219-1.49-0.393-1.467-0.558-0.168-0.178 1.58-2.113 3.292-2.885 2.514-0.212-0.23-0.21-0.172 7e-3 -0.965 0.28-1.018 0.055-1.397-0.977-1.66-0.17-0.044-0.363-0.196-0.43-0.336-0.547-0.91-0.522-1.23-1.413-1.23zm104.39 0.604 1.56 1.445-1.359 1.724-1.659-1.37zm-56.07 0.924v1.225h1.454v-1.225zm0 2.47v1.288h1.454v-1.288zm8.764 1.482c1.63 6.511 3.274 13.017 4.912 19.527 1.552-0.667 10.511-4.943 14.736-10.416-0.16 0.014-3.841-3.856-5.13-6.366-4.226 0.749-9.08-0.204-14.518-2.746zm-8.765 0.775v1.203h1.455v-1.203zm9.683 0.327c3.85 1.236 8.784 2.938 13.327 2.072 1.171 2.263 2.867 4.126 4.78 5.844-3.438 4.021-8.409 7.089-13.552 9.45zm36.554 0.47c0.194 0 0.39 0.08 0.579 0.26 0.609 0.583 1.079 0.784 2.324 1.003 2.006 0.35 3.536 1.698 3.97 3.494 0.182 0.754 0.283 0.795 1.282 0.525 3.785-1.024 6.703 2.35 5.803 6.854-0.315 1.573-0.411 1.761 0.027 2.384 0.962 1.116 1.171 1.13 0.118 2.113-0.959 0.926-2.863 0.478-3.267-1.024-0.386-0.824-0.38-0.886-1.015-0.995-2.47-0.423-2.368-4.097-0.041-4.522 0.194-0.036 0.338 7e-3 0.436-0.041 0.66-0.321-0.72-2-1.86-1.743-1.4 0.316-2.096 1.28-2.647 2.793l-2.203-1.352c0.552-1.23 0.958-2.813 0.478-3.792-0.388-0.826-0.88-0.858-1.029-0.067-0.353 1.86-2.504 2.416-3.914 0.901-0.79-0.846-0.882-1.754-0.302-2.98 0.375-0.792 0.385-0.85 0.225-1.184-0.555-1.165 0.197-2.632 1.036-2.626zm-46.236 1.512v1.255l1.458-7e-3 -3e-3 -1.248h-1.456zm46.507 0.104c-0.448 3e-3 -0.445 0.473-0.031 1.043 0.368 0.4 0.44 0.585-0.07 0.931-0.637 0.636-0.776 1.592-0.335 2.32 0.66 1.095 2.187 0.485 2.012-0.804-0.122-0.905 0.539-1.31 1.59-0.969 1.53 0.496 2.258 2.332 1.656 4.183-0.113 0.35-0.34 1.163-0.34 1.163l0.453 0.294s0.535-0.92 0.745-1.199c1.737-2.296 5.842-1.132 5.384 1.738-0.07 0.902-0.067 1.025-0.98 0.742-0.607-0.336-1.193 0.361-1.174 1.233 0.03 0.785 0.663 1.415 1.542 1.289 0.696-0.14 0.87-0.115 0.821 0.894 0.071 0.701 0.315 1.166 0.741 1.404 1.037 0.46 1.57-0.174 0.742-1.106-0.502-0.565-0.472-1.438-0.156-2.257 0.377-0.98 0.18-3.133-0.398-4.347-0.834-1.75-3.167-2.483-5.12-1.61-0.893 0.514-0.991 0.632-1.078-0.267-0.49-2.232-2.052-3.918-3.998-4.068-0.749-0.057-1.528-0.497-2.006-0.607zm-46.507 2.28v1.159h1.458v-1.16zm0 2.265v1.278h1.455v-1.278zm0 2.492v1.278s0.796-0.024 1.455 0v-1.278zm47.515 2.049 1.593 2.533 1.764 0.127 0.208 2.045 2.674 1.791-2.318 1.56-0.017 1.979-2.21 0.2-1.954 2.787-1.662-2.458-1.663 8e-3 -0.392-2.195-2.945-1.605 3.021-1.852-0.082-2.305 2.054-0.015 1.93-2.6zm-47.516 0.302v1.311h1.455v-1.311zm0 2.402v1.297h1.455v-1.297zm46.621 0.965-2.282 3.267 3.076 2.734 2.446-3.304zm-46.621 1.307v1.42h1.455v-1.42zm46.857 0.171 1.586 1.32-1.133 1.545-1.576-1.293zm-46.857 2.452v1.188h1.455v-1.188zm-43.302 0.152c-2.805 0.014-5.458 4.899-6.093 7.212-0.752 2.963-0.864 8.324-0.15 8.474 2.515-1.945 3.706-5.243 5.595-7.71 0.293 2.854 0.247 8.36 0.247 8.36s-1.118 0.632-1.72 1.631c-0.435 0.831-0.574 1.824-0.203 2.748-1.398-0.488-3.93 0.063-4.074 2.838 0.09 3.908 4.06 3.357 4.074 3.305-0.085-0.024-0.781 4.157 2.74 4.6 1.264 0.16 3.487-0.831 2.827-4.634 2.223 0.394 4.14-0.922 4.164-3.223 0.028-1.576-1.085-2.93-3.003-2.939-0.4-1e-3 -1.244 0.194-1.244 0.194 0.027-0.228 0.768-2.673-1.812-4.448l-0.405-11.313s0.89 1.043 1.288 1.438c1.715 1.697 2.834 2.552 4.812 3.673 1.926 1.091 1.688 0.822 1.355-1.252-0.91-3.115-2.812-5.468-6.835-8.411-0.517-0.379-1.043-0.547-1.562-0.544zm0.277 0.242 0.564 16-0.835-1e-3 -0.717-15.984zm82.544 0.53 0.23 7e-3c1.814 0.164 2.28 2.346 1.465 3.315-0.323 0.383-0.434 0.466-0.267 0.7 0.779 1.062 0.344 2.738-0.426 2.995-2.45 0.82-2.82-0.621-2.813-2.316l-3.783-0.153 0.024-2.37 4.171 0.09c-0.315-1.076 0.288-2.223 1.4-2.269zm-84.297 0.025h0.046c0.392 0.036-0.012 1.163-1.105 2.88-0.74 1.16-1.768 3.208-2.076 4.034-0.673 1.808-1.126 5.05-0.675 4.455 0.408-1.355 0.447-1.92 0.797-2.894 0.46-1.27 2.612-5.448 3.038-5.86 0.365-0.351 0.459-0.135 0.451 1.04-0.019 2.647-1.185 5.431-3.966 8.691-0.464 0.544-1.082 1.137-1.126 1.137-0.268-2e-3 -0.26-0.6-0.256-1.859 0.018-5 1.744-9.463 4.4-11.384 0.207-0.15 0.364-0.228 0.474-0.238zm2.817 0.231c1.22 0.384 3.41 2.49 4.313 3.572 1.045 1.213 2.446 4.572 2.2 5.089-0.082 0.227-0.258 0.191-0.87-0.179-3.882-2.35-6.662-5.247-5.934-6.184 0.204-0.261 1.038 0.278 2.155 1.393 0.759 0.725 1.536 1.46 2.23 2.195 1.092 1.155 1.337 1.325 0.68 0.04-0.591-1.152-2.265-3.087-4.29-4.73-0.822-0.668-1.01-1.206-0.485-1.196zm81.72 0.674-0.135 0.027c-0.764 0.346-0.453 1.41-0.527 2.227l-4.199-0.156-0.024 0.625 3.938 0.231c0.07 0.639-0.24 2.017 0.268 2.25 1.102 0.493 1.704-1.035 0.768-1.952-0.333-0.318-0.694-0.459 0.232-0.909 0.61-0.56 0.706-1.655 0.184-2.141a0.775 0.775 0 0 0-0.506-0.202zm-53.12 0.187-0.211 1.672-2.436 0.66-0.062-1.788zm28.721 0.592c8.991 2.604 18.986 8.517 25.476 15.194l-1.3 0.917c-6.743-6.698-15.64-11.783-23.812-14.308zm-15.491 0.257c14.805-0.044 28.302 6.145 39.194 16.14l-1.78 1.208c-9.935-8.831-20.942-14.72-35.751-15.422-9.68-0.46-20.726 2.21-31.61 8.65l-0.811-1.583c10.572-6.2 20.952-8.964 30.758-8.992zm-1.164 2.399 5.823 0.182-0.36 5.815-5.292-0.187zm-6.263 0.413 0.821 5.61-5.068 1.017-1.438-5.625zm18.432 0.742 5.786 1.658-1.91 5.717-5.078-1.557zm-9.266 0.082c-0.918 0-1.663 0.8-1.663 1.788 0 0.987 0.745 1.788 1.663 1.788 0.919 0 1.663-0.8 1.663-1.788s-0.744-1.788-1.663-1.788zm0 0.618c0.613 0 1.109 0.523 1.109 1.17s-0.496 1.173-1.109 1.173-1.108-0.526-1.108-1.173 0.495-1.17 1.108-1.17zm-11.487 0.01c-0.918 0-1.663 0.801-1.663 1.789s0.745 1.788 1.663 1.788c0.919 0 1.663-0.8 1.663-1.788s-0.744-1.788-1.663-1.788zm0 0.62c0.613 0 1.109 0.522 1.109 1.169s-0.496 1.173-1.109 1.173-1.109-0.526-1.109-1.173 0.496-1.17 1.109-1.17zm22.901 0.718c-0.918 0-1.662 0.8-1.662 1.788s0.744 1.788 1.662 1.788c0.919 0 1.663-0.8 1.663-1.788 0-0.987-0.744-1.788-1.663-1.788zm-32.237 0.21 1.715 5.471-4.908 2.138-1.84-5.405zm32.237 0.409c0.613 0 1.109 0.522 1.109 1.17 0 0.647-0.496 1.173-1.109 1.173-0.612 0-1.108-0.526-1.108-1.174 0-0.647 0.497-1.17 1.108-1.17zm9.617 1.311 5.207 2.958-2.692 5.23-4.853-2.72zm-43.593 0.473c-0.918 0-1.662 0.8-1.662 1.788s0.744 1.788 1.662 1.788c0.919 0 1.663-0.8 1.663-1.788s-0.744-1.788-1.663-1.788zm19.67 0.171 0.242 5.524-4.61 0.35-0.839-5.49zm5.532 0.29 5.256 0.783-1.237 5.32-4.756-0.824zm-25.202 0.157c0.613 0 1.109 0.522 1.109 1.17 0 0.646-0.496 1.173-1.109 1.173-0.612 0-1.108-0.527-1.108-1.174s0.496-1.17 1.108-1.17zm17.217 0.715c-0.918 0-1.662 0.8-1.662 1.788s0.744 1.788 1.662 1.788c0.919 0 1.663-0.8 1.663-1.788s-0.744-1.788-1.663-1.788zm-8.396 0.224 1.36 5.375-5.068 1.56-1.555-5.17zm18.398 0.086c-0.919 0-1.663 0.8-1.663 1.788 0 0.987 0.744 1.788 1.663 1.788 0.918 0 1.662-0.8 1.662-1.788s-0.744-1.788-1.662-1.788zm-10.002 0.308c0.613 0 1.109 0.523 1.109 1.17s-0.496 1.173-1.109 1.173c-0.612 0-1.108-0.526-1.108-1.173s0.496-1.17 1.108-1.17zm10.002 0.31c0.612 0 1.108 0.522 1.108 1.169s-0.496 1.173-1.108 1.173c-0.613 0-1.109-0.526-1.109-1.173s0.496-1.17 1.109-1.17zm17.784 0.01c-0.918 0-1.662 0.8-1.662 1.788s0.744 1.788 1.662 1.788c0.919 0 1.663-0.8 1.663-1.788s-0.744-1.788-1.663-1.788zm-8.996 0.522 5.078 1.866-2.026 5.103-4.86-1.99zm8.996 0.097c0.613 0 1.109 0.522 1.109 1.17 0 0.646-0.496 1.173-1.109 1.173-0.612 0-1.108-0.527-1.108-1.174s0.496-1.17 1.108-1.17zm-38.202 0.19c-0.919 0-1.663 0.8-1.663 1.787 0 0.988 0.744 1.788 1.663 1.788 0.918 0 1.662-0.8 1.662-1.788s-0.744-1.788-1.662-1.788zm0 0.618c0.612 0 1.108 0.522 1.108 1.17 0 0.646-0.496 1.173-1.108 1.173-0.613 0-1.109-0.527-1.109-1.174s0.497-1.17 1.109-1.17zm30.769 1.042c-0.919 0-1.663 0.8-1.663 1.788s0.744 1.788 1.663 1.788c0.918 0 1.663-0.8 1.663-1.788 0-0.987-0.745-1.788-1.663-1.788zm0 0.619c0.612 0 1.108 0.522 1.108 1.17 0 0.646-0.496 1.173-1.108 1.173-0.613 0-1.109-0.527-1.109-1.174s0.496-1.17 1.109-1.17zm-59.487 0.622c1.329 0.06 2.326 1.344 2.386 2.679 0.046 1.015-1.158 2.344-1.158 2.344l-1.401-1.395-1.346 1.333c-0.227 0.081-1.272-1.83-0.953-2.818 0.416-1.288 1.272-2.197 2.473-2.143zm75.505 0 4.022 3.539s-1.766 1.154-2.093 1.36c0.04-0.154 0.06-0.317 0.06-0.485 0-0.987-0.745-1.788-1.663-1.788-0.919 0-1.663 0.8-1.663 1.788 0 0.847 0.55 1.558 1.285 1.743-0.414 0.256-0.963 0.586-0.963 0.586l-2.124-1.915zm-6.367 9.458-1.78 0.785c-10.95-7.735-25.933-11.968-43.06-4.18l-0.589-1.526c12.714-5.693 28.756-7.465 45.43 4.921zm-0.973-7.73 4.31 2.843-2.737 4.519-4.209-2.895zm-1.302 8.762-1.808 0.73c-13.368-9.236-27.617-8.744-40.347-3.208l-0.197-1.297c14.99-6.979 30.036-4.758 42.352 3.774zm8.969-7.245c0.613 0 1.109 0.522 1.109 1.17 0 0.646-0.496 1.173-1.109 1.173s-1.109-0.527-1.109-1.174 0.496-1.17 1.109-1.17zm-77.782 2.118-1.486 1.613 1.356 1.64s-0.43 0.391-0.742 0.574c-1.78 1.041-3.726-0.603-3.633-2.38 0.136-2.587 3.035-3.82 4.504-1.447zm70.736-1.235c-0.918 0-1.663 0.8-1.663 1.788s0.745 1.788 1.663 1.788c0.919 0 1.663-0.8 1.663-1.788s-0.744-1.788-1.663-1.788zm-64.718 0.073c1.323 0.01 2.35 1.103 2.477 2.36 0.102 1.002-0.383 1.964-1.428 2.645-1.417 0.925-3.064-0.572-3.036-0.664l1.195-1.27-1.437-1.58c-0.042-0.03 0.948-1.501 2.227-1.49zm-4.14 0.307 2.45 2.626-2.592 2.596-2.4-2.592zm64.59 6.988-1.375 0.678-1.875-1.214-0.554 1.143 1.043 0.711-1.084 0.438c-12.49-7.546-26.603-5.36-35.985-0.353 0 0 0.081-0.776 0.086-0.776l1.022-0.56-0.38-1.39-0.548 0.171-0.042-1.539c13.396-6.485 28.595-5 39.693 2.69zm4.268-6.75c0.613 0 1.109 0.523 1.109 1.17s-0.496 1.173-1.109 1.173c-0.612 0-1.108-0.526-1.108-1.173s0.496-1.17 1.108-1.17zm-68.909 0.94-1.306 1.396 1.3 1.49 1.267-1.44zm40.884 0.308-1.71 0.082 0.09 1.501 1.67-0.045zm1.168 8e-3 0.03 1.5 1.553-7e-3 -8e-3 -1.482-1.576-0.011zm2.754 0.026-0.077 1.494 1.542 0.074 0.111-1.486zm-6.651 0.19-1.753 0.205 0.194 1.509 1.66-0.21zm9.523 0.022-0.125 1.542 1.583 0.194 0.215-1.476zm-47.67 8e-3 0.761 0.872-0.758 0.812-0.807-0.85zm35.192 0.458-1.691 0.287 0.18 1.554 1.649-0.35zm15.336 0-0.281 1.438 1.573 0.407 0.256-1.468zm-18.108 0.63-1.42 0.406 0.308 1.512 1.5-0.394zm20.806 0.06-0.298 1.46 1.604 0.469 0.323-1.4zm-23.15 0.725-1.487 0.567 0.384 1.4 1.51-0.547zm25.912 0.16-0.496 1.405 1.39 0.6 0.613-1.275zm-28.365 0.824-1.41 0.622 0.581 1.39 1.338-0.656zm-29.061 0.043 1.427 1.533 1.696-1.645c1.48 1.407 1.456 4.697-1.163 5.247-2.288 0.48-4.38-3.203-1.96-5.135zm59.972 0.296-0.545 1.289 1.535 0.726 0.53-1.24zm-43.774 8.27 19.365 35.392-3.062-0.063-18.742-34.2zm-3.179 1.348 1.071 1.789c-2.097-1.795-5.179-0.285-5.049 1.978 0.103 1.01 0.897 1.624 0.901 0.651-0.095-1.016 1.245-1.902 2.217-1.855 1.795 0.025 2.89 2.505 1.653 3.74-0.815 0.807-1.917 0.771-1.545-0.335 0.058-0.382 0.03-0.52-0.139-0.685-0.515-0.505-1.465 0.153-1.233 0.875 0.152 0.476 0.197 0.593-0.333 0.984-2.053 1.55-0.622 4.607 1.864 3.214 0.508-0.197 0.715-0.226 0.946-0.13 1.034 0.428 1.74-0.538 0.759-1.04-0.57-0.291-0.585-0.789-0.035-1.184 1.174-0.843 3.003 0.475 2.997 2.16-5e-3 1.193-1.469 2.076-2.872 1.729-0.835-0.206-0.935 0.402-0.17 1.032 1.481 1.221 3.699 0.209 4.361-1.99 0.208-0.69 0.178-0.835 0.178-0.835l1.976 3.508s-0.613-0.312-0.983-0.433c-1.86-0.61-3.946 0.686-3.953 2.458-4e-3 0.835 0.456 1.158 0.713 0.503 0.6-1.525 1.902-2.117 3.24-1.475 1.237 0.594 1.803 1.942 1.32 3.144-0.506 1.259-2.204 1.63-2.013 0.44 0.092-0.568-0.23-0.914-0.797-0.857-0.214 0.022-0.49 0.691-0.416 1.013 0.07 0.301 0.02 0.374-0.707 0.983-1.726 1.448-0.398 3.81 1.757 3.126 0.362-0.116 0.496-0.105 0.821 0.063 0.78 0.404 1.598 0.153 1.6-0.491 2e-3 -0.443-0.184-0.613-0.672-0.615-0.739-3e-3 -0.579-0.902 0.239-1.34 2.05-1.102 4.145 1.68 2.896 3.847-0.536 0.931-0.876 1.027-2.792 0.801-0.31-0.036-0.449 0.192-0.265 0.462 0.567 0.864 2.253 1.137 3.236 0.66 1.06-0.517 1.707-1.82 1.782-3.21l2.166 4.07c-1.685-1.896-4.592-1.171-5.06 1.543-2e-3 0.688 0.582 1.045 0.784 0.48 0.876-2.449 4.208-1.698 4.199 0.946-2e-3 0.426-0.08 0.667-0.333 1.04-0.612 1.267-2.175 1.581-1.892 0.443 0.126-0.352-0.124-0.734-0.554-0.845-0.423-0.11-0.693 0.272-0.682 0.964l0.011 0.678c-0.78 0.353-1.277 1.045-1.45 2.069l-15.169 0.036c1.804-11.305 1.38-21.514-2.068-31.167-0.298-0.838-0.725-2.055-0.725-2.055l2.677 0.077c0.646 0.602 3.086 0.368 4.04-0.563zm2.575 4.44 1.566 3.025c-0.648-0.4-1.308-0.664-2.317-0.756 0.526-0.84 0.568-1.593 0.75-2.27zm-4.118 3.215c0.57 0 1.032 0.497 1.032 1.11 0 0.614-0.461 1.11-1.032 1.11-0.57 0-1.036-0.496-1.036-1.11 0-0.613 0.465-1.11 1.036-1.11zm10.801 9.04 1.509 2.888c-0.735-0.336-1.354-0.664-2.502-0.696 0.418-0.525 0.778-1.405 0.993-2.192zm-4.351 3.094c0.54 0 0.98 0.472 0.98 1.054s-0.44 1.05-0.98 1.05c-0.542 0-0.977-0.468-0.977-1.05s0.435-1.054 0.977-1.054zm10.932 9 2.228 4.249c-0.877-0.54-1.82-1.223-3.003-1.092 0.563-1.295 0.87-2 0.775-3.158zm-2.964 5.301-2.389 9e-3c0.478-2.246 2.41-1.662 2.39-9e-3zm2.261-1.082c0.813 0.044 1.513 0.342 1.952 1.104l-3.006 9e-3s0.02-1.118 1.054-1.113z"/></svg>
